<svg xmlns="http://www.w3.org/2000/svg" xmlns:xlink="http://www.w3.org/1999/xlink" width="1080" zoomAndPan="magnify" viewBox="0 0 810 809.999993" height="1080" preserveAspectRatio="xMidYMid meet" version="1.0"><defs><clipPath id="1307facd72"><path d="M 206 211.417969 L 604 211.417969 L 604 598.417969 L 206 598.417969 Z M 206 211.417969 " clip-rule="nonzero"/></clipPath></defs><rect x="-81" width="972" fill="#ffffff" y="-80.999999" height="971.999992" fill-opacity="1"/><rect x="-81" width="972" fill="#ffffff" y="-80.999999" height="971.999992" fill-opacity="1"/><g clip-path="url(#1307facd72)"><path fill="#194392" d="M 564.773438 211.417969 L 393.445312 211.417969 C 369.738281 217.683594 355.269531 232.046875 353.648438 258.125 C 353.8125 263.148438 353.972656 268.167969 354.136719 273.136719 C 354.136719 282.316406 354.082031 290.847656 354.136719 299.433594 C 354.136719 312.660156 354.027344 325.945312 354.082031 339.175781 L 245.117188 339.175781 C 242.796875 339.660156 240.519531 340.304688 238.285156 341.105469 C 236.054688 341.90625 233.886719 342.859375 231.789062 343.960938 C 229.6875 345.066406 227.675781 346.308594 225.746094 347.691406 C 223.820312 349.070312 221.996094 350.582031 220.277344 352.214844 C 218.558594 353.851562 216.964844 355.597656 215.488281 357.453125 C 214.011719 359.308594 212.671875 361.257812 211.464844 363.300781 C 210.261719 365.34375 209.203125 367.460938 208.292969 369.652344 C 207.378906 371.839844 206.625 374.082031 206.023438 376.378906 L 206.023438 488.042969 C 206.664062 493.851562 208.589844 499.195312 211.800781 504.078125 C 214.097656 507.261719 216.796875 510.054688 219.902344 512.453125 C 223.007812 514.851562 226.390625 516.757812 230.050781 518.171875 C 233.59375 519.871094 237.277344 521.160156 241.101562 522.042969 C 244.925781 522.929688 248.804688 523.382812 252.730469 523.410156 L 265.203125 523.410156 L 265.203125 558.9375 C 265.527344 572.113281 265.90625 585.34375 266.230469 598.570312 C 272.601562 592.523438 278.054688 587.230469 282.320312 583.074219 C 295.710938 569.953125 302.246094 563.257812 310.34375 554.617188 C 317.203125 547.382812 317.527344 546.953125 320.765625 543.601562 C 335.558594 528.160156 339.449219 526.324219 341.445312 525.515625 C 345.484375 523.789062 349.695312 523.015625 354.082031 523.191406 C 372.332031 523.894531 390.636719 523.515625 408.941406 523.410156 C 410.492188 523.476562 412.042969 523.460938 413.59375 523.367188 C 415.144531 523.273438 416.6875 523.097656 418.21875 522.84375 C 419.753906 522.585938 421.269531 522.253906 422.765625 521.839844 C 424.265625 521.429688 425.738281 520.941406 427.183594 520.375 C 428.632812 519.8125 430.046875 519.171875 431.425781 518.460938 C 432.808594 517.75 434.148438 516.96875 435.445312 516.117188 C 436.746094 515.265625 438 514.347656 439.203125 513.367188 C 440.410156 512.386719 441.558594 511.347656 442.65625 510.246094 C 443.753906 509.144531 444.789062 507.992188 445.765625 506.785156 C 446.742188 505.574219 447.65625 504.320312 448.5 503.015625 C 449.347656 501.714844 450.125 500.371094 450.832031 498.988281 C 451.539062 497.605469 452.171875 496.1875 452.730469 494.738281 C 453.292969 493.289062 453.773438 491.816406 454.183594 490.316406 C 454.589844 488.816406 454.917969 487.300781 455.167969 485.765625 C 455.417969 484.234375 455.585938 482.691406 455.675781 481.140625 C 455.765625 479.589844 455.773438 478.039062 455.703125 476.484375 C 455.863281 460.070312 455.757812 443.601562 455.757812 427.1875 L 455.757812 400.945312 L 455.917969 395.4375 C 460.269531 395.269531 464.445312 396.042969 468.445312 397.761719 C 470.390625 398.570312 474.277344 400.351562 489.070312 415.847656 C 492.3125 419.195312 492.6875 419.628906 499.492188 426.863281 C 507.644531 435.503906 514.179688 442.199219 527.570312 455.320312 C 531.78125 459.476562 537.234375 464.769531 543.660156 470.816406 C 543.984375 457.585938 544.308594 444.375 544.632812 431.183594 L 544.632812 395.652344 L 557.160156 395.652344 C 561.078125 395.625 564.945312 395.167969 568.761719 394.285156 C 572.578125 393.402344 576.253906 392.113281 579.785156 390.417969 C 583.445312 389 586.824219 387.089844 589.929688 384.691406 C 593.035156 382.292969 595.738281 379.503906 598.035156 376.324219 C 601.269531 371.425781 603.214844 366.0625 603.867188 360.234375 L 603.867188 248.621094 C 603.265625 246.328125 602.507812 244.089844 601.59375 241.898438 C 600.679688 239.710938 599.621094 237.59375 598.417969 235.554688 C 597.210938 233.511719 595.871094 231.5625 594.394531 229.707031 C 592.917969 227.851562 591.320312 226.105469 589.601562 224.46875 C 587.886719 222.835938 586.0625 221.328125 584.136719 219.945312 C 582.207031 218.5625 580.195312 217.320312 578.097656 216.214844 C 575.996094 215.113281 573.832031 214.160156 571.601562 213.355469 C 569.371094 212.554688 567.09375 211.90625 564.773438 211.417969 Z M 440.800781 476.488281 C 440.875 477.554688 440.890625 478.621094 440.855469 479.6875 C 440.816406 480.757812 440.71875 481.820312 440.566406 482.878906 C 440.414062 483.9375 440.207031 484.984375 439.941406 486.019531 C 439.675781 487.054688 439.355469 488.074219 438.984375 489.074219 C 438.609375 490.078125 438.183594 491.054688 437.703125 492.011719 C 437.226562 492.96875 436.699219 493.894531 436.121094 494.796875 C 435.542969 495.695312 434.917969 496.5625 434.25 497.394531 C 433.578125 498.226562 432.867188 499.023438 432.109375 499.777344 C 431.355469 500.535156 430.5625 501.25 429.730469 501.921875 C 428.898438 502.59375 428.035156 503.21875 427.132812 503.796875 C 426.234375 504.375 425.308594 504.90625 424.355469 505.386719 C 423.398438 505.867188 422.421875 506.292969 421.417969 506.667969 C 420.417969 507.042969 419.398438 507.363281 418.363281 507.632812 C 417.328125 507.898438 416.28125 508.109375 415.226562 508.261719 C 414.167969 508.417969 413.105469 508.515625 412.035156 508.554688 C 410.96875 508.597656 409.898438 508.578125 408.832031 508.507812 C 387.722656 508.667969 366.664062 508.777344 345.550781 508.398438 C 344.023438 508.316406 342.503906 508.40625 341 508.667969 C 339.492188 508.925781 338.03125 509.351562 336.621094 509.941406 C 335.207031 510.527344 333.878906 511.265625 332.636719 512.15625 C 331.390625 513.042969 330.257812 514.058594 329.242188 515.203125 C 321.46875 523.191406 312.828125 530.375 305.699219 538.960938 C 297.648438 548.636719 288.792969 557.507812 279.132812 565.578125 C 279.296875 561.367188 279.890625 541.496094 280.160156 519.792969 C 280.335938 518.152344 280.183594 516.542969 279.695312 514.964844 C 279.207031 513.390625 278.425781 511.972656 277.351562 510.71875 C 276.1875 509.816406 274.894531 509.171875 273.472656 508.789062 C 272.046875 508.40625 270.605469 508.308594 269.144531 508.507812 C 263.582031 508.722656 257.96875 508.613281 252.40625 508.507812 C 251.359375 508.546875 250.308594 508.535156 249.261719 508.46875 C 248.214844 508.402344 247.175781 508.285156 246.140625 508.109375 C 245.105469 507.933594 244.082031 507.707031 243.070312 507.425781 C 242.0625 507.144531 241.066406 506.808594 240.089844 506.425781 C 239.117188 506.042969 238.160156 505.605469 237.230469 505.121094 C 236.300781 504.640625 235.394531 504.109375 234.519531 503.53125 C 233.644531 502.953125 232.800781 502.332031 231.992188 501.664062 C 231.179688 501 230.40625 500.292969 229.667969 499.546875 C 228.929688 498.800781 228.234375 498.015625 227.578125 497.199219 C 226.921875 496.378906 226.308594 495.527344 225.742188 494.644531 C 225.175781 493.765625 224.65625 492.855469 224.183594 491.917969 C 223.710938 490.980469 223.285156 490.023438 222.914062 489.042969 C 222.539062 488.058594 222.21875 487.0625 221.949219 486.046875 C 221.679688 485.035156 221.464844 484.007812 221.304688 482.972656 C 221.140625 481.9375 221.03125 480.894531 220.980469 479.847656 C 220.925781 478.796875 220.925781 477.75 220.980469 476.703125 C 220.820312 446.679688 220.820312 416.621094 220.980469 386.527344 C 220.917969 385.480469 220.910156 384.429688 220.957031 383.378906 C 221.003906 382.328125 221.105469 381.285156 221.261719 380.246094 C 221.417969 379.207031 221.628906 378.175781 221.890625 377.160156 C 222.152344 376.140625 222.46875 375.140625 222.835938 374.15625 C 223.203125 373.171875 223.617188 372.207031 224.085938 371.265625 C 224.554688 370.324219 225.066406 369.410156 225.628906 368.523438 C 226.191406 367.632812 226.800781 366.777344 227.453125 365.953125 C 228.101562 365.128906 228.796875 364.339844 229.527344 363.585938 C 230.261719 362.835938 231.035156 362.121094 231.839844 361.449219 C 232.648438 360.777344 233.488281 360.148438 234.363281 359.5625 C 235.234375 358.980469 236.136719 358.441406 237.066406 357.949219 C 237.996094 357.457031 238.949219 357.015625 239.921875 356.625 C 240.898438 356.234375 241.890625 355.890625 242.902344 355.601562 C 243.914062 355.316406 244.933594 355.078125 245.96875 354.898438 C 247.003906 354.714844 248.046875 354.585938 249.097656 354.511719 C 250.144531 354.4375 251.195312 354.417969 252.246094 354.453125 C 286.316406 354.292969 320.386719 354.238281 354.460938 354.292969 C 354.589844 356.171875 354.84375 358.035156 355.210938 359.882812 C 355.582031 361.726562 356.066406 363.542969 356.671875 365.328125 C 357.273438 367.113281 357.984375 368.851562 358.808594 370.546875 C 359.632812 372.238281 360.5625 373.875 361.597656 375.449219 C 362.628906 377.023438 363.757812 378.527344 364.984375 379.957031 C 366.210938 381.386719 367.523438 382.734375 368.917969 383.996094 C 370.316406 385.257812 371.789062 386.425781 373.335938 387.5 C 374.882812 388.574219 376.492188 389.546875 378.164062 390.417969 C 381.695312 392.164062 385.382812 393.480469 389.222656 394.363281 C 393.0625 395.25 396.953125 395.679688 400.894531 395.652344 C 406.945312 395.707031 412.992188 395.761719 419.039062 395.761719 C 426.273438 395.871094 433.5625 395.871094 440.800781 395.761719 C 440.960938 422.652344 440.960938 449.558594 440.800781 476.488281 Z M 588.910156 348.949219 C 588.964844 349.996094 588.964844 351.042969 588.910156 352.09375 C 588.851562 353.140625 588.742188 354.183594 588.582031 355.222656 C 588.417969 356.257812 588.199219 357.285156 587.929688 358.300781 C 587.660156 359.3125 587.335938 360.3125 586.960938 361.292969 C 586.585938 362.273438 586.164062 363.234375 585.6875 364.167969 C 585.214844 365.105469 584.695312 366.015625 584.125 366.898438 C 583.554688 367.78125 582.941406 368.632812 582.285156 369.453125 C 581.628906 370.269531 580.929688 371.054688 580.191406 371.800781 C 579.453125 372.546875 578.679688 373.25 577.867188 373.917969 C 577.054688 374.582031 576.210938 375.203125 575.332031 375.78125 C 574.457031 376.359375 573.550781 376.890625 572.621094 377.375 C 571.6875 377.859375 570.734375 378.292969 569.753906 378.675781 C 568.777344 379.058594 567.785156 379.394531 566.773438 379.671875 C 565.761719 379.953125 564.738281 380.183594 563.703125 380.355469 C 562.664062 380.53125 561.625 380.652344 560.578125 380.71875 C 559.527344 380.78125 558.480469 380.792969 557.429688 380.75 C 551.867188 380.859375 546.253906 380.96875 540.691406 380.75 C 539.238281 380.542969 537.804688 380.628906 536.386719 381.015625 C 534.96875 381.398438 533.6875 382.050781 532.539062 382.964844 C 531.460938 384.214844 530.671875 385.628906 530.171875 387.207031 C 529.675781 388.78125 529.511719 390.390625 529.675781 392.035156 C 529.945312 413.742188 530.59375 433.558594 530.703125 437.824219 C 521.058594 429.738281 512.203125 420.867188 504.136719 411.203125 C 497.0625 402.621094 488.371094 395.4375 480.648438 387.445312 C 479.628906 386.300781 478.492188 385.285156 477.242188 384.394531 C 475.992188 383.503906 474.660156 382.765625 473.246094 382.175781 C 471.828125 381.589844 470.363281 381.164062 468.851562 380.90625 C 467.339844 380.644531 465.820312 380.558594 464.289062 380.644531 C 461.425781 380.695312 458.5625 380.75 455.703125 380.75 C 450.574219 380.804688 445.496094 380.859375 440.367188 380.859375 C 427.246094 380.914062 414.125 380.804688 401.003906 380.75 C 383.402344 380.589844 371.628906 370.652344 369.46875 354.292969 C 369.183594 352.449219 369.042969 350.597656 369.039062 348.730469 L 369.039062 339.175781 C 368.929688 312.285156 368.875 285.394531 369.039062 258.503906 C 368.972656 257.453125 368.960938 256.40625 369.003906 255.355469 C 369.050781 254.304688 369.148438 253.257812 369.304688 252.21875 C 369.457031 251.179688 369.667969 250.152344 369.929688 249.132812 C 370.191406 248.113281 370.507812 247.113281 370.875 246.128906 C 371.246094 245.144531 371.664062 244.179688 372.132812 243.242188 C 372.601562 242.300781 373.121094 241.386719 373.6875 240.5 C 374.25 239.613281 374.863281 238.761719 375.519531 237.9375 C 376.171875 237.117188 376.871094 236.332031 377.609375 235.582031 C 378.347656 234.835938 379.121094 234.128906 379.933594 233.460938 C 380.75 232.792969 381.59375 232.171875 382.472656 231.59375 C 383.351562 231.015625 384.257812 230.484375 385.191406 230.003906 C 386.125 229.519531 387.082031 229.089844 388.0625 228.707031 C 389.039062 228.324219 390.039062 227.996094 391.050781 227.71875 C 392.066406 227.441406 393.089844 227.21875 394.128906 227.050781 C 395.167969 226.882812 396.210938 226.769531 397.261719 226.710938 C 398.308594 226.652344 399.359375 226.648438 400.410156 226.699219 C 452.785156 226.429688 505.199219 226.429688 557.648438 226.699219 C 558.695312 226.664062 559.746094 226.683594 560.796875 226.757812 C 561.84375 226.832031 562.886719 226.960938 563.921875 227.140625 C 564.957031 227.324219 565.976562 227.558594 566.988281 227.847656 C 568 228.136719 568.992188 228.476562 569.96875 228.871094 C 570.941406 229.261719 571.894531 229.703125 572.824219 230.195312 C 573.753906 230.6875 574.65625 231.222656 575.527344 231.808594 C 576.402344 232.394531 577.242188 233.023438 578.050781 233.695312 C 578.859375 234.367188 579.628906 235.078125 580.363281 235.832031 C 581.09375 236.585938 581.789062 237.375 582.441406 238.199219 C 583.089844 239.023438 583.699219 239.878906 584.261719 240.769531 C 584.824219 241.65625 585.339844 242.570312 585.804688 243.511719 C 586.273438 244.453125 586.691406 245.417969 587.054688 246.402344 C 587.421875 247.386719 587.738281 248.386719 588 249.40625 C 588.265625 250.421875 588.472656 251.453125 588.628906 252.492188 C 588.785156 253.53125 588.886719 254.574219 588.933594 255.625 C 588.980469 256.675781 588.972656 257.726562 588.910156 258.773438 C 589.074219 288.851562 589.074219 318.90625 588.910156 348.949219 Z M 556.617188 284.265625 L 403.601562 284.265625 C 403.070312 284.265625 402.542969 284.214844 402.019531 284.109375 C 401.5 284.007812 400.992188 283.851562 400.5 283.648438 C 400.011719 283.445312 399.542969 283.195312 399.101562 282.902344 C 398.660156 282.605469 398.25 282.269531 397.875 281.894531 C 397.496094 281.515625 397.160156 281.109375 396.867188 280.664062 C 396.570312 280.222656 396.320312 279.757812 396.117188 279.265625 C 395.914062 278.773438 395.761719 278.269531 395.65625 277.746094 C 395.554688 277.222656 395.5 276.699219 395.5 276.167969 C 395.5 275.632812 395.554688 275.109375 395.65625 274.585938 C 395.761719 274.0625 395.914062 273.558594 396.117188 273.066406 C 396.320312 272.574219 396.570312 272.109375 396.867188 271.667969 C 397.160156 271.222656 397.496094 270.816406 397.875 270.4375 C 398.25 270.0625 398.660156 269.726562 399.101562 269.429688 C 399.542969 269.136719 400.011719 268.886719 400.5 268.683594 C 400.992188 268.480469 401.5 268.324219 402.019531 268.222656 C 402.542969 268.117188 403.070312 268.066406 403.601562 268.066406 L 556.617188 268.066406 C 557.148438 268.066406 557.675781 268.117188 558.195312 268.222656 C 558.71875 268.324219 559.222656 268.480469 559.714844 268.683594 C 560.207031 268.886719 560.671875 269.136719 561.113281 269.429688 C 561.558594 269.726562 561.964844 270.0625 562.34375 270.4375 C 562.71875 270.816406 563.054688 271.222656 563.351562 271.667969 C 563.644531 272.109375 563.894531 272.574219 564.097656 273.066406 C 564.300781 273.558594 564.457031 274.0625 564.558594 274.585938 C 564.664062 275.109375 564.714844 275.632812 564.714844 276.167969 C 564.714844 276.699219 564.664062 277.222656 564.558594 277.746094 C 564.457031 278.269531 564.300781 278.773438 564.097656 279.265625 C 563.894531 279.757812 563.644531 280.222656 563.351562 280.664062 C 563.054688 281.109375 562.71875 281.515625 562.34375 281.894531 C 561.964844 282.269531 561.558594 282.605469 561.113281 282.902344 C 560.671875 283.195312 560.207031 283.445312 559.714844 283.648438 C 559.222656 283.851562 558.71875 284.007812 558.195312 284.109375 C 557.675781 284.214844 557.148438 284.265625 556.617188 284.265625 Z M 501.964844 327.203125 L 408.289062 327.203125 C 407.757812 327.203125 407.230469 327.152344 406.707031 327.046875 C 406.1875 326.945312 405.679688 326.789062 405.1875 326.585938 C 404.695312 326.382812 404.230469 326.132812 403.789062 325.839844 C 403.347656 325.542969 402.9375 325.207031 402.5625 324.832031 C 402.183594 324.453125 401.847656 324.046875 401.554688 323.605469 C 401.257812 323.160156 401.007812 322.695312 400.804688 322.203125 C 400.601562 321.710938 400.449219 321.207031 400.34375 320.683594 C 400.242188 320.164062 400.1875 319.636719 400.1875 319.105469 C 400.1875 318.570312 400.242188 318.046875 400.34375 317.523438 C 400.449219 317.003906 400.601562 316.496094 400.804688 316.003906 C 401.007812 315.511719 401.257812 315.046875 401.554688 314.605469 C 401.847656 314.160156 402.183594 313.753906 402.5625 313.375 C 402.9375 313 403.347656 312.664062 403.789062 312.371094 C 404.230469 312.074219 404.695312 311.824219 405.1875 311.621094 C 405.679688 311.417969 406.1875 311.265625 406.707031 311.160156 C 407.230469 311.054688 407.757812 311.003906 408.289062 311.003906 L 501.964844 311.003906 C 502.496094 311.003906 503.023438 311.054688 503.546875 311.160156 C 504.066406 311.265625 504.574219 311.417969 505.066406 311.621094 C 505.554688 311.824219 506.023438 312.074219 506.464844 312.371094 C 506.90625 312.664062 507.316406 313 507.691406 313.375 C 508.070312 313.753906 508.40625 314.160156 508.699219 314.605469 C 508.996094 315.046875 509.246094 315.511719 509.449219 316.003906 C 509.652344 316.496094 509.804688 317.003906 509.910156 317.523438 C 510.011719 318.046875 510.066406 318.570312 510.066406 319.105469 C 510.066406 319.636719 510.011719 320.164062 509.910156 320.683594 C 509.804688 321.207031 509.652344 321.710938 509.449219 322.203125 C 509.246094 322.695312 508.996094 323.160156 508.699219 323.605469 C 508.40625 324.046875 508.070312 324.453125 507.691406 324.832031 C 507.316406 325.207031 506.90625 325.542969 506.464844 325.839844 C 506.023438 326.132812 505.554688 326.382812 505.066406 326.585938 C 504.574219 326.789062 504.066406 326.945312 503.546875 327.046875 C 503.023438 327.152344 502.496094 327.203125 501.964844 327.203125 Z M 406.257812 460.621094 L 253.242188 460.621094 C 252.710938 460.621094 252.183594 460.570312 251.664062 460.464844 C 251.140625 460.363281 250.636719 460.210938 250.144531 460.003906 C 249.652344 459.800781 249.1875 459.550781 248.742188 459.257812 C 248.300781 458.960938 247.890625 458.625 247.515625 458.25 C 247.140625 457.875 246.804688 457.464844 246.507812 457.023438 C 246.214844 456.582031 245.964844 456.113281 245.761719 455.621094 C 245.558594 455.132812 245.402344 454.625 245.300781 454.101562 C 245.195312 453.582031 245.144531 453.054688 245.144531 452.523438 C 245.144531 451.992188 245.195312 451.464844 245.300781 450.941406 C 245.402344 450.421875 245.558594 449.914062 245.761719 449.421875 C 245.964844 448.933594 246.214844 448.464844 246.507812 448.023438 C 246.804688 447.582031 247.140625 447.171875 247.515625 446.796875 C 247.890625 446.417969 248.300781 446.082031 248.742188 445.789062 C 249.1875 445.492188 249.652344 445.242188 250.144531 445.039062 C 250.636719 444.835938 251.140625 444.683594 251.664062 444.578125 C 252.183594 444.476562 252.710938 444.421875 253.242188 444.421875 L 406.257812 444.421875 C 406.789062 444.421875 407.316406 444.476562 407.835938 444.578125 C 408.359375 444.683594 408.867188 444.835938 409.355469 445.039062 C 409.847656 445.242188 410.316406 445.492188 410.757812 445.789062 C 411.199219 446.082031 411.609375 446.417969 411.984375 446.796875 C 412.359375 447.171875 412.695312 447.582031 412.992188 448.023438 C 413.289062 448.464844 413.535156 448.933594 413.742188 449.421875 C 413.945312 449.914062 414.097656 450.421875 414.203125 450.941406 C 414.304688 451.464844 414.355469 451.992188 414.355469 452.523438 C 414.355469 453.054688 414.304688 453.582031 414.203125 454.101562 C 414.097656 454.625 413.945312 455.132812 413.742188 455.621094 C 413.535156 456.113281 413.289062 456.582031 412.992188 457.023438 C 412.695312 457.464844 412.359375 457.875 411.984375 458.25 C 411.609375 458.625 411.199219 458.960938 410.757812 459.257812 C 410.316406 459.550781 409.847656 459.800781 409.355469 460.003906 C 408.867188 460.210938 408.359375 460.363281 407.835938 460.464844 C 407.316406 460.570312 406.789062 460.621094 406.257812 460.621094 Z M 253.898438 400.945312 L 347.574219 400.945312 C 348.105469 400.945312 348.632812 400.996094 349.15625 401.101562 C 349.675781 401.207031 350.183594 401.359375 350.675781 401.5625 C 351.164062 401.765625 351.632812 402.015625 352.074219 402.3125 C 352.515625 402.605469 352.925781 402.941406 353.300781 403.316406 C 353.679688 403.695312 354.011719 404.101562 354.308594 404.546875 C 354.605469 404.988281 354.855469 405.453125 355.058594 405.945312 C 355.261719 406.4375 355.414062 406.945312 355.519531 407.464844 C 355.621094 407.988281 355.675781 408.511719 355.675781 409.046875 C 355.675781 409.578125 355.621094 410.105469 355.519531 410.625 C 355.414062 411.148438 355.261719 411.652344 355.058594 412.144531 C 354.855469 412.636719 354.605469 413.101562 354.308594 413.542969 C 354.011719 413.988281 353.679688 414.394531 353.300781 414.773438 C 352.925781 415.148438 352.515625 415.484375 352.074219 415.78125 C 351.632812 416.074219 351.164062 416.324219 350.675781 416.527344 C 350.183594 416.730469 349.675781 416.886719 349.15625 416.988281 C 348.632812 417.09375 348.105469 417.144531 347.574219 417.144531 L 253.898438 417.144531 C 253.363281 417.144531 252.839844 417.09375 252.316406 416.988281 C 251.796875 416.886719 251.289062 416.730469 250.796875 416.527344 C 250.304688 416.324219 249.839844 416.074219 249.398438 415.78125 C 248.953125 415.484375 248.546875 415.148438 248.167969 414.773438 C 247.792969 414.394531 247.457031 413.988281 247.164062 413.542969 C 246.867188 413.101562 246.617188 412.636719 246.414062 412.144531 C 246.210938 411.652344 246.058594 411.148438 245.953125 410.625 C 245.847656 410.105469 245.796875 409.578125 245.796875 409.046875 C 245.796875 408.511719 245.847656 407.988281 245.953125 407.464844 C 246.058594 406.945312 246.210938 406.4375 246.414062 405.945312 C 246.617188 405.453125 246.867188 404.988281 247.164062 404.546875 C 247.457031 404.101562 247.792969 403.695312 248.167969 403.316406 C 248.546875 402.941406 248.953125 402.605469 249.398438 402.3125 C 249.839844 402.015625 250.304688 401.765625 250.796875 401.5625 C 251.289062 401.359375 251.796875 401.207031 252.316406 401.101562 C 252.839844 400.996094 253.363281 400.945312 253.898438 400.945312 Z M 253.898438 400.945312 " fill-opacity="1" fill-rule="nonzero"/></g></svg>