<svg xmlns="http://www.w3.org/2000/svg" xmlns:xlink="http://www.w3.org/1999/xlink" width="1080" zoomAndPan="magnify" viewBox="0 0 810 809.999993" height="1080" preserveAspectRatio="xMidYMid meet" version="1.0"><defs><clipPath id="2c5fb9d6c6"><path d="M 232.328125 336 L 574 336 L 574 590.582031 L 232.328125 590.582031 Z M 232.328125 336 " clip-rule="nonzero"/></clipPath></defs><rect x="-81" width="972" fill="#ffffff" y="-80.999999" height="971.999992" fill-opacity="1"/><rect x="-81" width="972" fill="#ffffff" y="-80.999999" height="971.999992" fill-opacity="1"/><path fill="#194392" d="M 390.75 273.8125 C 388.472656 276.828125 389.070312 281.117188 392.085938 283.394531 C 401.449219 290.464844 399.105469 296.199219 390.019531 310.785156 C 382.324219 323.140625 371.785156 340.0625 387.277344 356.5625 C 388.621094 357.996094 390.441406 358.722656 392.261719 358.722656 C 393.941406 358.722656 395.625 358.105469 396.945312 356.867188 C 399.695312 354.28125 399.832031 349.953125 397.246094 347.199219 C 389.738281 339.203125 392.820312 332.167969 401.632812 318.015625 C 409.597656 305.230469 420.503906 287.71875 400.332031 272.480469 C 397.316406 270.203125 393.027344 270.800781 390.75 273.8125 Z M 390.75 273.8125 " fill-opacity="1" fill-rule="nonzero"/><path fill="#194392" d="M 420.109375 297.746094 C 421.453125 299.179688 423.273438 299.902344 425.097656 299.902344 C 426.773438 299.902344 428.457031 299.289062 429.777344 298.050781 C 432.53125 295.464844 432.664062 291.136719 430.082031 288.382812 C 423.804688 281.699219 426.328125 275.988281 434.046875 263.59375 C 440.835938 252.691406 451.09375 236.222656 432.703125 222.328125 C 429.6875 220.050781 425.398438 220.652344 423.121094 223.664062 C 420.84375 226.675781 421.441406 230.964844 424.457031 233.242188 C 431.886719 238.851562 430.777344 242.972656 422.4375 256.359375 C 415.503906 267.488281 406.011719 282.730469 420.109375 297.746094 Z M 420.109375 297.746094 " fill-opacity="1" fill-rule="nonzero"/><path fill="#194392" d="M 377.101562 299.113281 C 378.449219 300.546875 380.269531 301.273438 382.089844 301.273438 C 383.769531 301.273438 385.449219 300.65625 386.769531 299.417969 C 389.523438 296.832031 389.660156 292.503906 387.074219 289.75 C 380.492188 282.742188 383.109375 276.792969 391.144531 263.898438 C 398.105469 252.71875 408.632812 235.820312 389.808594 221.601562 C 386.792969 219.324219 382.503906 219.921875 380.226562 222.9375 C 377.953125 225.949219 378.550781 230.238281 381.5625 232.515625 C 389.371094 238.414062 388.226562 242.710938 379.53125 256.667969 C 372.414062 268.09375 362.667969 283.738281 377.101562 299.113281 Z M 377.101562 299.113281 " fill-opacity="1" fill-rule="nonzero"/><g clip-path="url(#2c5fb9d6c6)"><path fill="#194392" d="M 525.242188 367.34375 C 525.0625 366.277344 524.867188 365.214844 524.667969 364.152344 C 523.949219 353.546875 509.089844 348.453125 496.097656 345.195312 C 480.699219 341.332031 459.585938 338.457031 435.039062 336.878906 C 431.261719 336.652344 428.019531 339.496094 427.777344 343.261719 C 427.53125 347.035156 430.390625 350.285156 434.160156 350.527344 C 482.011719 353.605469 504.539062 360.898438 510.089844 364.914062 C 507.378906 366.847656 498.972656 371.15625 474.867188 375.03125 C 452.171875 378.679688 422.820312 380.6875 392.21875 380.6875 C 361.621094 380.6875 332.269531 378.679688 309.570312 375.03125 C 285.464844 371.15625 277.058594 366.847656 274.347656 364.910156 C 279.941406 360.859375 302.753906 353.503906 351.28125 350.464844 C 355.050781 350.230469 357.917969 346.980469 357.679688 343.210938 C 357.445312 339.441406 354.203125 336.578125 350.429688 336.8125 C 325.625 338.367188 304.265625 341.234375 288.667969 345.113281 C 268.660156 350.085938 259.738281 356.207031 259.738281 364.957031 C 259.738281 365.363281 259.765625 365.765625 259.808594 366.164062 C 257.953125 376.53125 257.003906 387.152344 257.003906 397.785156 C 257.003906 442.132812 273.167969 482.21875 299.066406 510.640625 C 267.210938 516.414062 232.382812 527.222656 232.382812 546.878906 C 232.382812 560.605469 249.238281 571.625 282.488281 579.640625 C 311.933594 586.742188 350.972656 590.648438 392.417969 590.648438 C 433.863281 590.648438 472.90625 586.742188 502.347656 579.640625 C 535.597656 571.625 552.457031 560.601562 552.457031 546.878906 C 552.457031 527.273438 517.90625 516.457031 485.773438 510.640625 C 490.722656 505.210938 495.308594 499.347656 499.5 493.117188 C 502.707031 493.597656 505.914062 493.839844 509.101562 493.839844 C 522.625 493.839844 535.761719 489.578125 546.890625 481.445312 C 560.757812 471.316406 569.847656 456.394531 572.488281 439.425781 C 577.601562 406.574219 556.75 375.566406 525.242188 367.34375 Z M 271.734375 379.128906 C 278.660156 382.441406 288.695312 385.226562 302.167969 387.644531 C 326.285156 391.980469 358.265625 394.363281 392.21875 394.363281 C 426.171875 394.363281 458.152344 391.980469 482.269531 387.644531 C 495.984375 385.183594 506.148438 382.339844 513.082031 378.949219 C 513.792969 385.183594 514.15625 391.480469 514.15625 397.785156 C 514.15625 476.222656 459.546875 540.039062 392.417969 540.039062 C 325.292969 540.039062 270.679688 476.222656 270.679688 397.785156 C 270.679688 391.542969 271.042969 385.304688 271.734375 379.128906 Z M 538.777344 546.878906 C 538.777344 549.636719 531.65625 558.507812 499.144531 566.34375 C 470.71875 573.199219 432.816406 576.972656 392.417969 576.972656 C 352.023438 576.972656 314.121094 573.199219 285.695312 566.34375 C 253.179688 558.507812 246.058594 549.636719 246.058594 546.878906 C 246.058594 543.296875 257.414062 531.21875 307.863281 523.003906 C 308.867188 522.839844 309.777344 522.453125 310.566406 521.921875 C 333.320312 541.859375 361.6875 553.71875 392.417969 553.71875 C 422.96875 553.71875 451.1875 542.003906 473.867188 522.273438 C 474.378906 522.492188 474.910156 522.675781 475.484375 522.765625 C 521.59375 530.082031 538.777344 541.441406 538.777344 546.878906 Z M 558.972656 437.320312 C 555.089844 462.273438 533.496094 480.15625 508.996094 480.152344 C 508.453125 480.152344 507.910156 480.136719 507.367188 480.121094 C 520.328125 456.210938 527.835938 427.988281 527.835938 397.785156 C 527.835938 392.617188 527.601562 387.453125 527.160156 382.316406 C 548.90625 390.691406 562.699219 413.382812 558.972656 437.320312 Z M 558.972656 437.320312 " fill-opacity="1" fill-rule="nonzero"/></g><path fill="#194392" d="M 376.527344 525.441406 C 380.304688 525.441406 383.367188 522.378906 383.367188 518.601562 C 383.367188 514.824219 380.304688 511.765625 376.527344 511.765625 C 351.117188 511.765625 316.058594 478.078125 310.542969 454.367188 C 309.6875 450.6875 306.003906 448.402344 302.332031 449.257812 C 298.652344 450.113281 296.363281 453.789062 297.21875 457.46875 C 305.367188 492.480469 348.808594 525.441406 376.527344 525.441406 Z M 376.527344 525.441406 " fill-opacity="1" fill-rule="nonzero"/></svg>