<?xml version="1.0" ?>
<!-- Uploaded to: SVG Repo, www.svgrepo.com, Generator: SVG Repo Mixer Tools -->
<svg width="800px" height="800px" viewBox="0 0 64 64" id="svg5" version="1.1" xml:space="preserve" xmlns="http://www.w3.org/2000/svg" xmlns:svg="http://www.w3.org/2000/svg">
<defs id="defs2"/>
<g id="layer1" transform="translate(-192)">
<path d="m 205,25 c -0.55226,5.5e-5 -0.99994,0.447739 -1,1 v 7 2 c 0,6.488922 3.65181,12.135832 9.00781,15 H 199.75 c -0.55226,5.2e-5 -0.99995,0.447738 -1,1 0,2.74957 2.25042,5 5,5 h 35 c 2.74957,0 5,-2.250427 5,-5 -5e-5,-0.552262 -0.44774,-0.999948 -1,-1 h -13.75781 c 4.12877,-2.207893 7.23605,-6.073121 8.44726,-10.699219 C 238.66636,40.358558 240.26027,41 242,41 c 3.85414,0 7,-3.145866 7,-7 0,-3.854134 -3.14586,-7 -7,-7 -1.48531,0 -2.86459,0.468752 -4,1.263672 V 26 c -6e-5,-0.552261 -0.44774,-0.999945 -1,-1 z m 1,2 h 30 v 5 h -30 z m 36,2 c 2.77327,0 5,2.226738 5,5 0,2.773262 -2.22673,5 -5,5 -1.70996,0 -3.21079,-0.847231 -4.11133,-2.146484 C 238.06635,34.9289 238,33.00145 238,30.992188 238.91016,29.780815 240.35886,29 242,29 Z m -36,5 h 30 v 1 c 0,8.296083 -6.70393,15 -15,15 -8.29608,0 -15,-6.703916 -15,-15 z m -4.83789,18 h 40.17578 c -0.43704,1.112504 -1.31188,2 -2.58789,2 h -35 c -1.27602,0 -2.15085,-0.887497 -2.58789,-2 z" id="path51809" style="color:#000000;fill:#000000;fill-rule:evenodd;stroke-linecap:round;stroke-linejoin:round;stroke-miterlimit:4.1"/>
<path d="m 216.89056,8.0517326 a 1,1 0 0 0 -1.26563,0.6328125 l -0.47266,1.4218749 c -0.42935,1.288091 -0.23948,2.704257 0.51368,3.833984 l -0.0176,-0.02539 c 0.55334,0.885503 0.70878,1.961704 0.42578,2.966796 a 1.0001,1.0001 0 0 0 -0.008,0.0293 l -0.46289,1.847656 a 1,1 0 0 0 0.72851,1.212891 1,1 0 0 0 1.21289,-0.728516 l 0.45313,-1.818359 c 0.43544,-1.5465 0.19906,-3.205867 -0.65235,-4.568359 a 1.0001,1.0001 0 0 0 -0.0156,-0.02539 c -0.41169,-0.617531 -0.51595,-1.387701 -0.28125,-2.091797 l 0.47461,-1.4218744 a 1,1 0 0 0 -0.63281,-1.265625 z" id="path52620" style="color:#000000;fill:#000000;fill-rule:evenodd;stroke-linecap:round;stroke-linejoin:round;stroke-miterlimit:4.1"/>
<path d="m 221.5722,8.0517326 a 1,1 0 0 0 -1.26563,0.6328125 l -0.47461,1.4218749 c -0.42936,1.288091 -0.23948,2.704257 0.51367,3.833984 l -0.0156,-0.02539 c 0.55334,0.885503 0.70683,1.961704 0.42383,2.966796 a 1.0001,1.0001 0 0 0 -0.008,0.0293 l -0.46093,1.847656 a 1,1 0 0 0 0.72851,1.212891 1,1 0 0 0 1.21094,-0.728516 l 0.45508,-1.818359 c 0.43544,-1.5465 0.19906,-3.205867 -0.65235,-4.568359 a 1.0001,1.0001 0 0 0 -0.0176,-0.02539 c -0.41169,-0.617531 -0.514,-1.387701 -0.2793,-2.091797 l 0.47266,-1.4218744 a 1,1 0 0 0 -0.63086,-1.265625 z" id="path52624" style="color:#000000;fill:#000000;fill-rule:evenodd;stroke-linecap:round;stroke-linejoin:round;stroke-miterlimit:4.1"/>
<path d="m 226.25188,8.0517326 a 1,1 0 0 0 -1.26367,0.6328125 L 224.5136,10.10642 c -0.42936,1.288091 -0.23948,2.704257 0.51367,3.833984 l -0.0156,-0.02539 c 0.55334,0.885503 0.70683,1.961704 0.42383,2.966796 a 1.0001,1.0001 0 0 0 -0.008,0.0293 l -0.46094,1.847656 a 1,1 0 0 0 0.72656,1.212891 1,1 0 0 0 1.21289,-0.728516 l 0.45508,-1.818359 c 0.43545,-1.5465 0.19711,-3.205867 -0.6543,-4.568359 a 1.0001,1.0001 0 0 0 -0.0156,-0.02539 c -0.41169,-0.617531 -0.514,-1.387701 -0.2793,-2.091797 l 0.47266,-1.4218744 a 1,1 0 0 0 -0.63282,-1.265625 z" id="path52626" style="color:#000000;fill:#000000;fill-rule:evenodd;stroke-linecap:round;stroke-linejoin:round;stroke-miterlimit:4.1"/>
</g>
</svg>