<svg xmlns="http://www.w3.org/2000/svg" xmlns:xlink="http://www.w3.org/1999/xlink" width="1080" zoomAndPan="magnify" viewBox="0 0 810 809.999993" height="1080" preserveAspectRatio="xMidYMid meet" version="1.0"><defs><clipPath id="51c64fdf46"><path d="M 271.425781 218.511719 L 553 218.511719 L 553 591.261719 L 271.425781 591.261719 Z M 271.425781 218.511719 " clip-rule="nonzero"/></clipPath></defs><rect x="-81" width="972" fill="#ffffff" y="-80.999999" height="971.999992" fill-opacity="1"/><rect x="-81" width="972" fill="#ffffff" y="-80.999999" height="971.999992" fill-opacity="1"/><g clip-path="url(#51c64fdf46)"><path fill="#194392" d="M 487.230469 298.40625 C 478.886719 298.40625 472.105469 292.648438 472.105469 285.527344 L 472.105469 245.332031 L 527.449219 298.40625 Z M 551.035156 298.40625 C 550.890625 298.167969 550.667969 297.972656 550.472656 297.773438 L 472.105469 222.601562 L 470.085938 220.648438 C 469 219.589844 467.605469 218.957031 466.199219 218.757812 L 303.617188 218.757812 C 300.507812 218.757812 297.472656 219.152344 294.621094 219.886719 C 281.234375 223.210938 271.445312 233.703125 271.445312 246.179688 L 271.445312 563.84375 C 271.445312 578.96875 285.867188 591.242188 303.617188 591.242188 L 520.429688 591.242188 C 535.347656 591.242188 547.929688 582.570312 551.558594 570.820312 C 552.261719 568.578125 552.601562 566.257812 552.601562 563.84375 L 552.601562 445.363281 L 535.585938 466.683594 L 535.585938 563.84375 C 535.585938 566.882812 534.328125 569.6875 532.242188 571.90625 C 529.46875 574.859375 525.207031 576.722656 520.429688 576.722656 L 303.617188 576.722656 C 295.253906 576.722656 288.492188 570.949219 288.492188 563.84375 L 288.492188 246.179688 C 288.492188 242.355469 290.425781 238.921875 293.558594 236.550781 C 296.230469 234.507812 299.773438 233.273438 303.617188 233.273438 L 455.074219 233.273438 L 455.074219 285.527344 C 455.074219 300.640625 469.496094 312.921875 487.230469 312.921875 L 535.585938 312.921875 L 535.585938 369.566406 L 542.417969 361.023438 L 552.601562 348.269531 L 552.601562 302.0625 C 552.449219 300.734375 551.925781 299.476562 551.035156 298.40625 " fill-opacity="1" fill-rule="nonzero"/></g><path fill="#194392" d="M 602.167969 367.605469 L 596.902344 374.203125 L 564.832031 348.621094 L 570.105469 342.015625 C 577.167969 333.171875 590.082031 331.71875 598.929688 338.78125 C 603.363281 342.3125 605.933594 347.296875 606.523438 352.523438 C 607.105469 357.746094 605.691406 363.199219 602.167969 367.605469 " fill-opacity="1" fill-rule="nonzero"/><path fill="#194392" d="M 517.640625 457.089844 C 516.398438 458.644531 514.121094 458.902344 512.554688 457.652344 C 510.988281 456.402344 510.730469 454.136719 511.980469 452.570312 L 572.195312 377.125 C 573.425781 375.574219 575.71875 375.300781 577.277344 376.550781 C 578.84375 377.800781 579.082031 380.09375 577.851562 381.632812 Z M 506.324219 448.050781 C 505.074219 449.617188 502.808594 449.875 501.242188 448.625 C 499.675781 447.375 499.417969 445.105469 500.667969 443.539062 L 560.878906 368.09375 C 562.109375 366.542969 564.398438 366.269531 565.960938 367.519531 C 567.527344 368.769531 567.769531 371.0625 566.535156 372.605469 Z M 559.824219 354.90625 L 487.570312 445.441406 L 519.640625 471.03125 L 591.886719 380.488281 L 559.824219 354.90625 " fill-opacity="1" fill-rule="nonzero"/><path fill="#194392" d="M 469.554688 485.617188 L 484.910156 497.871094 L 466.945312 505.136719 Z M 469.554688 485.617188 " fill-opacity="1" fill-rule="nonzero"/><path fill="#194392" d="M 514.113281 477.945312 L 504.554688 489.929688 L 490.054688 495.800781 L 470.308594 480.035156 L 472.390625 464.464844 L 482.050781 452.355469 L 514.113281 477.945312 " fill-opacity="1" fill-rule="nonzero"/><path fill="#194392" d="M 433.769531 263.289062 L 320.792969 263.289062 C 317.796875 263.289062 315.359375 266.578125 315.359375 270.589844 C 315.359375 274.605469 317.796875 277.890625 320.792969 277.890625 L 433.769531 277.890625 C 436.757812 277.890625 439.199219 274.605469 439.199219 270.589844 C 439.199219 266.578125 436.757812 263.289062 433.769531 263.289062 " fill-opacity="1" fill-rule="nonzero"/><path fill="#194392" d="M 433.769531 300.230469 L 320.792969 300.230469 C 317.796875 300.230469 315.359375 303.507812 315.359375 307.53125 C 315.359375 311.546875 317.796875 314.824219 320.792969 314.824219 L 433.769531 314.824219 C 436.757812 314.824219 439.199219 311.546875 439.199219 307.53125 C 439.199219 303.507812 436.757812 300.230469 433.769531 300.230469 " fill-opacity="1" fill-rule="nonzero"/><path fill="#194392" d="M 498.757812 343.683594 L 323.773438 343.683594 C 319.140625 343.683594 315.359375 346.960938 315.359375 350.976562 C 315.359375 355 319.140625 358.277344 323.773438 358.277344 L 498.757812 358.277344 C 503.390625 358.277344 507.171875 355 507.171875 350.976562 C 507.171875 346.960938 503.390625 343.683594 498.757812 343.683594 " fill-opacity="1" fill-rule="nonzero"/><path fill="#194392" d="M 494.609375 387.136719 L 323.574219 387.136719 C 319.054688 387.136719 315.359375 390.414062 315.359375 394.429688 C 315.359375 398.453125 319.054688 401.730469 323.574219 401.730469 L 494.609375 401.730469 C 499.125 401.730469 502.824219 398.453125 502.824219 394.429688 C 502.824219 390.414062 499.125 387.136719 494.609375 387.136719 " fill-opacity="1" fill-rule="nonzero"/><path fill="#194392" d="M 469.675781 430.589844 L 322.4375 430.589844 C 318.542969 430.589844 315.359375 433.867188 315.359375 437.890625 C 315.359375 441.90625 318.542969 445.183594 322.4375 445.183594 L 469.675781 445.183594 C 473.570312 445.183594 476.753906 441.90625 476.753906 437.890625 C 476.753906 433.867188 473.570312 430.589844 469.675781 430.589844 " fill-opacity="1" fill-rule="nonzero"/><path fill="#194392" d="M 450.984375 474.042969 L 321.582031 474.042969 C 318.15625 474.042969 315.359375 477.320312 315.359375 481.34375 C 315.359375 485.351562 318.15625 488.636719 321.582031 488.636719 L 450.984375 488.636719 C 454.40625 488.636719 457.207031 485.351562 457.207031 481.34375 C 457.207031 477.320312 454.40625 474.042969 450.984375 474.042969 " fill-opacity="1" fill-rule="nonzero"/><path fill="#194392" d="M 494.609375 517.496094 L 323.574219 517.496094 C 319.054688 517.496094 315.359375 520.773438 315.359375 524.789062 C 315.359375 528.8125 319.054688 532.089844 323.574219 532.089844 L 494.609375 532.089844 C 499.125 532.089844 502.824219 528.8125 502.824219 524.789062 C 502.824219 520.773438 499.125 517.496094 494.609375 517.496094 " fill-opacity="1" fill-rule="nonzero"/></svg>