<svg width="40" height="40" viewBox="0 0 40 40" fill="none" xmlns="http://www.w3.org/2000/svg">
<path d="M20 18.285L34.8555 9.71094C34.8555 9.71094 35.3814 10.1286 35.7953 10.8462C36.2092 11.5638 36.3828 12.2968 36.3828 12.2968L21.5 20.883V37.918C21.5 37.918 20.6815 38.1055 19.8531 38.1055C19.0246 38.1055 18.5 37.9258 18.5 37.9258V20.883L3.61914 12.3004C3.61914 11.7134 4.64206 10.1542 5.14008 9.71436L20 18.285Z" fill="#FFDC60"/>
<path fill-rule="evenodd" clip-rule="evenodd" d="M20 1.83691C19.1528 1.83691 18.3205 2.05961 17.5865 2.48264L5.92245 9.14779L5.91667 9.15112C5.63732 9.31241 5.37598 9.50056 5.13602 9.71223L20 18.2852L34.864 9.71223C34.624 9.50056 34.3627 9.3124 34.0833 9.15111L22.4167 2.48446L22.4134 2.48258C21.6794 2.05958 20.8472 1.83691 20 1.83691ZM36.3868 12.2971L21.4999 20.8832V37.9248C21.8164 37.8215 22.1226 37.6853 22.4134 37.5177L22.4167 37.5159L34.0775 30.8525L34.0833 30.8492C34.8174 30.4254 35.427 29.816 35.8512 29.0822C36.2754 28.3484 36.4991 27.516 36.5 26.6684L36.5 26.6668V13.3335L36.5 13.332C36.4996 12.9825 36.4614 12.6356 36.3868 12.2971ZM18.4999 37.9247V20.8832L3.61317 12.2971C3.5386 12.6356 3.50036 12.9825 3.5 13.332V26.6684C3.50087 27.516 3.72461 28.3484 4.14878 29.0822C4.57295 29.816 5.18263 30.4254 5.91667 30.8492L5.92246 30.8525L17.5833 37.5159L17.5864 37.5177C17.8772 37.6853 18.1835 37.8214 18.4999 37.9247Z" fill="#20A2A2"/>
</svg>
