<svg width="493" height="281" viewBox="0 0 493 281" fill="none" xmlns="http://www.w3.org/2000/svg">
<g opacity="0.2" clip-path="url(#clip0_825_1081)">
<rect x="332.565" y="112.384" width="93.6527" height="93.6527" transform="rotate(90 332.565 112.384)" fill="#456B6B"/>
<rect x="238.913" width="112.383" height="112.383" transform="rotate(90 238.913 0)" fill="#456B6B"/>
<rect x="73.8506" width="53.8503" height="53.8503" transform="rotate(90 73.8506 0)" fill="#456B6B"/>
<rect x="201.452" y="206.035" width="74.9222" height="74.9222" transform="rotate(90 201.452 206.035)" fill="#456B6B"/>
<rect width="84.2874" height="84.2874" transform="matrix(-1 0 0 1 466.021 196.67)" fill="#456B6B"/>
<rect width="23.4132" height="23.4132" transform="matrix(-1 0 0 1 355.979 257.545)" fill="#456B6B"/>
<rect width="49.1677" height="49.1677" transform="matrix(-1 0 0 1 494.116 0)" fill="#456B6B"/>
<rect width="23.4132" height="23.4132" transform="matrix(-1 0 0 1 405.146 0)" fill="#456B6B"/>
<rect width="63.2156" height="63.2156" transform="matrix(-1 0 0 1 444.949 49.168)" fill="#456B6B"/>
</g>
<defs>
<clipPath id="clip0_825_1081">
<rect width="493" height="281" fill="white"/>
</clipPath>
</defs>
</svg>
