<svg width="50" height="50" viewBox="0 0 50 50" fill="none" xmlns="http://www.w3.org/2000/svg">
<path d="M33.7312 4.16699H16.2708C9.9375 4.16699 6.25 7.87533 6.25 14.2295V35.7503C6.25 42.2087 9.9375 45.8337 16.2708 45.8337H33.7312C40.1667 45.8337 43.75 42.2087 43.75 35.7503V14.2295C43.75 7.87533 40.1667 4.16699 33.7312 4.16699Z" fill="#209FA0"/>
<path fill-rule="evenodd" clip-rule="evenodd" d="M16.833 13.8545V13.8753C15.9351 13.8753 15.208 14.6045 15.208 15.5003C15.208 16.3962 15.9351 17.1253 16.833 17.1253H23.0601C23.958 17.1253 24.6872 16.3962 24.6872 15.4774C24.6872 14.5837 23.958 13.8545 23.0601 13.8545H16.833ZM33.1663 26.542H16.833C15.9351 26.542 15.208 25.8128 15.208 24.917C15.208 24.0212 15.9351 23.2899 16.833 23.2899H33.1663C34.0622 23.2899 34.7913 24.0212 34.7913 24.917C34.7913 25.8128 34.0622 26.542 33.1663 26.542ZM33.1663 36.0628H16.833C16.208 36.1462 15.6038 35.8337 15.2705 35.3128C14.9372 34.7712 14.9372 34.0837 15.2705 33.5628C15.6038 33.0212 16.208 32.7295 16.833 32.792H33.1663C33.9976 32.8753 34.6247 33.5837 34.6247 34.4378C34.6247 35.2691 33.9976 35.9795 33.1663 36.0628Z" fill="#FFDC60"/>
</svg>
