<svg width="40" height="40" viewBox="0 0 40 40" fill="none" xmlns="http://www.w3.org/2000/svg">
<path d="M16.9209 9.25923C17.0058 9.43201 17.0619 9.61703 17.087 9.80725L17.551 16.7071L17.7814 20.1751C17.7838 20.5318 17.8397 20.8861 17.9475 21.2267C18.2257 21.8876 18.8949 22.3076 19.6231 22.2783L30.7186 21.5526C31.199 21.5447 31.663 21.7244 32.0084 22.0522C32.2962 22.3253 32.4821 22.6826 32.5406 23.067L32.5603 23.3003C32.1011 29.6582 27.4316 34.9611 21.0869 36.33C14.7423 37.6989 8.23611 34.8072 5.10086 29.2248C4.19699 27.6031 3.63242 25.8204 3.44031 23.9816C3.36006 23.4373 3.32472 22.8875 3.33464 22.3376C3.32473 15.5212 8.17879 9.62828 14.9736 8.20763C15.7914 8.08029 16.5931 8.51322 16.9209 9.25923Z" fill="#20A2A2"/>
<path d="M21.4493 3.33437C29.0491 3.52772 35.4365 8.99265 36.666 16.3535L36.6542 16.4078L36.6207 16.4868L36.6253 16.7036C36.6079 16.9909 36.497 17.2672 36.3059 17.4905C36.1068 17.723 35.8348 17.8814 35.5353 17.9429L35.3526 17.9679L22.5513 18.7974C22.1255 18.8393 21.7015 18.702 21.3849 18.4196C21.121 18.1842 20.9523 17.8665 20.9046 17.5241L20.0454 4.74145C20.0304 4.69822 20.0304 4.65137 20.0454 4.60814C20.0571 4.25579 20.2122 3.92274 20.476 3.68339C20.7398 3.44404 21.0904 3.31834 21.4493 3.33437Z" fill="#FFDC60"/>
</svg>
