<svg width="107" height="30" viewBox="0 0 107 30" fill="none" xmlns="http://www.w3.org/2000/svg">
<path d="M23.0801 5.682C23.0593 5.53298 22.9276 5.45031 22.8183 5.44131C22.7098 5.43231 20.584 5.40039 20.584 5.40039C20.584 5.40039 18.8062 3.6943 18.6305 3.52075C18.455 3.34719 18.112 3.39959 17.9786 3.43888C17.9769 3.4397 17.6447 3.54122 17.0856 3.71231C16.9919 3.41269 16.8544 3.04429 16.6581 2.67425C16.0252 1.48065 15.0981 0.849467 13.9781 0.847835C13.9764 0.847835 13.9756 0.847835 13.974 0.847835C13.8961 0.847835 13.819 0.855202 13.7412 0.861748C13.708 0.822453 13.6749 0.783979 13.6401 0.746317C13.1521 0.230565 12.5267 -0.020763 11.777 0.00134071C10.3305 0.0422736 8.88991 1.0746 7.72182 2.90839C6.90001 4.19859 6.27453 5.81956 6.09726 7.07454C4.43624 7.58292 3.27478 7.9382 3.2491 7.94641C2.41073 8.20672 2.38422 8.2321 2.27487 9.01313C2.19368 9.60335 0 26.3662 0 26.3662L18.3837 29.5082L26.3515 27.5508C26.3515 27.5508 23.1008 5.83102 23.0801 5.682ZM16.1652 3.99393C15.7418 4.12328 15.2605 4.27064 14.7386 4.43028C14.7278 3.70658 14.6408 2.69964 14.2995 1.8294C15.3972 2.03489 15.9373 3.26205 16.1652 3.99393ZM13.7768 4.72499C12.8133 5.01969 11.762 5.34143 10.7075 5.664C11.004 4.54161 11.5666 3.42415 12.2575 2.69145C12.5143 2.41884 12.8738 2.11511 13.2996 1.94156C13.6997 2.76676 13.7867 3.93499 13.7768 4.72499ZM11.8059 0.952618C12.1456 0.945251 12.4314 1.01893 12.6758 1.17775C12.2848 1.37832 11.907 1.66649 11.5525 2.04225C10.6337 3.01646 9.92955 4.52852 9.64871 5.98736C8.77306 6.25505 7.91646 6.51787 7.12779 6.75856C7.62572 4.46221 9.57332 1.01647 11.8059 0.952618Z" fill="#95BF47"/>
<path d="M22.8193 5.4419C22.7109 5.4329 20.5851 5.40098 20.5851 5.40098C20.5851 5.40098 18.8073 3.69489 18.6317 3.52134C18.5662 3.45666 18.4776 3.42309 18.3848 3.40918L18.3856 29.5072L26.3526 27.5506C26.3526 27.5506 23.1019 5.83161 23.0812 5.68259C23.0604 5.53357 22.9279 5.4509 22.8193 5.4419Z" fill="#5E8E3E"/>
<path d="M13.9679 9.49057L13.0426 12.9117C13.0426 12.9117 12.0104 12.4475 10.7868 12.5237C8.99238 12.6359 8.97332 13.7541 8.99158 14.0349C9.08933 15.565 13.1627 15.899 13.3914 19.4831C13.5711 22.3025 11.8778 24.2313 9.4381 24.3836C6.50958 24.5661 4.89746 22.8592 4.89746 22.8592L5.51797 20.251C5.51797 20.251 7.14083 21.461 8.43981 21.3799C9.28815 21.3267 9.59133 20.6448 9.56068 20.1626C9.43312 18.1667 6.11607 18.2846 5.9065 15.005C5.73003 12.2454 7.5642 9.44882 11.611 9.19667C13.1702 9.09762 13.9679 9.49057 13.9679 9.49057Z" fill="white"/>
<path d="M36.8439 16.6546C35.9278 16.1634 35.4569 15.7493 35.4569 15.1801C35.4569 14.4558 36.111 13.9905 37.1323 13.9905C38.3213 13.9905 39.3829 14.4817 39.3829 14.4817L40.2202 11.9467C40.2202 11.9467 39.4503 11.3516 37.1841 11.3516C34.0305 11.3516 31.8448 13.1363 31.8448 15.6453C31.8448 17.0679 32.8654 18.1543 34.2269 18.9298C35.3263 19.5501 35.719 19.9902 35.719 20.6366C35.719 21.3089 35.1694 21.8521 34.1488 21.8521C32.6279 21.8521 31.1916 21.0758 31.1916 21.0758L30.3018 23.6108C30.3018 23.6108 31.6288 24.4902 33.8612 24.4902C37.1069 24.4902 39.4363 22.9125 39.4363 20.0674C39.4355 18.5425 38.258 17.456 36.8439 16.6546Z" fill="#060C3C"/>
<path d="M49.7735 11.3257C48.1768 11.3257 46.9205 12.076 45.9526 13.2136L45.9 13.1875L47.2869 6.02344H43.6749L40.168 24.2573H43.78L44.9838 18.0245C45.4546 15.6706 46.6847 14.2228 47.8367 14.2228C48.6476 14.2228 48.9624 14.766 48.9624 15.5423C48.9624 16.0336 48.9098 16.6287 48.8054 17.12L47.4447 24.2581H51.057L52.4699 16.8869C52.6271 16.1107 52.7321 15.1802 52.7321 14.559C52.7307 12.5412 51.6577 11.3257 49.7735 11.3257Z" fill="#060C3C"/>
<path d="M60.8971 11.3262C56.5519 11.3262 53.6738 15.2059 53.6738 19.5248C53.6738 22.292 55.4008 24.516 58.6466 24.516C62.9127 24.516 65.7917 20.7403 65.7917 16.3174C65.7917 13.7573 64.2733 11.3262 60.8971 11.3262ZM59.1174 21.7756C57.8871 21.7756 57.3636 20.7411 57.3636 19.4476C57.3636 17.4047 58.4371 14.0683 60.3999 14.0683C61.6824 14.0683 62.1005 15.1547 62.1005 16.2151C62.1005 18.4132 61.0285 21.7756 59.1174 21.7756Z" fill="#060C3C"/>
<path d="M75.03 11.3262C72.5919 11.3262 71.2084 13.4471 71.2084 13.4471H71.1566L71.3661 11.5332H68.1731C68.0163 12.8267 67.7276 14.7917 67.4405 16.2663L64.9277 29.327H68.5399L69.5337 24.0507H69.6128C69.6128 24.0507 70.3539 24.516 71.7329 24.516C75.9726 24.516 78.7467 20.2231 78.7467 15.8774C78.7467 13.4731 77.6732 11.3262 75.03 11.3262ZM71.5752 21.8267C70.6376 21.8267 70.0826 21.3095 70.0826 21.3095L70.6848 17.9731C71.1039 15.7491 72.2814 14.2745 73.538 14.2745C74.6374 14.2745 74.9773 15.283 74.9773 16.2403C74.9773 18.5423 73.5903 21.8267 71.5752 21.8267Z" fill="#060C3C"/>
<path d="M83.9033 6.20508C82.7522 6.20508 81.8359 7.11044 81.8359 8.274C81.8359 9.33447 82.5163 10.0588 83.537 10.0588H83.5892C84.715 10.0588 85.683 9.30846 85.7093 7.98983C85.7093 6.95532 85.0026 6.20508 83.9033 6.20508Z" fill="#060C3C"/>
<path d="M78.8516 24.2579H82.4627L84.9237 11.6113H81.2852L78.8516 24.2579Z" fill="#060C3C"/>
<path d="M94.1107 11.5851H91.598L91.7284 10.9899C91.9379 9.77436 92.671 8.68792 93.8748 8.68792C94.5173 8.68792 95.026 8.869 95.026 8.869L95.7327 6.07581C95.7327 6.07581 95.1046 5.76562 93.7693 5.76562C92.4868 5.76562 91.2053 6.12774 90.2363 6.95515C89.0061 7.98966 88.4303 9.48936 88.1426 10.9899L88.0386 11.5851H86.3629L85.8394 14.2752H87.5151L85.6045 24.2585H89.2166L91.1272 14.2752H93.6136L94.1107 11.5851Z" fill="#060C3C"/>
<path d="M102.8 11.6112C102.8 11.6112 100.542 17.2325 99.5283 20.301H99.4756C99.4069 19.3128 98.5857 11.6112 98.5857 11.6112H94.7904L96.9638 23.2233C97.0165 23.4816 96.9902 23.6375 96.8852 23.8185C96.4656 24.6199 95.7594 25.3962 94.9218 25.9654C94.2415 26.4566 93.4825 26.7668 92.8809 26.9738L93.8752 30.0001C94.6083 29.845 96.1257 29.2499 97.4082 28.0603C99.0575 26.5346 100.575 24.1807 102.145 20.9733L106.568 11.6104H102.8V11.6112Z" fill="#060C3C"/>
</svg>
