<svg width="135" height="34" viewBox="0 0 135 34" fill="none" xmlns="http://www.w3.org/2000/svg">
<path d="M43.1866 26.5626L44.8727 22.6951C46.6948 24.038 49.1152 24.7363 51.5085 24.7363C53.2762 24.7363 54.3912 24.0648 54.3912 23.0442C54.364 20.1973 43.8121 22.4265 43.7305 15.2823C43.7033 11.6565 46.9668 8.86324 51.5901 8.86324C54.3368 8.86324 57.0836 9.53469 59.0417 11.0656L57.4643 15.0137C55.6694 13.8857 53.4394 13.0799 51.3181 13.0799C49.8767 13.0799 48.9249 13.7514 48.9249 14.6108C48.9521 17.4041 59.5856 15.8732 59.6944 22.6951C59.6944 26.4015 56.5125 29.0067 51.9436 29.0067C48.5985 29.0067 45.5254 28.2278 43.1866 26.5626ZM107.885 21.2985C107.042 22.7488 105.465 23.7425 103.643 23.7425C100.95 23.7425 98.7747 21.5939 98.7747 18.935C98.7747 16.276 100.95 14.1274 103.643 14.1274C105.465 14.1274 107.042 15.1211 107.885 16.5715L112.536 14.02C110.795 10.9582 107.45 8.86324 103.643 8.86324C98.0133 8.86324 93.4444 13.3754 93.4444 18.935C93.4444 24.4945 98.0133 29.0067 103.643 29.0067C107.477 29.0067 110.795 26.9386 112.536 23.85L107.885 21.2985ZM62.0332 0.510428H67.8531V28.6307H62.0332V0.510428ZM114.82 0.510428V28.6307H120.64V20.1973L127.548 28.6307H135L126.215 18.6127L134.347 9.26611H127.222L120.64 17.028V0.510428H114.82ZM85.1496 21.3522C84.3066 22.7219 82.5661 23.7425 80.608 23.7425C77.9156 23.7425 75.7399 21.5939 75.7399 18.935C75.7399 16.276 77.9156 14.1274 80.608 14.1274C82.5661 14.1274 84.3066 15.2017 85.1496 16.5983V21.3522ZM85.1496 9.26611V11.549C84.1978 9.96441 81.8318 8.86324 79.3569 8.86324C74.2441 8.86324 70.2192 13.3217 70.2192 18.9081C70.2192 24.4945 74.2441 29.0067 79.3569 29.0067C81.8318 29.0067 84.1978 27.9055 85.1496 26.3209V28.6038H90.9695V9.26611H85.1496Z" fill="#84C6C6"/>
<path d="M7.20712 21.325C7.20712 23.2856 5.60257 24.8702 3.61727 24.8702C1.63198 24.8702 0.0274319 23.2856 0.0274319 21.325C0.0274319 19.3644 1.63198 17.7798 3.61727 17.7798H7.20712V21.325ZM9.00204 21.325C9.00204 19.3644 10.6066 17.7798 12.5919 17.7798C14.5772 17.7798 16.1817 19.3644 16.1817 21.325V30.1881C16.1817 32.1487 14.5772 33.7334 12.5919 33.7334C10.6066 33.7334 9.00204 32.1487 9.00204 30.1881V21.325Z" fill="#84C6C6"/>
<path d="M12.5916 7.09049C10.6064 7.09049 9.0018 5.50587 9.0018 3.54524C9.0018 1.58462 10.6064 0 12.5916 0C14.5769 0 16.1815 1.58462 16.1815 3.54524V7.09049H12.5916ZM12.5916 8.88997C14.5769 8.88997 16.1815 10.4746 16.1815 12.4352C16.1815 14.3958 14.5769 15.9805 12.5916 15.9805H3.58984C1.60455 15.9805 0 14.3958 0 12.4352C0 10.4746 1.60455 8.88997 3.58984 8.88997H12.5916Z" fill="#84C6C6"/>
<path d="M26.9787 12.4352C26.9787 10.4746 28.5833 8.88997 30.5686 8.88997C32.5539 8.88997 34.1584 10.4746 34.1584 12.4352C34.1584 14.3958 32.5539 15.9805 30.5686 15.9805H26.9787V12.4352ZM25.1838 12.4352C25.1838 14.3958 23.5792 15.9805 21.594 15.9805C19.6087 15.9805 18.0041 14.3958 18.0041 12.4352V3.54524C18.0041 1.58462 19.6087 0 21.594 0C23.5792 0 25.1838 1.58462 25.1838 3.54524V12.4352Z" fill="#84C6C6"/>
<path d="M21.594 26.6429C23.5793 26.6429 25.1838 28.2275 25.1838 30.1881C25.1838 32.1487 23.5793 33.7334 21.594 33.7334C19.6087 33.7334 18.0041 32.1487 18.0041 30.1881V26.6429H21.594ZM21.594 24.8702C19.6087 24.8702 18.0041 23.2856 18.0041 21.325C18.0041 19.3644 19.6087 17.7798 21.594 17.7798H30.5958C32.5811 17.7798 34.1856 19.3644 34.1856 21.325C34.1856 23.2856 32.5811 24.8702 30.5958 24.8702H21.594Z" fill="#84C6C6"/>
</svg>
