<svg width="123" height="35" viewBox="0 0 123 35" fill="none" xmlns="http://www.w3.org/2000/svg">
<g clip-path="url(#clip0_0_88)">
<path d="M26.2315 6.34905C26.1068 6.33855 23.6631 6.30131 23.6631 6.30131C23.6631 6.30131 21.6195 4.31087 21.4176 4.10839C21.3424 4.03293 21.2405 3.99377 21.1338 3.97754L21.1348 34.4252L30.2931 32.1425C30.2931 32.1425 26.5563 6.8037 26.5325 6.62985C26.5086 6.456 26.3563 6.35955 26.2315 6.34905Z" fill="#84C6C6"/>
<path fill-rule="evenodd" clip-rule="evenodd" d="M26.2304 6.3482C26.356 6.3587 26.5075 6.45515 26.5313 6.629C26.5551 6.80285 30.2919 32.1426 30.2919 32.1426L21.1327 34.4262L0 30.7606C0 30.7606 2.52171 11.2039 2.61504 10.5153C2.74074 9.60412 2.77121 9.57451 3.73495 9.27081C3.75547 9.26415 4.4067 9.06189 5.44308 8.74001C5.89782 8.59877 6.4267 8.43451 7.009 8.25363C7.21278 6.78948 7.93178 4.89836 8.87648 3.39312C10.2192 1.2537 11.8753 0.0493192 13.538 0.00156417C14.3999 -0.0242235 15.1188 0.268992 15.6798 0.870703C15.7197 0.914642 15.7578 0.959528 15.7959 1.00537C15.8055 1.00456 15.815 1.00373 15.8246 1.0029C15.9043 0.995998 15.9835 0.98914 16.0635 0.98914H16.0683C17.3558 0.991045 18.4215 1.72743 19.149 3.11996C19.3747 3.55167 19.5328 3.98147 19.6404 4.33103C19.8046 4.28003 19.9518 4.23433 20.08 4.19453C20.4535 4.07857 20.6656 4.01274 20.667 4.01203C20.8203 3.96618 21.2146 3.90506 21.4164 4.10754C21.6183 4.31002 23.662 6.30046 23.662 6.30046C23.662 6.30046 26.1056 6.3377 26.2304 6.3482ZM17.5303 4.98614C17.9065 4.86933 18.2592 4.75982 18.5824 4.65958C18.3205 3.80573 17.6996 2.37403 16.4378 2.1343C16.8301 3.14958 16.9301 4.32435 16.9425 5.16866C17.1439 5.10612 17.3401 5.0452 17.5303 4.98614ZM12.3086 6.608L15.8369 5.51249C15.8483 4.59082 15.7483 3.22789 15.2883 2.26515C14.7988 2.46763 14.3856 2.82198 14.0904 3.14002C13.2961 3.99484 12.6495 5.29855 12.3086 6.608ZM14.5713 1.37404C14.2903 1.18876 13.9618 1.10279 13.5713 1.11139C11.0048 1.18589 8.76601 5.20591 8.19363 7.88498C8.71911 7.72223 9.27083 7.55079 9.83784 7.37461C10.2491 7.24682 10.6684 7.11654 11.0915 6.98526C11.4143 5.28327 12.2238 3.5192 13.2799 2.38263C13.6875 1.94424 14.1218 1.60804 14.5713 1.37404ZM14.9931 15.0636L16.0568 11.0723C16.0568 11.0723 15.1397 10.6138 13.3475 10.7294C8.69551 11.0235 6.58706 14.2862 6.78993 17.5058C6.92526 19.6551 8.18787 20.5537 9.29453 21.3412C10.1579 21.9556 10.9263 22.5024 10.9905 23.5229C11.0258 24.0855 10.6772 24.8811 9.70205 24.9432C8.20883 25.0377 6.3433 23.6261 6.3433 23.6261L5.63 26.669C5.63 26.669 7.48319 28.6604 10.8496 28.4474C13.6541 28.2698 15.6007 26.0195 15.394 22.7302C15.235 20.2011 13.4593 19.0592 12.0558 18.1566C11.1388 17.5669 10.3807 17.0794 10.3363 16.374C10.3153 16.0464 10.3372 14.7417 12.4 14.6109C13.8065 14.522 14.9931 15.0636 14.9931 15.0636Z" fill="#84C6C6"/>
<path d="M42.3535 19.4301C41.3003 18.8569 40.759 18.3738 40.759 17.7097C40.759 16.8647 41.5109 16.3219 42.685 16.3219C44.0517 16.3219 45.272 16.895 45.272 16.895L46.2345 13.9375C46.2345 13.9375 45.3495 13.2432 42.7445 13.2432C39.1193 13.2432 36.6068 15.3253 36.6068 18.2525C36.6068 19.9122 37.78 21.1797 39.345 22.0844C40.6089 22.8082 41.0604 23.3216 41.0604 24.0757C41.0604 24.8601 40.4285 25.4938 39.2553 25.4938C37.507 25.4938 35.8559 24.5882 35.8559 24.5882L34.833 27.5457C34.833 27.5457 36.3584 28.5716 38.9247 28.5716C42.6557 28.5716 45.3335 26.731 45.3335 23.4116C45.3325 21.6326 43.979 20.365 42.3535 19.4301Z" fill="#84C6C6"/>
<path d="M57.2167 13.2133C55.3813 13.2133 53.9371 14.0886 52.8244 15.4158L52.7639 15.3855L54.3583 7.02734H50.2061L46.1748 28.3002H50.327L51.7108 21.0286C52.252 18.2824 53.666 16.5933 54.9902 16.5933C55.9225 16.5933 56.2843 17.227 56.2843 18.1327C56.2843 18.7058 56.2238 19.4002 56.1038 19.9733L54.5397 28.3011H58.6921L60.3162 19.7014C60.497 18.7958 60.6177 17.7102 60.6177 16.9855C60.616 14.6314 59.3826 13.2133 57.2167 13.2133Z" fill="#84C6C6"/>
<path d="M70.0026 13.2139C65.0076 13.2139 61.6992 17.7402 61.6992 22.7789C61.6992 26.0073 63.6844 28.6021 67.4156 28.6021C72.3196 28.6021 75.6291 24.197 75.6291 19.037C75.6291 16.0501 73.8837 13.2139 70.0026 13.2139ZM67.9568 25.4048C66.5426 25.4048 65.9407 24.198 65.9407 22.6889C65.9407 20.3054 67.1747 16.413 69.4311 16.413C70.9053 16.413 71.3859 17.6804 71.3859 18.9177C71.3859 21.482 70.1536 25.4048 67.9568 25.4048Z" fill="#84C6C6"/>
<path d="M86.2496 13.2139C83.4469 13.2139 81.8565 15.6883 81.8565 15.6883H81.797L82.0379 13.4554H78.3673C78.1871 14.9645 77.8553 17.257 77.5252 18.9773L74.6367 34.2148H78.789L79.9314 28.0592H80.0224C80.0224 28.0592 80.8742 28.602 82.4595 28.602C87.3332 28.602 90.522 23.5936 90.522 18.5236C90.522 15.7186 89.288 13.2139 86.2496 13.2139ZM82.2782 25.4645C81.2003 25.4645 80.5625 24.8611 80.5625 24.8611L81.2547 20.9686C81.7364 18.3739 83.09 16.6536 84.5345 16.6536C85.7983 16.6536 86.189 17.8301 86.189 18.947C86.189 21.6326 84.5946 25.4645 82.2782 25.4645Z" fill="#84C6C6"/>
<path d="M96.4487 7.23926C95.1255 7.23926 94.0723 8.29551 94.0723 9.653C94.0723 10.8902 94.8543 11.7352 96.0277 11.7352H96.0878C97.3818 11.7352 98.4946 10.8599 98.5249 9.32147C98.5249 8.11454 97.7125 7.23926 96.4487 7.23926Z" fill="#84C6C6"/>
<path d="M90.6426 28.3003H94.7937L97.6227 13.5459H93.4401L90.6426 28.3003Z" fill="#84C6C6"/>
<path d="M108.183 13.5159H105.295L105.445 12.8216C105.686 11.4034 106.528 10.1359 107.912 10.1359C108.651 10.1359 109.236 10.3472 109.236 10.3472L110.048 7.08844C110.048 7.08844 109.326 6.72656 107.791 6.72656C106.317 6.72656 104.844 7.14903 103.73 8.11434C102.316 9.32127 101.654 11.0709 101.323 12.8216L101.203 13.5159H99.2771L98.6753 16.6544H100.602L98.4053 28.3016H102.558L104.754 16.6544H107.612L108.183 13.5159Z" fill="#84C6C6"/>
<path d="M118.172 13.5459C118.172 13.5459 115.576 20.1041 114.411 23.684H114.35C114.271 22.5311 113.327 13.5459 113.327 13.5459H108.965L111.463 27.0934C111.524 27.3947 111.493 27.5765 111.373 27.7877C110.89 28.7228 110.079 29.6284 109.116 30.2925C108.334 30.8656 107.461 31.2274 106.77 31.469L107.913 34.9996C108.755 34.8187 110.5 34.1243 111.974 32.7365C113.87 30.9565 115.614 28.2103 117.419 24.4684L122.504 13.5449H118.172V13.5459Z" fill="#84C6C6"/>
</g>
<defs>
<clipPath id="clip0_0_88">
<rect width="123" height="35" fill="white"/>
</clipPath>
</defs>
</svg>
