<svg width="40" height="40" viewBox="0 0 40 40" fill="none" xmlns="http://www.w3.org/2000/svg">
<path d="M27.0517 14.5225H12.9477C9.0186 14.5225 5.83301 17.6378 5.83301 21.4802V29.7083C5.83301 33.5507 9.0186 36.6661 12.9477 36.6661H27.0517C30.9807 36.6661 34.1663 33.5507 34.1663 29.7083V21.4802C34.1663 17.6378 30.9807 14.5225 27.0517 14.5225Z" fill="#456B6B"/>
<path fill-rule="evenodd" clip-rule="evenodd" d="M26.1452 22.0311C26.6803 22.6635 26.6014 23.61 25.969 24.1451L19.469 29.6451C19.149 29.9159 18.7303 30.0404 18.3144 29.9885C17.8984 29.9366 17.5232 29.713 17.2795 29.3719L14.7795 25.8719C14.298 25.1978 14.4541 24.2609 15.1283 23.7794C15.8024 23.2979 16.7392 23.4541 17.2207 24.1282L18.7743 26.3031L24.0312 21.855C24.6636 21.3198 25.6101 21.3987 26.1452 22.0311Z" fill="#FFDC60"/>
<path d="M29.204 12.3263V14.7775C28.6112 14.6118 27.9846 14.529 27.341 14.529H26.2402V12.3263C26.2402 8.96414 23.4458 6.23139 20.0079 6.23139C16.57 6.23139 13.7756 8.94758 13.7587 12.2931V14.529H12.6748C12.0143 14.529 11.3877 14.6118 10.7949 14.794V12.3263C10.8119 7.35761 14.9272 3.33301 19.974 3.33301C25.0886 3.33301 29.204 7.35761 29.204 12.3263Z" fill="#FFDC60"/>
</svg>
