<svg width="50" height="50" viewBox="0 0 50 50" fill="none" xmlns="http://www.w3.org/2000/svg">
<path d="M21.1519 11.5745C21.258 11.7905 21.3281 12.0218 21.3595 12.2595L21.9395 20.8844L22.2275 25.2194C22.2305 25.6652 22.3004 26.1081 22.435 26.5339C22.7828 27.36 23.6194 27.885 24.5296 27.8484L38.3989 26.9412C38.9995 26.9313 39.5795 27.156 40.0112 27.5657C40.371 27.9071 40.6033 28.3538 40.6765 28.8342L40.7011 29.1259C40.1271 37.0732 34.2902 43.7019 26.3594 45.413C18.4286 47.1241 10.2959 43.5095 6.3768 36.5315C5.24697 34.5043 4.54126 32.276 4.30112 29.9775C4.2008 29.2971 4.15663 28.6099 4.16903 27.9225C4.15665 19.402 10.2242 12.0358 18.7177 10.26C19.7399 10.1009 20.742 10.642 21.1519 11.5745Z" fill="#209FA0"/>
<path d="M26.8129 4.1687C36.3126 4.41038 44.2968 11.2415 45.8337 20.4426L45.819 20.5105L45.7771 20.6092L45.7829 20.8802C45.7611 21.2393 45.6225 21.5848 45.3836 21.8638C45.1347 22.1545 44.7947 22.3525 44.4203 22.4293L44.192 22.4606L28.1904 23.4974C27.6581 23.5499 27.1281 23.3783 26.7323 23.0252C26.4025 22.731 26.1916 22.3338 26.132 21.9059L25.058 5.92754C25.0393 5.87351 25.0393 5.81494 25.058 5.76091C25.0726 5.32048 25.2665 4.90416 25.5963 4.60497C25.926 4.30578 26.3642 4.14866 26.8129 4.1687Z" fill="#FFDC60"/>
</svg>
