<svg width="126" height="27" viewBox="0 0 126 27" fill="none" xmlns="http://www.w3.org/2000/svg">
<path d="M44.4755 15.5512L43.7245 17.6861H43.6619C43.5367 17.2047 43.3073 16.4721 42.9318 15.5931L38.9056 5.44191H34.9629V21.621H37.5705V11.6373C37.5705 11.0094 37.5705 10.2977 37.5496 9.41866C37.5288 8.97912 37.4871 8.64424 37.4662 8.39308H37.5288C37.6539 9.02098 37.8 9.48145 37.9043 9.77447L42.744 21.5791H44.5798L49.3778 9.66982C49.4821 9.39773 49.5864 8.85354 49.6907 8.39308H49.7533C49.6907 9.5861 49.649 10.6535 49.6281 11.3024V21.5582H52.4026V5.40005H48.6059L44.4755 15.5512ZM55.0311 9.96284H57.743V21.5582H55.0311V9.96284ZM56.4079 5.06517C55.949 5.06517 55.5735 5.23261 55.2606 5.52564C54.9477 5.81866 54.7808 6.1954 54.7808 6.65587C54.7808 7.0954 54.9477 7.47215 55.2606 7.76517C55.5735 8.05819 55.949 8.20471 56.4079 8.20471C56.8669 8.20471 57.2632 8.03726 57.5553 7.76517C57.8682 7.47215 58.0351 7.0954 58.0351 6.65587C58.0351 6.21633 57.8682 5.83959 57.5553 5.52564C57.2841 5.23261 56.8877 5.06517 56.4079 5.06517ZM67.3599 9.85819C66.8593 9.75354 66.3377 9.69075 65.8371 9.69075C64.6063 9.69075 63.4798 9.96284 62.541 10.507C61.6023 11.0512 60.8513 11.8047 60.3715 12.7466C59.8708 13.7094 59.6205 14.8187 59.6205 16.0954C59.6205 17.2047 59.8708 18.1884 60.3506 19.0884C60.8304 19.9675 61.498 20.6791 62.395 21.1605C63.2503 21.6419 64.2516 21.8931 65.3781 21.8931C66.6715 21.8931 67.7771 21.621 68.6533 21.1187L68.6742 21.0977V18.5861L68.5699 18.6698C68.1735 18.9628 67.7146 19.214 67.2556 19.3605C66.7758 19.528 66.3377 19.6117 65.9622 19.6117C64.8775 19.6117 64.0222 19.2977 63.4172 18.607C62.7914 17.9373 62.4785 17.0163 62.4785 15.8652C62.4785 14.6721 62.7914 13.7303 63.4381 13.0396C64.0848 12.3489 64.94 11.9931 65.9831 11.9931C66.8593 11.9931 67.7563 12.2861 68.5699 12.8721L68.6742 12.9559V10.2977L68.6533 10.2768C68.2987 10.1303 67.9023 9.96284 67.3599 9.85819ZM76.3093 9.77447C75.6417 9.77447 75.0159 9.98377 74.4735 10.4233C74.0146 10.8001 73.7016 11.3442 73.4305 11.9931H73.4096V9.96284H70.6977V21.5582H73.4096V15.6349C73.4096 14.6303 73.6182 13.7931 74.0771 13.1861C74.5361 12.5582 75.1202 12.2442 75.8295 12.2442C76.0798 12.2442 76.3301 12.307 76.643 12.3489C76.9351 12.4326 77.1437 12.5163 77.2897 12.621L77.394 12.7047V9.98378L77.3314 9.96284C77.1437 9.83726 76.7682 9.77447 76.3093 9.77447ZM83.694 9.71168C81.7957 9.71168 80.2728 10.2768 79.2089 11.3861C78.1242 12.4954 77.6026 14.0233 77.6026 15.9489C77.6026 17.7489 78.145 19.214 79.1881 20.2814C80.2311 21.328 81.6497 21.8721 83.4228 21.8721C85.2795 21.8721 86.7606 21.307 87.8245 20.1768C88.9093 19.0466 89.4308 17.5396 89.4308 15.6768C89.4308 13.8349 88.9301 12.3698 87.9079 11.3024C86.9275 10.2349 85.4881 9.71168 83.694 9.71168ZM85.8636 18.628C85.3629 19.2768 84.5702 19.5908 83.5897 19.5908C82.6093 19.5908 81.8165 19.2768 81.2533 18.5861C80.6901 17.9373 80.4189 16.9954 80.4189 15.8024C80.4189 14.5675 80.7109 13.6256 81.2533 12.9559C81.8165 12.2861 82.5884 11.9512 83.5689 11.9512C84.5285 11.9512 85.2795 12.2652 85.8218 12.914C86.3642 13.5628 86.6563 14.5047 86.6563 15.7396C86.6146 16.9954 86.3851 17.9791 85.8636 18.628ZM95.4805 14.7768C94.6252 14.421 94.0828 14.1489 93.8324 13.9187C93.6238 13.7094 93.5195 13.4163 93.5195 13.0396C93.5195 12.7256 93.6447 12.4117 93.9576 12.2024C94.2705 11.9931 94.6252 11.8884 95.1467 11.8884C95.6056 11.8884 96.0854 11.9721 96.5444 12.0977C97.0033 12.2233 97.4205 12.4117 97.7543 12.6628L97.8586 12.7466V10.1931L97.796 10.1721C97.4831 10.0466 97.0659 9.92098 96.5652 9.81633C96.0646 9.73261 95.6056 9.69075 95.2301 9.69075C93.9367 9.69075 92.8728 10.0047 92.0384 10.6954C91.204 11.3442 90.8076 12.2233 90.8076 13.2489C90.8076 13.7931 90.8911 14.2745 91.0788 14.6721C91.2665 15.0698 91.5377 15.4466 91.9132 15.7605C92.2887 16.0535 92.8311 16.3884 93.5821 16.7024C94.2079 16.9745 94.6877 17.1838 94.9798 17.3512C95.2718 17.5187 95.4596 17.707 95.6056 17.8535C95.7099 18.021 95.7725 18.2303 95.7725 18.5024C95.7725 19.2768 95.1884 19.6535 93.9993 19.6535C93.5404 19.6535 93.0606 19.5698 92.4973 19.3814C91.9341 19.1931 91.4126 18.921 90.9745 18.607L90.8702 18.5233V21.1814L90.9328 21.2024C91.3291 21.3908 91.8089 21.5163 92.393 21.6628C92.9771 21.7675 93.4987 21.8512 93.9576 21.8512C95.3553 21.8512 96.5026 21.5373 97.3162 20.8466C98.1507 20.1768 98.5887 19.3187 98.5887 18.2094C98.5887 17.4349 98.3801 16.7442 97.9212 16.221C97.3162 15.7187 96.5652 15.1954 95.4805 14.7768ZM105.744 9.71168C103.846 9.71168 102.323 10.2768 101.259 11.3861C100.195 12.4954 99.6526 14.0233 99.6526 15.9489C99.6526 17.7489 100.195 19.214 101.238 20.2814C102.281 21.328 103.7 21.8721 105.473 21.8721C107.329 21.8721 108.811 21.307 109.875 20.1768C110.959 19.0466 111.481 17.5396 111.481 15.6768C111.481 13.8349 110.98 12.3698 109.958 11.3024C108.977 10.2349 107.538 9.71168 105.744 9.71168ZM107.893 18.628C107.392 19.2768 106.599 19.5908 105.619 19.5908C104.618 19.5908 103.846 19.2768 103.282 18.5861C102.719 17.9373 102.448 16.9954 102.448 15.8024C102.448 14.5675 102.74 13.6256 103.282 12.9559C103.846 12.2861 104.618 11.9512 105.598 11.9512C106.537 11.9512 107.309 12.2652 107.851 12.914C108.393 13.5628 108.685 14.5047 108.685 15.7396C108.685 16.9954 108.414 17.9791 107.893 18.628ZM125.979 12.2024V9.96284H123.246V6.53029L123.163 6.55122L120.576 7.32564L120.514 7.34657V9.96284H116.425V8.49773C116.425 7.82796 116.592 7.30471 116.884 6.96982C117.176 6.63494 117.614 6.4675 118.156 6.4675C118.532 6.4675 118.928 6.55122 119.366 6.73959L119.471 6.80238V4.43726L119.408 4.41633C119.032 4.29075 118.532 4.20703 117.885 4.20703C117.072 4.20703 116.362 4.3954 115.716 4.70936C115.069 5.06517 114.589 5.54657 114.234 6.1954C113.88 6.82331 113.692 7.53494 113.692 8.35122V9.96284H111.794V12.1814H113.692V21.5582H116.425V12.2024H120.514V18.1675C120.514 20.6163 121.661 21.8512 123.956 21.8512C124.331 21.8512 124.727 21.7884 125.103 21.7256C125.499 21.6419 125.791 21.5373 125.958 21.4535L125.979 21.4326V19.1931L125.875 19.2768C125.708 19.3814 125.562 19.4652 125.312 19.528C125.103 19.5908 124.915 19.6117 124.769 19.6117C124.227 19.6117 123.851 19.4861 123.58 19.1721C123.33 18.8791 123.205 18.3977 123.205 17.6861V12.2024H125.979Z" fill="#737373"/>
<path d="M0 0H12.7877V12.8302H0V0Z" fill="#F25022"/>
<path d="M14.123 0H26.9108V12.8302H14.123V0Z" fill="#7FBA00"/>
<path d="M0 14.1699H12.7877V27.0002H0V14.1699Z" fill="#00A4EF"/>
<path d="M14.123 14.1699H26.9108V27.0002H14.123V14.1699Z" fill="#FFB900"/>
</svg>
