<svg width="50" height="50" viewBox="0 0 50 50" fill="none" xmlns="http://www.w3.org/2000/svg">
<path d="M41.6663 16.667H27.083L29.4205 9.65033C29.6291 9.02411 29.6859 8.3573 29.5863 7.70481C29.4867 7.05233 29.2335 6.43285 28.8475 5.8974C28.4616 5.36194 27.954 4.92583 27.3665 4.62498C26.779 4.32414 26.1285 4.16716 25.4684 4.16699H24.9997L14.583 15.4962V43.7503H37.4997L45.6497 25.842L45.833 25.0003V20.8337C45.833 19.7286 45.394 18.6688 44.6126 17.8874C43.8312 17.106 42.7714 16.667 41.6663 16.667Z" fill="#209FA0"/>
<path d="M10.417 43.7503H8.33366C7.22859 43.7503 6.16878 43.3113 5.38738 42.5299C4.60598 41.7485 4.16699 40.6887 4.16699 39.5837V20.8337C4.16699 19.7286 4.60598 18.6688 5.38738 17.8874C6.16878 17.106 7.22859 16.667 8.33366 16.667H10.417V43.7503Z" fill="#FFDC60"/>
</svg>
