<svg width="50" height="50" viewBox="0 0 50 50" fill="none" xmlns="http://www.w3.org/2000/svg">
<path d="M33.8153 18.1543H16.1853C11.274 18.1543 7.29199 22.0485 7.29199 26.8515V37.1366C7.29199 41.9396 11.274 45.8338 16.1853 45.8338H33.8153C38.7267 45.8338 42.7087 41.9396 42.7087 37.1366V26.8515C42.7087 22.0485 38.7267 18.1543 33.8153 18.1543Z" fill="#209FA0"/>
<path fill-rule="evenodd" clip-rule="evenodd" d="M32.6815 27.5389C33.3504 28.3294 33.2518 29.5125 32.4613 30.1814L24.3363 37.0564C23.9363 37.3948 23.4129 37.5505 22.893 37.4856C22.373 37.4207 21.904 37.1412 21.5994 36.7149L18.4744 32.3399C17.8725 31.4972 18.0677 30.3262 18.9103 29.7243C19.753 29.1224 20.924 29.3176 21.5259 30.1602L23.4678 32.8789L30.039 27.3187C30.8295 26.6498 32.0126 26.7484 32.6815 27.5389Z" fill="#FFDC60"/>
<path d="M36.5064 15.4086V18.4726C35.7655 18.2655 34.9822 18.162 34.1778 18.162H32.8018V15.4086C32.8018 11.2059 29.3088 7.78996 25.0114 7.78996C20.7139 7.78996 17.221 11.1852 17.1998 15.3672V18.162H15.8449C15.0193 18.162 14.2361 18.2655 13.4951 18.4933V15.4086C13.5163 9.19775 18.6605 4.16699 24.969 4.16699C31.3622 4.16699 36.5064 9.19775 36.5064 15.4086Z" fill="#FFDC60"/>
</svg>
