<svg width="27" height="27" viewBox="0 0 27 27" fill="none" xmlns="http://www.w3.org/2000/svg">
<path d="M26.9936 27.0001V26.999H27.0003V17.0967C27.0003 12.2525 25.9575 8.52087 20.2942 8.52087C17.5717 8.52087 15.7447 10.0149 14.9988 11.4312H14.9201V8.97312H9.55045V26.999H15.1417V18.0732C15.1417 15.7231 15.5872 13.4506 18.4976 13.4506C21.3652 13.4506 21.4079 16.1326 21.4079 18.224V27.0001H26.9936Z" fill="#0077B5"/>
<path d="M0.444978 8.97388H6.04298V26.9998H0.444978V8.97388Z" fill="#0077B5"/>
<path d="M3.24225 0C1.45238 0 0 1.45238 0 3.24225C0 5.03213 1.45238 6.51488 3.24225 6.51488C5.03213 6.51488 6.4845 5.03213 6.4845 3.24225C6.48338 1.45238 5.031 0 3.24225 0V0Z" fill="#0077B5"/>
</svg>
