<svg width="140" height="30" viewBox="0 0 140 30" fill="none" xmlns="http://www.w3.org/2000/svg">
<g clip-path="url(#clip0_0_82)">
<path d="M49.4172 17.2795L48.5828 19.6515H48.5132C48.3741 19.1167 48.1192 18.3027 47.702 17.326L43.2285 6.0469H38.8477V24.0236H41.745V12.9306C41.745 12.2329 41.745 11.4422 41.7218 10.4655C41.6986 9.97713 41.6523 9.60504 41.6291 9.32597H41.6986C41.8377 10.0236 42 10.5353 42.1159 10.8609L47.4934 23.9771H49.5331L54.8642 10.7446C54.9801 10.4422 55.096 9.83759 55.2119 9.32597H55.2814C55.2119 10.6515 55.1655 11.8376 55.1424 12.5585V23.9539H58.2251V6.00039H54.0066L49.4172 17.2795ZM61.1457 11.0702H64.1589V23.9539H61.1457V11.0702ZM62.6755 5.62829C62.1655 5.62829 61.7483 5.81434 61.4006 6.13992C61.053 6.4655 60.8675 6.88411 60.8675 7.39573C60.8675 7.88411 61.053 8.30271 61.4006 8.62829C61.7483 8.95387 62.1655 9.11666 62.6755 9.11666C63.1854 9.11666 63.6258 8.93062 63.9503 8.62829C64.298 8.30271 64.4834 7.88411 64.4834 7.39573C64.4834 6.90736 64.298 6.48876 63.9503 6.13992C63.649 5.81434 63.2086 5.62829 62.6755 5.62829ZM74.8443 10.9539C74.2881 10.8376 73.7086 10.7678 73.1523 10.7678C71.7847 10.7678 70.5331 11.0702 69.49 11.6748C68.447 12.2795 67.6126 13.1167 67.0794 14.1632C66.5232 15.2329 66.245 16.4655 66.245 17.8841C66.245 19.1167 66.5232 20.2097 67.0563 21.2097C67.5894 22.1864 68.3311 22.9771 69.3278 23.512C70.2781 24.0469 71.3907 24.326 72.6424 24.326C74.0794 24.326 75.3079 24.0236 76.2814 23.4655L76.3046 23.4422V20.6515L76.1887 20.7446C75.7483 21.0702 75.2384 21.3492 74.7285 21.512C74.1953 21.6981 73.7086 21.7911 73.2914 21.7911C72.0861 21.7911 71.1357 21.4422 70.4636 20.6748C69.7682 19.9306 69.4205 18.9074 69.4205 17.6283C69.4205 16.3027 69.7682 15.2562 70.4867 14.4888C71.2053 13.7213 72.1556 13.326 73.3145 13.326C74.2881 13.326 75.2848 13.6515 76.1887 14.3027L76.3046 14.3957V11.4422L76.2814 11.419C75.8874 11.2562 75.447 11.0702 74.8443 10.9539ZM84.7881 10.8609C84.0463 10.8609 83.351 11.0934 82.7483 11.5818C82.2384 12.0004 81.8907 12.605 81.5894 13.326H81.5662V11.0702H78.553V23.9539H81.5662V17.3725C81.5662 16.2562 81.798 15.326 82.3079 14.6515C82.8179 13.9539 83.4669 13.605 84.2549 13.605C84.5331 13.605 84.8112 13.6748 85.1589 13.7213C85.4834 13.8143 85.7152 13.9074 85.8775 14.0236L85.9934 14.1167V11.0934L85.9238 11.0702C85.7152 10.9306 85.298 10.8609 84.7881 10.8609ZM92.9934 10.7911C90.8841 10.7911 89.192 11.419 88.0099 12.6515C86.8046 13.8841 86.2251 15.5818 86.2251 17.7213C86.2251 19.7213 86.8278 21.3492 87.9867 22.5353C89.1457 23.6981 90.7218 24.3027 92.692 24.3027C94.755 24.3027 96.4006 23.6748 97.5828 22.419C98.7881 21.1632 99.3675 19.4888 99.3675 17.419C99.3675 15.3725 98.8112 13.7446 97.6755 12.5585C96.5861 11.3725 94.9867 10.7911 92.9934 10.7911ZM95.404 20.6981C94.8477 21.419 93.9669 21.7678 92.8775 21.7678C91.7881 21.7678 90.9073 21.419 90.2814 20.6515C89.6556 19.9306 89.3543 18.8841 89.3543 17.5585C89.3543 16.1864 89.6788 15.1399 90.2814 14.3957C90.9073 13.6515 91.7649 13.2795 92.8543 13.2795C93.9205 13.2795 94.755 13.6283 95.3576 14.3492C95.9602 15.0702 96.2848 16.1167 96.2848 17.4888C96.2384 18.8841 95.9834 19.9771 95.404 20.6981ZM106.089 16.419C105.139 16.0236 104.536 15.7213 104.258 15.4655C104.026 15.2329 103.911 14.9074 103.911 14.4888C103.911 14.1399 104.05 13.7911 104.397 13.5585C104.745 13.326 105.139 13.2097 105.719 13.2097C106.228 13.2097 106.762 13.3027 107.272 13.4422C107.781 13.5818 108.245 13.7911 108.616 14.0702L108.732 14.1632V11.326L108.662 11.3027C108.315 11.1632 107.851 11.0236 107.295 10.9074C106.738 10.8143 106.228 10.7678 105.811 10.7678C104.374 10.7678 103.192 11.1167 102.265 11.8841C101.338 12.605 100.897 13.5818 100.897 14.7213C100.897 15.326 100.99 15.8608 101.199 16.3027C101.407 16.7446 101.709 17.1632 102.126 17.512C102.543 17.8376 103.146 18.2097 103.98 18.5585C104.675 18.8609 105.209 19.0934 105.533 19.2795C105.858 19.4655 106.066 19.6748 106.228 19.8376C106.344 20.0236 106.414 20.2562 106.414 20.5585C106.414 21.419 105.765 21.8376 104.444 21.8376C103.934 21.8376 103.401 21.7446 102.775 21.5353C102.149 21.326 101.57 21.0236 101.083 20.6748L100.967 20.5818V23.5353L101.036 23.5585C101.477 23.7678 102.01 23.9074 102.659 24.0702C103.308 24.1864 103.887 24.2795 104.397 24.2795C105.95 24.2795 107.225 23.9306 108.129 23.1632C109.056 22.419 109.543 21.4655 109.543 20.2329C109.543 19.3725 109.311 18.605 108.801 18.0236C108.129 17.4655 107.295 16.8841 106.089 16.419ZM117.493 10.7911C115.384 10.7911 113.692 11.419 112.51 12.6515C111.328 13.8841 110.725 15.5818 110.725 17.7213C110.725 19.7213 111.328 21.3492 112.487 22.5353C113.646 23.6981 115.222 24.3027 117.192 24.3027C119.255 24.3027 120.901 23.6748 122.083 22.419C123.288 21.1632 123.868 19.4888 123.868 17.419C123.868 15.3725 123.311 13.7446 122.175 12.5585C121.086 11.3725 119.487 10.7911 117.493 10.7911ZM119.881 20.6981C119.324 21.419 118.444 21.7678 117.354 21.7678C116.242 21.7678 115.384 21.419 114.758 20.6515C114.132 19.9306 113.831 18.8841 113.831 17.5585C113.831 16.1864 114.156 15.1399 114.758 14.3957C115.384 13.6515 116.242 13.2795 117.331 13.2795C118.374 13.2795 119.232 13.6283 119.834 14.3492C120.437 15.0702 120.762 16.1167 120.762 17.4888C120.762 18.8841 120.46 19.9771 119.881 20.6981ZM139.977 13.5585V11.0702H136.94V7.2562L136.848 7.27946L133.974 8.13992L133.904 8.16318V11.0702H129.361V9.44225C129.361 8.69806 129.546 8.11666 129.871 7.74457C130.195 7.37248 130.682 7.18643 131.285 7.18643C131.702 7.18643 132.142 7.27946 132.629 7.48876L132.745 7.55853V4.93062L132.675 4.90736C132.258 4.76783 131.702 4.6748 130.983 4.6748C130.079 4.6748 129.291 4.88411 128.573 5.23294C127.854 5.62829 127.321 6.16318 126.927 6.88411C126.533 7.58178 126.324 8.37248 126.324 9.27946V11.0702H124.215V13.5353H126.324V23.9539H129.361V13.5585H133.904V20.1864C133.904 22.9074 135.179 24.2795 137.728 24.2795C138.146 24.2795 138.586 24.2097 139.003 24.1399C139.444 24.0469 139.768 23.9306 139.954 23.8376L139.977 23.8143V21.326L139.861 21.419C139.675 21.5353 139.513 21.6283 139.235 21.6981C139.003 21.7678 138.795 21.7911 138.632 21.7911C138.03 21.7911 137.613 21.6515 137.311 21.3027C137.033 20.9771 136.894 20.4422 136.894 19.6515V13.5585H139.977Z" fill="#84C6C6"/>
<path d="M0 0H14.2086V14.2558H0V0Z" fill="#84C6C6"/>
<path d="M15.6924 0H29.901V14.2558H15.6924V0Z" fill="#84C6C6"/>
<path d="M0 15.7441H14.2086V30H0V15.7441Z" fill="#84C6C6"/>
<path d="M15.6924 15.7441H29.901V30H15.6924V15.7441Z" fill="#84C6C6"/>
</g>
<defs>
<clipPath id="clip0_0_82">
<rect width="140" height="30" fill="white"/>
</clipPath>
</defs>
</svg>
