<svg width="50" height="50" viewBox="0 0 50 50" fill="none" xmlns="http://www.w3.org/2000/svg">
<path d="M24.9995 22.8562L43.5688 12.1387C43.5688 12.1387 44.2262 12.6607 44.7436 13.5578C45.261 14.4548 45.478 15.371 45.478 15.371L26.8745 26.1038V47.3975C26.8745 47.3975 25.8514 47.6318 24.8159 47.6318C23.7803 47.6318 23.1245 47.4073 23.1245 47.4073V26.1038L4.52344 15.3754C4.52344 14.6417 5.80209 12.6927 6.42461 12.1429L24.9995 22.8562Z" fill="#FFDC60"/>
<path fill-rule="evenodd" clip-rule="evenodd" d="M25 2.2959C23.941 2.2959 22.9006 2.57426 21.9831 3.10306L7.40306 11.4345L7.39583 11.4387C7.04665 11.6403 6.71997 11.8755 6.42003 12.14L25 22.8562L43.58 12.14C43.28 11.8755 42.9534 11.6402 42.6042 11.4386L28.0208 3.10533L28.0168 3.10298C27.0993 2.57424 26.059 2.2959 25 2.2959ZM45.4835 15.3712L26.8749 26.1038V47.4057C27.2705 47.2766 27.6533 47.1064 28.0168 46.8969L28.0208 46.8946L42.5969 38.5654L42.6042 38.5613C43.5217 38.0315 44.2838 37.2698 44.814 36.3525C45.3442 35.4353 45.6239 34.3947 45.625 33.3352L45.625 33.3333V16.6666L45.625 16.6647C45.6245 16.2279 45.5767 15.7943 45.4835 15.3712ZM23.1249 47.4057V26.1038L4.51646 15.3712C4.42326 15.7942 4.37545 16.2279 4.375 16.6647V33.3352C4.37609 34.3947 4.65576 35.4353 5.18598 36.3525C5.71619 37.2698 6.47829 38.0315 7.39583 38.5613L7.40307 38.5654L21.9792 46.8946L21.9831 46.8968C22.3466 47.1063 22.7293 47.2765 23.1249 47.4057Z" fill="#209FA0"/>
</svg>
