<svg width="575" height="545" viewBox="0 0 575 545" fill="none" xmlns="http://www.w3.org/2000/svg">
<g filter="url(#filter0_d_514_4935)">
<rect x="256" y="83.5" width="257" height="220" rx="6" fill="white"/>
</g>
<path d="M285.312 108.524C286.219 108.524 287.04 108.716 287.776 109.1C288.523 109.484 289.115 110.044 289.552 110.78C289.989 111.516 290.208 112.385 290.208 113.388V114.636C290.208 115.639 289.989 116.508 289.552 117.244C289.115 117.98 288.523 118.54 287.776 118.924C287.04 119.308 286.219 119.5 285.312 119.5H281.152V108.524H285.312ZM283.632 117.532H285.312C285.995 117.532 286.549 117.313 286.976 116.876C287.403 116.428 287.616 115.799 287.616 114.988V113.036C287.616 112.225 287.403 111.601 286.976 111.164C286.549 110.716 285.995 110.492 285.312 110.492H283.632V117.532ZM297.033 113.98C297.033 113.617 296.915 113.324 296.681 113.1C296.457 112.876 296.089 112.764 295.577 112.764C295.278 112.764 295.022 112.817 294.809 112.924C294.595 113.02 294.43 113.143 294.313 113.292C294.206 113.441 294.153 113.58 294.153 113.708V113.836H291.897C291.875 113.708 291.865 113.612 291.865 113.548C291.865 113.089 292.014 112.679 292.313 112.316C292.622 111.953 293.049 111.671 293.593 111.468C294.137 111.265 294.761 111.164 295.465 111.164H295.801C296.953 111.164 297.827 111.393 298.425 111.852C299.022 112.3 299.321 112.919 299.321 113.708V117.484C299.321 117.676 299.363 117.82 299.449 117.916C299.545 118.012 299.657 118.06 299.785 118.06C299.891 118.06 300.009 118.039 300.137 117.996C300.265 117.953 300.366 117.916 300.441 117.884V119.324C300.046 119.548 299.577 119.66 299.033 119.66C298.446 119.66 297.998 119.543 297.689 119.308C297.379 119.063 297.198 118.721 297.145 118.284C296.398 119.201 295.481 119.66 294.393 119.66C293.582 119.66 292.915 119.495 292.393 119.164C291.87 118.833 291.609 118.204 291.609 117.276C291.609 116.519 291.822 115.943 292.249 115.548C292.686 115.143 293.289 114.871 294.057 114.732C294.825 114.593 295.817 114.524 297.033 114.524V113.98ZM297.033 115.836C296.019 115.836 295.262 115.937 294.761 116.14C294.27 116.332 294.025 116.652 294.025 117.1C294.025 117.452 294.121 117.703 294.313 117.852C294.515 117.991 294.819 118.06 295.225 118.06C295.502 118.06 295.779 117.985 296.057 117.836C296.334 117.687 296.563 117.473 296.745 117.196C296.937 116.919 297.033 116.609 297.033 116.268V115.836ZM306.019 119.356C305.806 119.441 305.523 119.511 305.171 119.564C304.83 119.628 304.526 119.66 304.259 119.66C303.438 119.66 302.819 119.484 302.403 119.132C301.987 118.78 301.779 118.193 301.779 117.372V112.924H300.883V111.324H301.859L302.675 108.716H304.115V111.324H306.019V112.924H304.115V116.972C304.115 117.399 304.195 117.687 304.355 117.836C304.526 117.985 304.75 118.06 305.027 118.06C305.155 118.06 305.321 118.039 305.523 117.996C305.726 117.953 305.891 117.905 306.019 117.852V119.356ZM312.533 113.98C312.533 113.617 312.415 113.324 312.181 113.1C311.957 112.876 311.589 112.764 311.077 112.764C310.778 112.764 310.522 112.817 310.309 112.924C310.095 113.02 309.93 113.143 309.813 113.292C309.706 113.441 309.653 113.58 309.653 113.708V113.836H307.397C307.375 113.708 307.365 113.612 307.365 113.548C307.365 113.089 307.514 112.679 307.813 112.316C308.122 111.953 308.549 111.671 309.093 111.468C309.637 111.265 310.261 111.164 310.965 111.164H311.301C312.453 111.164 313.327 111.393 313.925 111.852C314.522 112.3 314.821 112.919 314.821 113.708V117.484C314.821 117.676 314.863 117.82 314.949 117.916C315.045 118.012 315.157 118.06 315.285 118.06C315.391 118.06 315.509 118.039 315.637 117.996C315.765 117.953 315.866 117.916 315.941 117.884V119.324C315.546 119.548 315.077 119.66 314.533 119.66C313.946 119.66 313.498 119.543 313.189 119.308C312.879 119.063 312.698 118.721 312.645 118.284C311.898 119.201 310.981 119.66 309.893 119.66C309.082 119.66 308.415 119.495 307.893 119.164C307.37 118.833 307.109 118.204 307.109 117.276C307.109 116.519 307.322 115.943 307.749 115.548C308.186 115.143 308.789 114.871 309.557 114.732C310.325 114.593 311.317 114.524 312.533 114.524V113.98ZM312.533 115.836C311.519 115.836 310.762 115.937 310.261 116.14C309.77 116.332 309.525 116.652 309.525 117.1C309.525 117.452 309.621 117.703 309.813 117.852C310.015 117.991 310.319 118.06 310.725 118.06C311.002 118.06 311.279 117.985 311.557 117.836C311.834 117.687 312.063 117.473 312.245 117.196C312.437 116.919 312.533 116.609 312.533 116.268V115.836ZM327.099 117.34H322.731L321.963 119.5H319.579L323.563 108.524H326.507L330.491 119.5H327.899L327.099 117.34ZM323.403 115.468H326.443C326.038 114.263 325.547 112.828 324.971 111.164H324.891L323.403 115.468ZM333.572 112.524C334.244 111.617 335.113 111.164 336.18 111.164C337.012 111.164 337.694 111.388 338.228 111.836C338.772 112.284 339.044 112.935 339.044 113.788V119.5H336.708V114.3C336.708 113.884 336.585 113.543 336.34 113.276C336.105 112.999 335.801 112.86 335.428 112.86C335.012 112.86 334.654 113.02 334.356 113.34C334.057 113.649 333.908 114.028 333.908 114.476V119.5H331.572V111.324H333.316L333.572 112.524ZM346.127 113.98C346.127 113.617 346.009 113.324 345.775 113.1C345.551 112.876 345.183 112.764 344.671 112.764C344.372 112.764 344.116 112.817 343.903 112.924C343.689 113.02 343.524 113.143 343.407 113.292C343.3 113.441 343.247 113.58 343.247 113.708V113.836H340.991C340.969 113.708 340.959 113.612 340.959 113.548C340.959 113.089 341.108 112.679 341.407 112.316C341.716 111.953 342.143 111.671 342.687 111.468C343.231 111.265 343.855 111.164 344.559 111.164H344.895C346.047 111.164 346.921 111.393 347.519 111.852C348.116 112.3 348.415 112.919 348.415 113.708V117.484C348.415 117.676 348.457 117.82 348.543 117.916C348.639 118.012 348.751 118.06 348.878 118.06C348.985 118.06 349.103 118.039 349.231 117.996C349.359 117.953 349.46 117.916 349.535 117.884V119.324C349.14 119.548 348.671 119.66 348.127 119.66C347.54 119.66 347.092 119.543 346.783 119.308C346.473 119.063 346.292 118.721 346.239 118.284C345.492 119.201 344.575 119.66 343.487 119.66C342.676 119.66 342.009 119.495 341.487 119.164C340.964 118.833 340.703 118.204 340.703 117.276C340.703 116.519 340.916 115.943 341.343 115.548C341.78 115.143 342.383 114.871 343.151 114.732C343.919 114.593 344.911 114.524 346.127 114.524V113.98ZM346.127 115.836C345.113 115.836 344.356 115.937 343.855 116.14C343.364 116.332 343.119 116.652 343.119 117.1C343.119 117.452 343.215 117.703 343.407 117.852C343.609 117.991 343.913 118.06 344.319 118.06C344.596 118.06 344.873 117.985 345.151 117.836C345.428 117.687 345.657 117.473 345.839 117.196C346.031 116.919 346.127 116.609 346.127 116.268V115.836ZM350.681 119.5V107.98H353.017V119.5H350.681ZM359.662 119.052C359.267 120.119 358.782 120.956 358.206 121.564C357.63 122.183 356.936 122.492 356.126 122.492C355.56 122.492 355.102 122.412 354.75 122.252V120.604C354.878 120.657 355.043 120.705 355.246 120.748C355.448 120.801 355.64 120.828 355.822 120.828C356.504 120.828 356.99 120.332 357.278 119.34L354.19 111.324H356.67L358.478 116.46H358.574L360.27 111.324H362.574L359.662 119.052ZM368.16 119.356C367.947 119.441 367.664 119.511 367.312 119.564C366.971 119.628 366.667 119.66 366.4 119.66C365.579 119.66 364.96 119.484 364.544 119.132C364.128 118.78 363.92 118.193 363.92 117.372V112.924H363.024V111.324H364L364.816 108.716H366.256V111.324H368.16V112.924H366.256V116.972C366.256 117.399 366.336 117.687 366.496 117.836C366.667 117.985 366.891 118.06 367.168 118.06C367.296 118.06 367.461 118.039 367.664 117.996C367.867 117.953 368.032 117.905 368.16 117.852V119.356ZM369.649 107.98H372.017V109.82H369.649V107.98ZM369.665 119.5V111.324H372.001V119.5H369.665ZM376.119 116.188C376.119 116.721 376.257 117.169 376.535 117.532C376.812 117.884 377.185 118.06 377.655 118.06C378.145 118.06 378.529 117.911 378.807 117.612C379.095 117.303 379.239 116.849 379.239 116.252H381.447C381.447 117.009 381.281 117.644 380.951 118.156C380.631 118.668 380.204 119.047 379.671 119.292C379.137 119.537 378.551 119.66 377.911 119.66H377.655C376.46 119.66 375.511 119.308 374.807 118.604C374.103 117.889 373.751 116.903 373.751 115.644V115.18C373.751 114.348 373.916 113.633 374.247 113.036C374.588 112.428 375.052 111.964 375.639 111.644C376.225 111.324 376.897 111.164 377.655 111.164H377.911C378.54 111.164 379.121 111.303 379.655 111.58C380.199 111.847 380.631 112.241 380.951 112.764C381.281 113.276 381.447 113.884 381.447 114.588H379.127C379.127 114.033 379.004 113.591 378.759 113.26C378.513 112.929 378.151 112.764 377.671 112.764C377.191 112.764 376.812 112.956 376.535 113.34C376.257 113.713 376.119 114.188 376.119 114.764V116.188ZM384.669 117.004C384.669 117.377 384.834 117.649 385.165 117.82C385.495 117.98 385.906 118.06 386.397 118.06C386.823 118.06 387.202 117.996 387.533 117.868C387.874 117.74 388.045 117.537 388.045 117.26C388.045 116.961 387.89 116.748 387.581 116.62C387.271 116.492 386.791 116.38 386.141 116.284C385.458 116.167 384.898 116.039 384.461 115.9C384.023 115.761 383.645 115.521 383.325 115.18C383.015 114.839 382.861 114.364 382.861 113.756C382.861 113.201 383.021 112.732 383.341 112.348C383.671 111.953 384.103 111.66 384.637 111.468C385.181 111.265 385.773 111.164 386.413 111.164H386.733C387.298 111.164 387.831 111.26 388.333 111.452C388.845 111.633 389.255 111.895 389.565 112.236C389.874 112.567 390.029 112.945 390.029 113.372C390.029 113.457 390.023 113.537 390.013 113.612C390.002 113.676 389.997 113.713 389.997 113.724H387.949C387.949 113.084 387.458 112.764 386.477 112.764C386.029 112.764 385.666 112.828 385.389 112.956C385.122 113.084 384.989 113.26 384.989 113.484C384.989 113.751 385.133 113.937 385.421 114.044C385.719 114.151 386.183 114.252 386.813 114.348C387.527 114.465 388.103 114.593 388.541 114.732C388.989 114.86 389.378 115.1 389.709 115.452C390.039 115.793 390.205 116.279 390.205 116.908C390.205 117.879 389.863 118.583 389.181 119.02C388.498 119.447 387.629 119.66 386.573 119.66H386.045C385.383 119.66 384.791 119.559 384.269 119.356C383.746 119.153 383.335 118.865 383.037 118.492C382.749 118.119 382.605 117.692 382.605 117.212L382.621 116.892H384.669V117.004Z" fill="#209FA0"/>
<rect x="280" y="277.5" width="24" height="6" rx="3" fill="#B4B6C4"/>
<rect x="326" y="277.5" width="24" height="6" rx="3" fill="#B4B6C4"/>
<rect x="372" y="277.5" width="24" height="6" rx="3" fill="#B4B6C4"/>
<rect x="418" y="277.5" width="24" height="6" rx="3" fill="#B4B6C4"/>
<rect x="464" y="277.5" width="24" height="6" rx="3" fill="#B4B6C4"/>
<line opacity="0.2" x1="280.5" y1="233" x2="488.5" y2="233" stroke="#B4B6C4" stroke-linecap="round"/>
<line opacity="0.2" x1="280.5" y1="205" x2="488.5" y2="205" stroke="#B4B6C4" stroke-linecap="round"/>
<line opacity="0.2" x1="280.5" y1="177" x2="488.5" y2="177" stroke="#B4B6C4" stroke-linecap="round"/>
<line opacity="0.2" x1="280.5" y1="149" x2="488.5" y2="149" stroke="#B4B6C4" stroke-linecap="round"/>
<line opacity="0.2" x1="280.5" y1="261" x2="488.5" y2="261" stroke="#B4B6C4" stroke-linecap="round"/>
<rect x="281" y="182.5" width="16" height="78" fill="#456B6B"/>
<rect x="409" y="163.5" width="16" height="97" fill="#456B6B"/>
<rect x="345" y="205.5" width="16" height="55" fill="#456B6B"/>
<rect x="473" y="187.5" width="16" height="73" fill="#456B6B"/>
<rect x="377" y="193.5" width="16" height="67" fill="#FFDC60"/>
<rect x="313" y="207.5" width="16" height="53" fill="#FFDC60"/>
<rect x="441" y="174.5" width="16" height="86" fill="#FFDC60"/>
<path d="M281.5 179C293.631 147.581 305.142 207.5 320.5 207.5C333.855 207.5 338.48 184.049 350.5 184.049C358.513 184.049 364.02 194.089 373 194C381.98 193.91 378 177.5 393.5 192.5C408.377 206.897 404.314 146.521 417.002 146.521C427.018 146.521 423.011 171.767 438.37 171.767C450.389 171.767 452.393 153.345 463.077 153.345C475.764 153.345 467.083 184.049 486.448 184.049" stroke="#456B6B" stroke-width="2" stroke-linecap="round" stroke-linejoin="round"/>
<g filter="url(#filter1_d_514_4935)">
<rect x="38" y="335.5" width="388" height="150" rx="6" fill="white"/>
</g>
<circle cx="377" cy="433.5" r="25" fill="#456B6B"/>
<circle cx="341" cy="433.5" r="25" fill="#FFDC60"/>
<circle cx="305" cy="433.5" r="25" fill="#456B6B"/>
<circle cx="269" cy="433.5" r="25" fill="#FFDC60"/>
<path d="M69.7824 450.823C69.3797 450.392 68.6202 450.392 68.2176 450.823L64.2255 455.086C63.6938 455.654 64.162 456.5 65.0079 456.5L72.9921 456.5C73.838 456.5 74.3062 455.654 73.7745 455.086L69.7824 450.823Z" fill="#456B6B"/>
<path d="M87.312 450.756C87.9187 450.756 88.46 450.868 88.936 451.092C89.412 451.316 89.7807 451.629 90.042 452.03C90.3033 452.422 90.434 452.865 90.434 453.36C90.434 453.892 90.2987 454.331 90.028 454.676C89.7667 455.012 89.3933 455.292 88.908 455.516L88.922 455.558C89.454 455.726 89.874 456.011 90.182 456.412C90.4993 456.804 90.658 457.308 90.658 457.924C90.658 458.447 90.5133 458.913 90.224 459.324C89.9347 459.735 89.5333 460.057 89.02 460.29C88.5067 460.523 87.9373 460.64 87.312 460.64H87.144C86.1267 460.64 85.3147 460.388 84.708 459.884C84.1107 459.371 83.812 458.671 83.812 457.784V457.672H85.184V457.826C85.184 458.339 85.3567 458.731 85.702 459.002C86.0473 459.263 86.542 459.394 87.186 459.394C87.8487 459.394 88.362 459.263 88.726 459.002C89.0993 458.731 89.286 458.325 89.286 457.784C89.286 456.757 88.5673 456.244 87.13 456.244H86.08V454.984H87.158C87.7273 454.984 88.1847 454.853 88.53 454.592C88.8847 454.331 89.062 453.957 89.062 453.472C89.062 452.996 88.8893 452.632 88.544 452.38C88.208 452.128 87.7553 452.002 87.186 452.002C86.654 452.002 86.2247 452.133 85.898 452.394C85.5713 452.655 85.408 453.019 85.408 453.486V453.612H84.036V453.36C84.036 452.847 84.1713 452.394 84.442 452.002C84.722 451.601 85.1 451.293 85.576 451.078C86.0613 450.863 86.598 450.756 87.186 450.756H87.312ZM96.0373 450.756C96.7093 450.756 97.2786 450.891 97.7453 451.162C98.2119 451.433 98.5619 451.783 98.7953 452.212C99.0286 452.641 99.1453 453.094 99.1453 453.57C99.1453 454.242 99.0099 454.793 98.7393 455.222C98.4686 455.651 98.0346 456.095 97.4373 456.552L94.7633 458.596C94.5486 458.745 94.3806 458.881 94.2593 459.002C94.1473 459.114 94.0913 459.198 94.0913 459.254H99.1873V460.5H92.5933V460.164C92.5933 459.688 92.7053 459.235 92.9293 458.806C93.1626 458.367 93.4846 457.994 93.8953 457.686L96.6813 455.586C97.0733 455.269 97.3533 454.956 97.5213 454.648C97.6893 454.34 97.7733 453.999 97.7733 453.626C97.7733 453.346 97.7033 453.085 97.5633 452.842C97.4233 452.59 97.2179 452.389 96.9473 452.24C96.6766 452.081 96.3499 452.002 95.9673 452.002C95.5753 452.002 95.2253 452.086 94.9173 452.254C94.6186 452.422 94.3853 452.646 94.2173 452.926C94.0493 453.206 93.9653 453.514 93.9653 453.85V454.046C93.9653 454.121 93.9699 454.177 93.9793 454.214H92.6073L92.5933 454.074V453.962C92.5933 453.421 92.7146 452.907 92.9573 452.422C93.1999 451.927 93.5779 451.526 94.0913 451.218C94.6046 450.91 95.2533 450.756 96.0373 450.756ZM108.529 450.896L102.705 460.5H101.725L107.577 450.896H108.529ZM102.439 450.91C102.933 450.91 103.339 451.073 103.657 451.4C103.974 451.717 104.133 452.119 104.133 452.604V454.102C104.133 454.587 103.969 454.993 103.643 455.32C103.325 455.637 102.924 455.796 102.439 455.796H102.341C101.855 455.796 101.449 455.637 101.123 455.32C100.805 454.993 100.647 454.587 100.647 454.102V452.604C100.647 452.119 100.805 451.717 101.123 451.4C101.44 451.073 101.846 450.91 102.341 450.91H102.439ZM102.397 451.68C102.135 451.68 101.925 451.759 101.767 451.918C101.617 452.067 101.543 452.263 101.543 452.506V454.2C101.543 454.443 101.617 454.643 101.767 454.802C101.925 454.951 102.135 455.026 102.397 455.026C102.658 455.026 102.863 454.951 103.013 454.802C103.162 454.643 103.237 454.443 103.237 454.2V452.506C103.237 452.263 103.162 452.067 103.013 451.918C102.863 451.759 102.658 451.68 102.397 451.68ZM107.899 455.628C108.384 455.628 108.785 455.791 109.103 456.118C109.429 456.435 109.593 456.837 109.593 457.322V458.82C109.593 459.305 109.434 459.711 109.117 460.038C108.799 460.355 108.393 460.514 107.899 460.514H107.801C107.306 460.514 106.9 460.355 106.583 460.038C106.265 459.711 106.107 459.305 106.107 458.82V457.322C106.107 456.837 106.265 456.435 106.583 456.118C106.909 455.791 107.315 455.628 107.801 455.628H107.899ZM107.857 456.398C107.595 456.398 107.385 456.477 107.227 456.636C107.077 456.785 107.003 456.981 107.003 457.224V458.918C107.003 459.161 107.077 459.361 107.227 459.52C107.385 459.669 107.595 459.744 107.857 459.744C108.118 459.744 108.323 459.669 108.473 459.52C108.622 459.361 108.697 459.161 108.697 458.918V457.224C108.697 456.981 108.622 456.785 108.473 456.636C108.323 456.477 108.118 456.398 107.857 456.398ZM116.136 453.346H117.802V454.396H116.136V458.666C116.136 459.002 116.201 459.245 116.332 459.394C116.462 459.543 116.663 459.618 116.934 459.618C117.176 459.618 117.466 459.548 117.802 459.408V460.388C117.466 460.556 117.032 460.64 116.5 460.64C115.949 460.64 115.529 460.477 115.24 460.15C114.96 459.823 114.82 459.305 114.82 458.596V454.396H114.036V453.346H114.862L115.31 451.064H116.136V453.346ZM120.751 454.242C121.339 453.551 122.077 453.206 122.963 453.206C123.747 453.206 124.363 453.416 124.811 453.836C125.259 454.256 125.483 454.872 125.483 455.684V460.5H124.167V455.922C124.167 454.811 123.663 454.256 122.655 454.256C122.319 454.256 122.007 454.345 121.717 454.522C121.428 454.699 121.195 454.942 121.017 455.25C120.84 455.549 120.751 455.88 120.751 456.244V460.5H119.435V450.42H120.751V454.242ZM129.078 450.42V451.638H127.706V450.42H129.078ZM129.05 453.346V460.5H127.734V453.346H129.05ZM134.101 453.206C134.633 453.206 135.104 453.29 135.515 453.458C135.935 453.626 136.257 453.859 136.481 454.158C136.714 454.457 136.831 454.788 136.831 455.152L136.817 455.404H135.515V455.278C135.515 454.597 134.988 454.256 133.933 454.256C132.888 454.256 132.365 454.569 132.365 455.194C132.365 455.483 132.514 455.698 132.813 455.838C133.112 455.969 133.569 456.095 134.185 456.216C134.773 456.337 135.254 456.463 135.627 456.594C136.01 456.725 136.332 456.93 136.593 457.21C136.864 457.49 136.999 457.868 136.999 458.344C136.999 459.109 136.738 459.683 136.215 460.066C135.692 460.449 134.941 460.64 133.961 460.64H133.751C133.163 460.64 132.65 460.551 132.211 460.374C131.772 460.187 131.432 459.94 131.189 459.632C130.956 459.315 130.844 458.96 130.853 458.568V458.26H132.155V458.4C132.155 459.193 132.822 459.59 134.157 459.59C134.549 459.59 134.899 459.501 135.207 459.324C135.524 459.147 135.683 458.904 135.683 458.596C135.683 458.335 135.594 458.129 135.417 457.98C135.249 457.831 135.039 457.719 134.787 457.644C134.535 457.569 134.185 457.495 133.737 457.42C133.158 457.308 132.692 457.196 132.337 457.084C131.982 456.963 131.679 456.762 131.427 456.482C131.175 456.202 131.049 455.819 131.049 455.334C131.049 454.671 131.31 454.153 131.833 453.78C132.356 453.397 133.07 453.206 133.975 453.206H134.101ZM149.813 453.206C150.551 453.206 151.125 453.421 151.535 453.85C151.946 454.279 152.151 454.891 152.151 455.684V460.5H150.835V455.922C150.835 454.811 150.406 454.256 149.547 454.256C149.249 454.256 148.969 454.345 148.707 454.522C148.455 454.699 148.25 454.942 148.091 455.25C147.942 455.549 147.867 455.88 147.867 456.244V460.5H146.551V455.922C146.551 454.811 146.122 454.256 145.263 454.256C144.965 454.256 144.685 454.345 144.423 454.522C144.171 454.699 143.966 454.942 143.807 455.25C143.658 455.549 143.583 455.88 143.583 456.244V460.5H142.267V453.346H143.219L143.401 454.396C143.943 453.603 144.694 453.206 145.655 453.206C146.598 453.206 147.251 453.603 147.615 454.396C147.933 453.948 148.273 453.64 148.637 453.472C149.001 453.295 149.393 453.206 149.813 453.206ZM157.264 453.206C158.263 453.206 159.061 453.514 159.658 454.13C160.255 454.746 160.554 455.591 160.554 456.664V457.182C160.554 458.255 160.26 459.1 159.672 459.716C159.084 460.332 158.281 460.64 157.264 460.64C156.247 460.64 155.444 460.332 154.856 459.716C154.268 459.1 153.974 458.255 153.974 457.182V456.664C153.974 455.591 154.273 454.746 154.87 454.13C155.467 453.514 156.265 453.206 157.264 453.206ZM157.264 454.256C156.639 454.256 156.153 454.471 155.808 454.9C155.463 455.329 155.29 455.959 155.29 456.79V457.056C155.29 457.868 155.458 458.493 155.794 458.932C156.139 459.371 156.629 459.59 157.264 459.59C157.88 459.59 158.361 459.375 158.706 458.946C159.061 458.507 159.238 457.877 159.238 457.056V456.79C159.238 455.978 159.065 455.353 158.72 454.914C158.384 454.475 157.899 454.256 157.264 454.256ZM165.975 453.206C166.759 453.206 167.375 453.416 167.823 453.836C168.271 454.256 168.495 454.872 168.495 455.684V460.5H167.179V455.922C167.179 454.811 166.675 454.256 165.667 454.256C165.331 454.256 165.018 454.345 164.729 454.522C164.44 454.699 164.206 454.942 164.029 455.25C163.852 455.549 163.763 455.88 163.763 456.244V460.5H162.447V453.346H163.399L163.581 454.396C164.178 453.603 164.976 453.206 165.975 453.206ZM172.218 453.346H173.884V454.396H172.218V458.666C172.218 459.002 172.283 459.245 172.414 459.394C172.544 459.543 172.745 459.618 173.016 459.618C173.258 459.618 173.548 459.548 173.884 459.408V460.388C173.548 460.556 173.114 460.64 172.582 460.64C172.031 460.64 171.611 460.477 171.322 460.15C171.042 459.823 170.902 459.305 170.902 458.596V454.396H170.118V453.346H170.944L171.392 451.064H172.218V453.346ZM176.833 454.242C177.421 453.551 178.159 453.206 179.045 453.206C179.829 453.206 180.445 453.416 180.893 453.836C181.341 454.256 181.565 454.872 181.565 455.684V460.5H180.249V455.922C180.249 454.811 179.745 454.256 178.737 454.256C178.401 454.256 178.089 454.345 177.799 454.522C177.51 454.699 177.277 454.942 177.099 455.25C176.922 455.549 176.833 455.88 176.833 456.244V460.5H175.517V450.42H176.833V454.242Z" fill="#456B6B"/>
<path d="M66.352 366.444C66.2347 366.273 66.0747 366.023 65.872 365.692C65.6693 365.351 65.536 365.127 65.472 365.02L65.408 365.068V371.5H63.152V360.524H65.248L68.704 365.612L69.184 366.364C69.3547 366.663 69.488 366.881 69.584 367.02L69.632 366.972V360.524H71.888V371.5H69.792L66.352 366.444ZM81.7025 368.444C81.7025 369.159 81.5318 369.761 81.1905 370.252C80.8492 370.732 80.3958 371.089 79.8305 371.324C79.2758 371.548 78.6678 371.66 78.0065 371.66H77.7505C76.9932 371.66 76.3105 371.5 75.7025 371.18C75.0945 370.86 74.6145 370.401 74.2625 369.804C73.9212 369.196 73.7505 368.476 73.7505 367.644V367.18C73.7505 366.359 73.9265 365.644 74.2785 365.036C74.6305 364.428 75.1052 363.964 75.7025 363.644C76.3105 363.324 76.9932 363.164 77.7505 363.164H78.0065C78.6678 363.164 79.2812 363.303 79.8465 363.58C80.4118 363.847 80.8652 364.241 81.2065 364.764C81.5478 365.276 81.7185 365.884 81.7185 366.588V367.804H76.1185V368.188C76.1185 368.721 76.2732 369.169 76.5825 369.532C76.9025 369.884 77.3345 370.06 77.8785 370.06C78.3692 370.06 78.7532 369.927 79.0305 369.66C79.3185 369.383 79.4625 368.977 79.4625 368.444H81.7025ZM77.7665 364.764C77.2972 364.764 76.9132 364.929 76.6145 365.26C76.3265 365.591 76.1612 366.012 76.1185 366.524H79.3505C79.3505 365.98 79.2225 365.553 78.9665 365.244C78.7212 364.924 78.3212 364.764 77.7665 364.764ZM88.9183 366.94C88.3423 368.967 87.9049 370.487 87.6063 371.5H84.9983L82.5023 363.324H84.9183L86.3263 368.38H86.4223C86.6996 367.399 86.9129 366.663 87.0623 366.172L87.8783 363.324H90.2143L91.6383 368.38H91.7343C92.3743 366.14 92.8489 364.455 93.1583 363.324H95.4303L92.9343 371.5H90.3583L89.0143 366.94H88.9183ZM106.007 363.628C106.007 363.223 105.847 362.908 105.527 362.684C105.207 362.449 104.764 362.332 104.199 362.332C103.612 362.332 103.154 362.428 102.823 362.62C102.503 362.801 102.343 363.047 102.343 363.356C102.343 363.623 102.444 363.847 102.647 364.028C102.85 364.199 103.106 364.337 103.415 364.444C103.735 364.551 104.167 364.668 104.711 364.796C105.511 364.988 106.167 365.185 106.679 365.388C107.202 365.591 107.644 365.905 108.007 366.332C108.38 366.759 108.567 367.329 108.567 368.044C108.567 369.292 108.162 370.209 107.351 370.796C106.551 371.372 105.447 371.66 104.039 371.66C102.759 371.66 101.698 371.383 100.855 370.828C100.023 370.263 99.6069 369.409 99.6069 368.268L99.6229 367.916H101.959L101.943 368.172C101.943 368.641 102.119 369.015 102.471 369.292C102.823 369.559 103.319 369.692 103.959 369.692C104.706 369.692 105.239 369.575 105.559 369.34C105.89 369.105 106.055 368.807 106.055 368.444C106.055 368.167 105.954 367.943 105.751 367.772C105.559 367.591 105.308 367.452 104.999 367.356C104.7 367.249 104.279 367.132 103.735 367.004C102.924 366.801 102.263 366.599 101.751 366.396C101.239 366.193 100.796 365.868 100.423 365.42C100.05 364.972 99.8629 364.369 99.8629 363.612C99.8629 362.908 100.055 362.311 100.439 361.82C100.823 361.329 101.335 360.967 101.975 360.732C102.626 360.487 103.351 360.364 104.151 360.364C105.378 360.364 106.38 360.636 107.159 361.18C107.938 361.713 108.327 362.513 108.327 363.58V363.772H106.007V363.628ZM117.699 369.58C117.699 369.74 117.747 369.863 117.843 369.948C117.939 370.023 118.046 370.06 118.163 370.06C118.27 370.06 118.387 370.039 118.515 369.996C118.643 369.953 118.744 369.916 118.819 369.884V371.324C118.424 371.548 117.955 371.66 117.411 371.66C116.344 371.66 115.726 371.271 115.555 370.492C114.883 371.271 114.062 371.66 113.091 371.66C112.259 371.66 111.571 371.436 111.027 370.988C110.494 370.54 110.227 369.889 110.227 369.036V363.324H112.563V368.524C112.563 368.94 112.68 369.287 112.915 369.564C113.16 369.831 113.47 369.964 113.843 369.964C114.259 369.964 114.616 369.809 114.915 369.5C115.214 369.18 115.363 368.796 115.363 368.348V363.324H117.699V369.58ZM122.392 364.268C122.627 363.959 122.936 363.697 123.32 363.484C123.715 363.271 124.168 363.164 124.68 363.164C125.277 363.164 125.811 363.319 126.28 363.628C126.76 363.937 127.139 364.401 127.416 365.02C127.693 365.639 127.832 366.391 127.832 367.276V367.452C127.832 368.38 127.683 369.159 127.384 369.788C127.085 370.417 126.68 370.887 126.168 371.196C125.656 371.505 125.08 371.66 124.44 371.66C123.853 371.66 123.331 371.543 122.872 371.308C122.413 371.063 122.029 370.711 121.72 370.252L121.448 370.668C121.341 370.849 121.24 371.009 121.144 371.148C121.048 371.276 120.968 371.393 120.904 371.5H120.056V359.98H122.392V364.268ZM125.464 366.796C125.464 366.167 125.32 365.687 125.032 365.356C124.744 365.025 124.376 364.86 123.928 364.86C123.48 364.86 123.112 365.025 122.824 365.356C122.536 365.687 122.392 366.167 122.392 366.796V368.124C122.392 368.743 122.536 369.223 122.824 369.564C123.112 369.895 123.48 370.06 123.928 370.06C124.376 370.06 124.744 369.895 125.032 369.564C125.32 369.223 125.464 368.743 125.464 368.124V366.796ZM131.044 369.004C131.044 369.377 131.209 369.649 131.54 369.82C131.87 369.98 132.281 370.06 132.772 370.06C133.198 370.06 133.577 369.996 133.908 369.868C134.249 369.74 134.42 369.537 134.42 369.26C134.42 368.961 134.265 368.748 133.956 368.62C133.646 368.492 133.166 368.38 132.516 368.284C131.833 368.167 131.273 368.039 130.836 367.9C130.398 367.761 130.02 367.521 129.7 367.18C129.39 366.839 129.236 366.364 129.236 365.756C129.236 365.201 129.396 364.732 129.716 364.348C130.046 363.953 130.478 363.66 131.012 363.468C131.556 363.265 132.148 363.164 132.788 363.164H133.108C133.673 363.164 134.206 363.26 134.708 363.452C135.22 363.633 135.63 363.895 135.94 364.236C136.249 364.567 136.404 364.945 136.404 365.372C136.404 365.457 136.398 365.537 136.388 365.612C136.377 365.676 136.372 365.713 136.372 365.724H134.324C134.324 365.084 133.833 364.764 132.852 364.764C132.404 364.764 132.041 364.828 131.764 364.956C131.497 365.084 131.364 365.26 131.364 365.484C131.364 365.751 131.508 365.937 131.796 366.044C132.094 366.151 132.558 366.252 133.188 366.348C133.902 366.465 134.478 366.593 134.916 366.732C135.364 366.86 135.753 367.1 136.084 367.452C136.414 367.793 136.58 368.279 136.58 368.908C136.58 369.879 136.238 370.583 135.556 371.02C134.873 371.447 134.004 371.66 132.948 371.66H132.42C131.758 371.66 131.166 371.559 130.644 371.356C130.121 371.153 129.71 370.865 129.412 370.492C129.124 370.119 128.98 369.692 128.98 369.212L128.996 368.892H131.044V369.004ZM140.197 368.188C140.197 368.721 140.335 369.169 140.613 369.532C140.89 369.884 141.263 370.06 141.733 370.06C142.223 370.06 142.607 369.911 142.885 369.612C143.173 369.303 143.317 368.849 143.317 368.252H145.525C145.525 369.009 145.359 369.644 145.029 370.156C144.709 370.668 144.282 371.047 143.749 371.292C143.215 371.537 142.629 371.66 141.989 371.66H141.733C140.538 371.66 139.589 371.308 138.885 370.604C138.181 369.889 137.829 368.903 137.829 367.644V367.18C137.829 366.348 137.994 365.633 138.325 365.036C138.666 364.428 139.13 363.964 139.717 363.644C140.303 363.324 140.975 363.164 141.733 363.164H141.989C142.618 363.164 143.199 363.303 143.733 363.58C144.277 363.847 144.709 364.241 145.029 364.764C145.359 365.276 145.525 365.884 145.525 366.588H143.205C143.205 366.033 143.082 365.591 142.837 365.26C142.591 364.929 142.229 364.764 141.749 364.764C141.269 364.764 140.89 364.956 140.613 365.34C140.335 365.713 140.197 366.188 140.197 366.764V368.188ZM151.867 366.124C151.867 365.793 151.776 365.511 151.595 365.276C151.413 365.031 151.125 364.908 150.731 364.908C150.357 364.908 150.069 365.057 149.867 365.356C149.675 365.644 149.579 366.007 149.579 366.444V371.5H147.275V363.324H149.003L149.291 364.524C149.333 364.407 149.44 364.241 149.611 364.028C149.792 363.815 150.048 363.617 150.379 363.436C150.72 363.255 151.12 363.164 151.579 363.164C152.315 363.164 152.88 363.393 153.275 363.852C153.68 364.311 153.883 364.919 153.883 365.676C153.883 365.836 153.872 365.996 153.851 366.156C153.84 366.316 153.829 366.428 153.819 366.492H151.867V366.124ZM155.087 359.98H157.455V361.82H155.087V359.98ZM155.103 371.5V363.324H157.439V371.5H155.103ZM161.892 364.268C162.127 363.959 162.436 363.697 162.82 363.484C163.215 363.271 163.668 363.164 164.18 363.164C164.777 363.164 165.311 363.319 165.78 363.628C166.26 363.937 166.639 364.401 166.916 365.02C167.193 365.639 167.332 366.391 167.332 367.276V367.452C167.332 368.38 167.183 369.159 166.884 369.788C166.585 370.417 166.18 370.887 165.668 371.196C165.156 371.505 164.58 371.66 163.94 371.66C163.353 371.66 162.831 371.543 162.372 371.308C161.913 371.063 161.529 370.711 161.22 370.252L160.948 370.668C160.841 370.849 160.74 371.009 160.644 371.148C160.548 371.276 160.468 371.393 160.404 371.5H159.556V359.98H161.892V364.268ZM164.964 366.796C164.964 366.167 164.82 365.687 164.532 365.356C164.244 365.025 163.876 364.86 163.428 364.86C162.98 364.86 162.612 365.025 162.324 365.356C162.036 365.687 161.892 366.167 161.892 366.796V368.124C161.892 368.743 162.036 369.223 162.324 369.564C162.612 369.895 162.98 370.06 163.428 370.06C163.876 370.06 164.244 369.895 164.532 369.564C164.82 369.223 164.964 368.743 164.964 368.124V366.796ZM176.656 368.444C176.656 369.159 176.485 369.761 176.144 370.252C175.802 370.732 175.349 371.089 174.784 371.324C174.229 371.548 173.621 371.66 172.96 371.66H172.704C171.946 371.66 171.264 371.5 170.656 371.18C170.048 370.86 169.568 370.401 169.216 369.804C168.874 369.196 168.704 368.476 168.704 367.644V367.18C168.704 366.359 168.88 365.644 169.232 365.036C169.584 364.428 170.058 363.964 170.656 363.644C171.264 363.324 171.946 363.164 172.704 363.164H172.96C173.621 363.164 174.234 363.303 174.8 363.58C175.365 363.847 175.818 364.241 176.16 364.764C176.501 365.276 176.672 365.884 176.672 366.588V367.804H171.072V368.188C171.072 368.721 171.226 369.169 171.536 369.532C171.856 369.884 172.288 370.06 172.832 370.06C173.322 370.06 173.706 369.927 173.984 369.66C174.272 369.383 174.416 368.977 174.416 368.444H176.656ZM172.72 364.764C172.25 364.764 171.866 364.929 171.568 365.26C171.28 365.591 171.114 366.012 171.072 366.524H174.304C174.304 365.98 174.176 365.553 173.92 365.244C173.674 364.924 173.274 364.764 172.72 364.764ZM183.007 366.124C183.007 365.793 182.917 365.511 182.735 365.276C182.554 365.031 182.266 364.908 181.871 364.908C181.498 364.908 181.21 365.057 181.007 365.356C180.815 365.644 180.719 366.007 180.719 366.444V371.5H178.415V363.324H180.143L180.431 364.524C180.474 364.407 180.581 364.241 180.751 364.028C180.933 363.815 181.189 363.617 181.519 363.436C181.861 363.255 182.261 363.164 182.719 363.164C183.455 363.164 184.021 363.393 184.415 363.852C184.821 364.311 185.023 364.919 185.023 365.676C185.023 365.836 185.013 365.996 184.991 366.156C184.981 366.316 184.97 366.428 184.959 366.492H183.007V366.124ZM187.716 369.004C187.716 369.377 187.881 369.649 188.212 369.82C188.542 369.98 188.953 370.06 189.444 370.06C189.87 370.06 190.249 369.996 190.58 369.868C190.921 369.74 191.092 369.537 191.092 369.26C191.092 368.961 190.937 368.748 190.628 368.62C190.318 368.492 189.838 368.38 189.188 368.284C188.505 368.167 187.945 368.039 187.508 367.9C187.07 367.761 186.692 367.521 186.372 367.18C186.062 366.839 185.908 366.364 185.908 365.756C185.908 365.201 186.068 364.732 186.388 364.348C186.718 363.953 187.15 363.66 187.684 363.468C188.228 363.265 188.82 363.164 189.46 363.164H189.78C190.345 363.164 190.878 363.26 191.38 363.452C191.892 363.633 192.302 363.895 192.612 364.236C192.921 364.567 193.076 364.945 193.076 365.372C193.076 365.457 193.07 365.537 193.06 365.612C193.049 365.676 193.044 365.713 193.044 365.724H190.996C190.996 365.084 190.505 364.764 189.524 364.764C189.076 364.764 188.713 364.828 188.436 364.956C188.169 365.084 188.036 365.26 188.036 365.484C188.036 365.751 188.18 365.937 188.468 366.044C188.766 366.151 189.23 366.252 189.86 366.348C190.574 366.465 191.15 366.593 191.588 366.732C192.036 366.86 192.425 367.1 192.756 367.452C193.086 367.793 193.252 368.279 193.252 368.908C193.252 369.879 192.91 370.583 192.228 371.02C191.545 371.447 190.676 371.66 189.62 371.66H189.092C188.43 371.66 187.838 371.559 187.316 371.356C186.793 371.153 186.382 370.865 186.084 370.492C185.796 370.119 185.652 369.692 185.652 369.212L185.668 368.892H187.716V369.004Z" fill="#209FA0"/>
<path d="M72.56 420.26H78.68V423.44H72.56V429.5H69.41V423.44H63.32V420.26H69.41V414.17H72.56V420.26ZM90.0383 416.66C90.5183 415.94 90.9683 415.06 91.3883 414.02C91.8283 412.98 92.1683 412.02 92.4083 411.14H94.3283V421.16H97.0883V424.7H94.3283V429.5H90.0383V424.7H80.9783V421.13C81.9983 419.51 83.0383 417.5 84.0983 415.1C85.1783 412.68 85.9883 410.52 86.5283 408.62H90.7583C90.4583 409.98 89.9183 411.5 89.1383 413.18C88.3583 414.84 87.5183 416.4 86.6183 417.86C85.7383 419.32 84.9783 420.42 84.3383 421.16H90.0383V416.66ZM100.097 428.6C100.097 427.28 100.317 426.24 100.757 425.48C101.217 424.7 101.857 423.99 102.677 423.35L108.527 418.76C109.287 418.18 109.807 417.59 110.087 416.99C110.387 416.37 110.537 415.73 110.537 415.07C110.537 414.33 110.297 413.69 109.817 413.15C109.337 412.59 108.617 412.31 107.657 412.31C106.877 412.31 106.227 412.49 105.707 412.85C105.207 413.19 104.837 413.6 104.597 414.08C104.357 414.56 104.237 414.98 104.237 415.34C104.237 415.7 104.247 415.97 104.267 416.15H100.157C100.137 415.99 100.127 415.8 100.127 415.58C100.127 414.5 100.367 413.44 100.847 412.4C101.327 411.34 102.147 410.45 103.307 409.73C104.467 408.99 105.987 408.62 107.867 408.62H108.317C109.757 408.62 110.987 408.92 112.007 409.52C113.047 410.12 113.827 410.91 114.347 411.89C114.867 412.85 115.127 413.88 115.127 414.98C115.127 416.16 114.897 417.21 114.437 418.13C113.997 419.03 113.227 419.94 112.127 420.86C110.867 421.92 109.347 423.12 107.567 424.46C107.367 424.62 107.117 424.84 106.817 425.12C106.517 425.4 106.367 425.58 106.367 425.66H115.187V429.5H100.097V428.6ZM133.527 422.6C133.527 423.94 133.207 425.16 132.567 426.26C131.927 427.36 131.057 428.23 129.957 428.87C128.857 429.49 127.647 429.8 126.327 429.8H125.457C124.137 429.8 122.927 429.49 121.827 428.87C120.727 428.23 119.857 427.36 119.217 426.26C118.597 425.16 118.287 423.94 118.287 422.6V415.85C118.287 414.51 118.597 413.29 119.217 412.19C119.857 411.09 120.727 410.22 121.827 409.58C122.927 408.94 124.137 408.62 125.457 408.62H126.327C127.647 408.62 128.857 408.94 129.957 409.58C131.057 410.22 131.927 411.09 132.567 412.19C133.207 413.29 133.527 414.51 133.527 415.85V422.6ZM129.087 415.34C129.087 414.44 128.777 413.68 128.157 413.06C127.557 412.44 126.807 412.13 125.907 412.13C125.007 412.13 124.247 412.44 123.627 413.06C123.027 413.68 122.727 414.44 122.727 415.34V423.08C122.727 423.98 123.027 424.74 123.627 425.36C124.247 425.98 125.007 426.29 125.907 426.29C126.807 426.29 127.557 425.98 128.157 425.36C128.777 424.74 129.087 423.98 129.087 423.08V415.34ZM137.496 425.87H142.476V414.08H137.466V411.41C138.586 411.33 139.856 411.05 141.276 410.57C142.696 410.07 144.036 409.47 145.296 408.77H146.886V425.87H151.776V429.5H137.496V425.87Z" fill="#209FA0"/>
<g filter="url(#filter2_d_514_4935)">
<g filter="url(#filter3_d_514_4935)">
<rect x="458.912" y="335.483" width="76" height="76" rx="6" fill="white"/>
</g>
<path d="M553.18 346.889L506.1 391.485L489.814 363.162L436.256 400.536M553.18 346.889L535.592 346.895M553.18 346.889L551.733 364.179" stroke="#FFD43D" stroke-width="3" stroke-linecap="round" stroke-linejoin="round"/>
</g>
<g filter="url(#filter4_d_514_4935)">
<rect x="38" y="123" width="186" height="180" rx="6" fill="white"/>
</g>
<path d="M104.782 262.323C104.38 261.892 103.62 261.892 103.218 262.323L99.2255 266.586C98.6938 267.154 99.162 268 100.008 268L107.992 268C108.838 268 109.306 267.154 108.774 266.586L104.782 262.323Z" fill="#456B6B"/>
<path d="M123.278 268.754H125.798V270H119.386V268.754H121.906V262.23H119.358V261.334C120.469 261.222 121.598 260.909 122.746 260.396H123.278V268.754ZM130.911 260.256C131.826 260.256 132.559 260.499 133.109 260.984C133.669 261.469 133.949 262.118 133.949 262.93C133.949 263.434 133.842 263.845 133.627 264.162C133.422 264.479 133.095 264.773 132.647 265.044V265.1C133.179 265.343 133.581 265.641 133.851 265.996C134.131 266.351 134.271 266.822 134.271 267.41C134.271 268.269 133.977 268.941 133.389 269.426C132.811 269.902 131.985 270.14 130.911 270.14C129.885 270.14 129.068 269.902 128.461 269.426C127.855 268.941 127.551 268.269 127.551 267.41C127.551 266.822 127.691 266.346 127.971 265.982C128.251 265.609 128.653 265.315 129.175 265.1V265.044C128.662 264.727 128.317 264.414 128.139 264.106C127.962 263.798 127.873 263.434 127.873 263.014C127.873 262.118 128.153 261.437 128.713 260.97C129.273 260.494 130.006 260.256 130.911 260.256ZM130.911 261.502C130.407 261.502 130.001 261.642 129.693 261.922C129.395 262.202 129.245 262.557 129.245 262.986C129.245 263.415 129.395 263.77 129.693 264.05C130.001 264.33 130.407 264.47 130.911 264.47C131.415 264.47 131.817 264.33 132.115 264.05C132.423 263.77 132.577 263.415 132.577 262.986C132.577 262.557 132.423 262.202 132.115 261.922C131.817 261.642 131.415 261.502 130.911 261.502ZM130.911 265.716C129.997 265.716 129.385 266.015 129.077 266.612C128.975 266.836 128.923 267.069 128.923 267.312C128.923 267.835 129.11 268.231 129.483 268.502C129.857 268.763 130.333 268.894 130.911 268.894C131.499 268.894 131.975 268.759 132.339 268.488C132.713 268.208 132.899 267.816 132.899 267.312C132.899 266.817 132.717 266.43 132.353 266.15C131.999 265.861 131.518 265.716 130.911 265.716ZM137.607 268.446V269.636L137.117 271.736H136.389L136.767 270H136.193V268.446H137.607ZM142.987 260.256C143.659 260.256 144.228 260.391 144.695 260.662C145.161 260.933 145.511 261.283 145.745 261.712C145.978 262.141 146.095 262.594 146.095 263.07C146.095 263.742 145.959 264.293 145.689 264.722C145.418 265.151 144.984 265.595 144.387 266.052L141.713 268.096C141.498 268.245 141.33 268.381 141.209 268.502C141.097 268.614 141.041 268.698 141.041 268.754H146.137V270H139.543V269.664C139.543 269.188 139.655 268.735 139.879 268.306C140.112 267.867 140.434 267.494 140.845 267.186L143.631 265.086C144.023 264.769 144.303 264.456 144.471 264.148C144.639 263.84 144.723 263.499 144.723 263.126C144.723 262.846 144.653 262.585 144.513 262.342C144.373 262.09 144.167 261.889 143.897 261.74C143.626 261.581 143.299 261.502 142.917 261.502C142.525 261.502 142.175 261.586 141.867 261.754C141.568 261.922 141.335 262.146 141.167 262.426C140.999 262.706 140.915 263.014 140.915 263.35V263.546C140.915 263.621 140.919 263.677 140.929 263.714H139.557L139.543 263.574V263.462C139.543 262.921 139.664 262.407 139.907 261.922C140.149 261.427 140.527 261.026 141.041 260.718C141.554 260.41 142.203 260.256 142.987 260.256ZM152.454 268.754H154.974V270H148.562V268.754H151.082V262.23H148.534V261.334C149.644 261.222 150.774 260.909 151.922 260.396H152.454V268.754ZM164.091 260.396L158.267 270H157.287L163.139 260.396H164.091ZM158.001 260.41C158.496 260.41 158.902 260.573 159.219 260.9C159.536 261.217 159.695 261.619 159.695 262.104V263.602C159.695 264.087 159.532 264.493 159.205 264.82C158.888 265.137 158.486 265.296 158.001 265.296H157.903C157.418 265.296 157.012 265.137 156.685 264.82C156.368 264.493 156.209 264.087 156.209 263.602V262.104C156.209 261.619 156.368 261.217 156.685 260.9C157.002 260.573 157.408 260.41 157.903 260.41H158.001ZM157.959 261.18C157.698 261.18 157.488 261.259 157.329 261.418C157.18 261.567 157.105 261.763 157.105 262.006V263.7C157.105 263.943 157.18 264.143 157.329 264.302C157.488 264.451 157.698 264.526 157.959 264.526C158.22 264.526 158.426 264.451 158.575 264.302C158.724 264.143 158.799 263.943 158.799 263.7V262.006C158.799 261.763 158.724 261.567 158.575 261.418C158.426 261.259 158.22 261.18 157.959 261.18ZM163.461 265.128C163.946 265.128 164.348 265.291 164.665 265.618C164.992 265.935 165.155 266.337 165.155 266.822V268.32C165.155 268.805 164.996 269.211 164.679 269.538C164.362 269.855 163.956 270.014 163.461 270.014H163.363C162.868 270.014 162.462 269.855 162.145 269.538C161.828 269.211 161.669 268.805 161.669 268.32V266.822C161.669 266.337 161.828 265.935 162.145 265.618C162.472 265.291 162.878 265.128 163.363 265.128H163.461ZM163.419 265.898C163.158 265.898 162.948 265.977 162.789 266.136C162.64 266.285 162.565 266.481 162.565 266.724V268.418C162.565 268.661 162.64 268.861 162.789 269.02C162.948 269.169 163.158 269.244 163.419 269.244C163.68 269.244 163.886 269.169 164.035 269.02C164.184 268.861 164.259 268.661 164.259 268.418V266.724C164.259 266.481 164.184 266.285 164.035 266.136C163.886 265.977 163.68 265.898 163.419 265.898Z" fill="#456B6B"/>
<path d="M92.1173 220.024L91.9093 221.448H86.4853V224.68H91.3973V226.104H86.4853V229.576H92.0053L92.2293 231H84.9173V220.024H92.1173ZM98.2897 222.664C99.1857 222.664 99.8897 222.904 100.402 223.384C100.914 223.864 101.17 224.568 101.17 225.496V231H99.6657V225.768C99.6657 224.499 99.0897 223.864 97.9377 223.864C97.5537 223.864 97.1964 223.965 96.8657 224.168C96.535 224.371 96.2684 224.648 96.0657 225C95.863 225.341 95.7617 225.72 95.7617 226.136V231H94.2577V222.824H95.3457L95.5537 224.024C96.2364 223.117 97.1484 222.664 98.2897 222.664ZM111.23 221.352C111.23 221.896 111.086 222.355 110.798 222.728C110.51 223.091 110.11 223.325 109.598 223.432L109.566 223.48C110.099 223.949 110.366 224.536 110.366 225.24C110.366 226.008 110.078 226.627 109.502 227.096C108.926 227.565 108.142 227.8 107.15 227.8H106.062C105.742 227.8 105.475 227.885 105.262 228.056C105.049 228.216 104.942 228.424 104.942 228.68C104.942 228.936 105.043 229.139 105.246 229.288C105.449 229.437 105.721 229.512 106.062 229.512H109.15C109.779 229.512 110.281 229.709 110.654 230.104C111.038 230.499 111.23 231 111.23 231.608C111.23 232.333 110.953 232.915 110.398 233.352C109.854 233.789 109.118 234.008 108.19 234.008H104.974C104.611 234.008 104.275 233.912 103.966 233.72C103.667 233.528 103.427 233.283 103.246 232.984C103.075 232.696 102.99 232.397 102.99 232.088C102.99 231.64 103.097 231.251 103.31 230.92C103.534 230.589 103.827 230.344 104.19 230.184C103.699 229.885 103.454 229.443 103.454 228.856C103.454 228.472 103.566 228.141 103.79 227.864C104.014 227.587 104.329 227.379 104.734 227.24C104.019 226.845 103.662 226.179 103.662 225.24C103.662 224.451 103.95 223.827 104.526 223.368C105.113 222.899 105.923 222.664 106.958 222.664H107.022C107.619 222.664 108.163 222.755 108.654 222.936C109.411 222.563 109.843 222.035 109.95 221.352H111.23ZM107.006 223.864C106.441 223.864 105.987 223.976 105.646 224.2C105.315 224.413 105.15 224.76 105.15 225.24C105.15 225.72 105.315 226.067 105.646 226.28C105.987 226.493 106.441 226.6 107.006 226.6C107.571 226.6 108.025 226.493 108.366 226.28C108.707 226.067 108.878 225.72 108.878 225.24C108.878 224.76 108.707 224.413 108.366 224.2C108.025 223.976 107.571 223.864 107.006 223.864ZM105.406 230.952C105.15 230.952 104.931 231.043 104.75 231.224C104.569 231.405 104.478 231.624 104.478 231.88C104.478 232.136 104.569 232.355 104.75 232.536C104.931 232.717 105.15 232.808 105.406 232.808H108.494C108.835 232.808 109.129 232.707 109.374 232.504C109.619 232.312 109.742 232.088 109.742 231.832C109.742 231.565 109.651 231.352 109.47 231.192C109.289 231.032 109.033 230.952 108.702 230.952H105.406ZM116.052 222.664C117.129 222.664 117.929 222.877 118.452 223.304C118.985 223.731 119.252 224.349 119.252 225.16V229.4C119.252 229.592 119.294 229.736 119.38 229.832C119.465 229.917 119.572 229.96 119.7 229.96C119.945 229.96 120.19 229.885 120.436 229.736V230.84C120.073 231.053 119.662 231.16 119.204 231.16C118.745 231.16 118.404 231.032 118.18 230.776C117.956 230.509 117.833 230.147 117.812 229.688C117.15 230.669 116.196 231.16 114.948 231.16C114.052 231.16 113.38 230.968 112.932 230.584C112.494 230.189 112.276 229.571 112.276 228.728C112.276 228.067 112.446 227.549 112.788 227.176C113.129 226.792 113.694 226.515 114.484 226.344C115.273 226.173 116.361 226.088 117.748 226.088V225.336C117.748 224.792 117.588 224.413 117.268 224.2C116.948 223.976 116.484 223.864 115.876 223.864C115.3 223.864 114.852 223.976 114.532 224.2C114.212 224.424 114.052 224.739 114.052 225.144V225.336H112.58C112.558 225.187 112.548 225.011 112.548 224.808C112.548 224.435 112.697 224.083 112.996 223.752C113.294 223.421 113.7 223.16 114.212 222.968C114.724 222.765 115.289 222.664 115.908 222.664H116.052ZM117.748 227.256C116.628 227.256 115.78 227.315 115.204 227.432C114.638 227.539 114.26 227.704 114.068 227.928C113.876 228.152 113.78 228.461 113.78 228.856C113.78 229.592 114.34 229.96 115.46 229.96C115.854 229.96 116.228 229.864 116.58 229.672C116.932 229.469 117.214 229.187 117.428 228.824C117.641 228.461 117.748 228.045 117.748 227.576V227.256ZM129.683 221.352C129.683 221.896 129.539 222.355 129.251 222.728C128.963 223.091 128.563 223.325 128.051 223.432L128.019 223.48C128.553 223.949 128.819 224.536 128.819 225.24C128.819 226.008 128.531 226.627 127.955 227.096C127.379 227.565 126.595 227.8 125.603 227.8H124.515C124.195 227.8 123.929 227.885 123.715 228.056C123.502 228.216 123.395 228.424 123.395 228.68C123.395 228.936 123.497 229.139 123.699 229.288C123.902 229.437 124.174 229.512 124.515 229.512H127.603C128.233 229.512 128.734 229.709 129.107 230.104C129.491 230.499 129.683 231 129.683 231.608C129.683 232.333 129.406 232.915 128.851 233.352C128.307 233.789 127.571 234.008 126.643 234.008H123.427C123.065 234.008 122.729 233.912 122.419 233.72C122.121 233.528 121.881 233.283 121.699 232.984C121.529 232.696 121.443 232.397 121.443 232.088C121.443 231.64 121.55 231.251 121.763 230.92C121.987 230.589 122.281 230.344 122.643 230.184C122.153 229.885 121.907 229.443 121.907 228.856C121.907 228.472 122.019 228.141 122.243 227.864C122.467 227.587 122.782 227.379 123.187 227.24C122.473 226.845 122.115 226.179 122.115 225.24C122.115 224.451 122.403 223.827 122.979 223.368C123.566 222.899 124.377 222.664 125.411 222.664H125.475C126.073 222.664 126.617 222.755 127.107 222.936C127.865 222.563 128.297 222.035 128.403 221.352H129.683ZM125.459 223.864C124.894 223.864 124.441 223.976 124.099 224.2C123.769 224.413 123.603 224.76 123.603 225.24C123.603 225.72 123.769 226.067 124.099 226.28C124.441 226.493 124.894 226.6 125.459 226.6C126.025 226.6 126.478 226.493 126.819 226.28C127.161 226.067 127.331 225.72 127.331 225.24C127.331 224.76 127.161 224.413 126.819 224.2C126.478 223.976 126.025 223.864 125.459 223.864ZM123.859 230.952C123.603 230.952 123.385 231.043 123.203 231.224C123.022 231.405 122.931 231.624 122.931 231.88C122.931 232.136 123.022 232.355 123.203 232.536C123.385 232.717 123.603 232.808 123.859 232.808H126.947C127.289 232.808 127.582 232.707 127.827 232.504C128.073 232.312 128.195 232.088 128.195 231.832C128.195 231.565 128.105 231.352 127.923 231.192C127.742 231.032 127.486 230.952 127.155 230.952H123.859ZM134.569 222.664C135.241 222.664 135.833 222.808 136.345 223.096C136.868 223.373 137.273 223.773 137.561 224.296C137.849 224.819 137.993 225.427 137.993 226.12V227.256H132.281C132.302 228.12 132.505 228.787 132.889 229.256C133.273 229.725 133.844 229.96 134.601 229.96C135.273 229.96 135.769 229.763 136.089 229.368C136.409 228.973 136.569 228.504 136.569 227.96H137.993C137.993 228.6 137.844 229.16 137.545 229.64C137.257 230.12 136.852 230.493 136.329 230.76C135.817 231.027 135.23 231.16 134.569 231.16H134.505C133.353 231.16 132.441 230.792 131.769 230.056C131.108 229.309 130.777 228.317 130.777 227.08V226.76C130.777 225.949 130.926 225.235 131.225 224.616C131.524 223.997 131.95 223.517 132.505 223.176C133.06 222.835 133.71 222.664 134.457 222.664H134.569ZM134.489 223.864C133.881 223.864 133.385 224.051 133.001 224.424C132.628 224.797 132.398 225.352 132.313 226.088H136.505V225.896C136.505 225.288 136.318 224.797 135.945 224.424C135.582 224.051 135.097 223.864 134.489 223.864ZM148.804 222.664C149.646 222.664 150.302 222.909 150.772 223.4C151.241 223.891 151.476 224.589 151.476 225.496V231H149.972V225.768C149.972 224.499 149.481 223.864 148.5 223.864C148.158 223.864 147.838 223.965 147.54 224.168C147.252 224.371 147.017 224.648 146.836 225C146.665 225.341 146.58 225.72 146.58 226.136V231H145.076V225.768C145.076 224.499 144.585 223.864 143.604 223.864C143.262 223.864 142.942 223.965 142.644 224.168C142.356 224.371 142.121 224.648 141.94 225C141.769 225.341 141.684 225.72 141.684 226.136V231H140.18V222.824H141.268L141.476 224.024C142.094 223.117 142.953 222.664 144.052 222.664C145.129 222.664 145.876 223.117 146.292 224.024C146.654 223.512 147.044 223.16 147.46 222.968C147.876 222.765 148.324 222.664 148.804 222.664ZM157.335 222.664C158.007 222.664 158.599 222.808 159.111 223.096C159.633 223.373 160.039 223.773 160.327 224.296C160.615 224.819 160.759 225.427 160.759 226.12V227.256H155.047C155.068 228.12 155.271 228.787 155.655 229.256C156.039 229.725 156.609 229.96 157.367 229.96C158.039 229.96 158.535 229.763 158.855 229.368C159.175 228.973 159.335 228.504 159.335 227.96H160.759C160.759 228.6 160.609 229.16 160.311 229.64C160.023 230.12 159.617 230.493 159.095 230.76C158.583 231.027 157.996 231.16 157.335 231.16H157.271C156.119 231.16 155.207 230.792 154.535 230.056C153.873 229.309 153.543 228.317 153.543 227.08V226.76C153.543 225.949 153.692 225.235 153.991 224.616C154.289 223.997 154.716 223.517 155.271 223.176C155.825 222.835 156.476 222.664 157.223 222.664H157.335ZM157.255 223.864C156.647 223.864 156.151 224.051 155.767 224.424C155.393 224.797 155.164 225.352 155.079 226.088H159.271V225.896C159.271 225.288 159.084 224.797 158.711 224.424C158.348 224.051 157.863 223.864 157.255 223.864ZM166.977 222.664C167.873 222.664 168.577 222.904 169.089 223.384C169.601 223.864 169.857 224.568 169.857 225.496V231H168.353V225.768C168.353 224.499 167.777 223.864 166.625 223.864C166.241 223.864 165.884 223.965 165.553 224.168C165.223 224.371 164.956 224.648 164.753 225C164.551 225.341 164.449 225.72 164.449 226.136V231H162.945V222.824H164.033L164.241 224.024C164.924 223.117 165.836 222.664 166.977 222.664ZM174.111 222.824H176.015V224.024H174.111V228.904C174.111 229.288 174.186 229.565 174.335 229.736C174.485 229.907 174.714 229.992 175.023 229.992C175.301 229.992 175.631 229.912 176.015 229.752V230.872C175.631 231.064 175.135 231.16 174.527 231.16C173.898 231.16 173.418 230.973 173.087 230.6C172.767 230.227 172.607 229.635 172.607 228.824V224.024H171.711V222.824H172.655L173.167 220.216H174.111V222.824Z" fill="#209FA0"/>
<path d="M91.9507 169.984C88.812 174.003 86.26 178.051 84.2947 182.128C82.3293 186.205 81.3467 190.356 81.3467 194.58C81.3467 195.841 81.3613 196.648 81.3907 197H73.9987C73.9987 192.747 74.9813 188.581 76.9467 184.504C78.912 180.427 81.4053 176.452 84.4267 172.58H70.1267V166.816H91.9507V169.984ZM107.672 171.656C106.381 171.656 105.267 172.096 104.328 172.976C103.389 173.856 102.92 174.941 102.92 176.232V180.5C103.712 179.649 104.651 179.004 105.736 178.564C106.821 178.124 107.936 177.904 109.08 177.904C110.899 177.904 112.541 178.285 114.008 179.048C115.504 179.781 116.677 180.852 117.528 182.26C118.408 183.639 118.848 185.252 118.848 187.1C118.848 189.183 118.364 191.001 117.396 192.556C116.457 194.111 115.152 195.313 113.48 196.164C111.837 197.015 110.004 197.44 107.98 197.44H107.364C105.369 197.44 103.536 197 101.864 196.12C100.192 195.211 98.8721 193.949 97.9041 192.336C96.9361 190.723 96.4521 188.889 96.4521 186.836V176.98C96.4521 175.015 96.9361 173.225 97.9041 171.612C98.8721 169.999 100.177 168.723 101.82 167.784C103.463 166.845 105.267 166.376 107.232 166.376H107.848C109.784 166.376 111.544 166.772 113.128 167.564C114.712 168.356 115.959 169.515 116.868 171.04C117.777 172.536 118.232 174.311 118.232 176.364H112.16C112.16 175.073 111.735 173.973 110.884 173.064C110.063 172.125 108.992 171.656 107.672 171.656ZM112.468 186.968C112.468 185.648 111.999 184.563 111.06 183.712C110.151 182.832 109.007 182.392 107.628 182.392C106.308 182.392 105.193 182.832 104.284 183.712C103.375 184.563 102.92 185.648 102.92 186.968V187.848C102.92 189.168 103.375 190.268 104.284 191.148C105.223 191.999 106.381 192.424 107.76 192.424C109.08 192.424 110.195 191.999 111.104 191.148C112.013 190.268 112.468 189.168 112.468 187.848V186.968ZM123.965 190.532H130.389V197H123.965V190.532ZM153.197 181.688C154.781 182.509 155.969 183.463 156.761 184.548C157.582 185.604 157.993 187.012 157.993 188.772C157.993 191.529 156.995 193.671 155.001 195.196C153.006 196.692 150.263 197.44 146.773 197.44C143.399 197.44 140.686 196.677 138.633 195.152C136.579 193.627 135.553 191.5 135.553 188.772C135.553 187.012 135.949 185.589 136.741 184.504C137.562 183.419 138.765 182.48 140.349 181.688V181.512C139.087 180.661 138.134 179.767 137.489 178.828C136.873 177.889 136.565 176.613 136.565 175C136.565 173.211 137.005 171.671 137.885 170.38C138.765 169.06 139.967 168.063 141.493 167.388C143.047 166.713 144.807 166.376 146.773 166.376C148.738 166.376 150.483 166.713 152.009 167.388C153.563 168.063 154.781 169.06 155.661 170.38C156.541 171.671 156.981 173.211 156.981 175C156.981 176.613 156.658 177.889 156.013 178.828C155.397 179.767 154.458 180.661 153.197 181.512V181.688ZM142.593 175.572C142.593 176.657 142.989 177.581 143.781 178.344C144.573 179.077 145.57 179.444 146.773 179.444C147.975 179.444 148.973 179.077 149.765 178.344C150.557 177.581 150.953 176.657 150.953 175.572V175.088C150.953 174.003 150.557 173.093 149.765 172.36C148.973 171.597 147.975 171.216 146.773 171.216C145.57 171.216 144.573 171.597 143.781 172.36C142.989 173.093 142.593 174.003 142.593 175.088V175.572ZM142.109 188.552C142.109 189.784 142.549 190.767 143.429 191.5C144.309 192.233 145.423 192.6 146.773 192.6C148.122 192.6 149.237 192.233 150.117 191.5C150.997 190.767 151.437 189.784 151.437 188.552V187.848C151.437 186.616 150.997 185.633 150.117 184.9C149.237 184.167 148.122 183.8 146.773 183.8C145.423 183.8 144.309 184.167 143.429 184.9C142.549 185.633 142.109 186.616 142.109 187.848V188.552ZM169.138 197H165.486L183.922 166.816H187.442L169.138 197ZM173.582 176.848C173.582 178.344 173.069 179.62 172.042 180.676C171.015 181.703 169.739 182.216 168.214 182.216H167.554C166.029 182.216 164.753 181.703 163.726 180.676C162.699 179.62 162.186 178.344 162.186 176.848V172.228C162.186 170.732 162.699 169.471 163.726 168.444C164.753 167.388 166.029 166.86 167.554 166.86H168.214C169.739 166.86 171.015 167.388 172.042 168.444C173.069 169.471 173.582 170.732 173.582 172.228V176.848ZM170.018 171.788C170.018 171.172 169.813 170.659 169.402 170.248C169.021 169.837 168.522 169.632 167.906 169.632C167.29 169.632 166.777 169.837 166.366 170.248C165.955 170.659 165.75 171.172 165.75 171.788V177.244C165.75 177.86 165.941 178.373 166.322 178.784C166.733 179.195 167.261 179.4 167.906 179.4C168.522 179.4 169.021 179.195 169.402 178.784C169.813 178.373 170.018 177.86 170.018 177.244V171.788ZM190.742 191.676C190.742 193.172 190.229 194.448 189.202 195.504C188.175 196.531 186.899 197.044 185.374 197.044H184.714C183.189 197.044 181.913 196.531 180.886 195.504C179.859 194.448 179.346 193.172 179.346 191.676V187.056C179.346 185.56 179.859 184.299 180.886 183.272C181.913 182.216 183.189 181.688 184.714 181.688H185.374C186.899 181.688 188.175 182.216 189.202 183.272C190.229 184.299 190.742 185.56 190.742 187.056V191.676ZM187.178 186.66C187.178 186.044 186.973 185.531 186.562 185.12C186.181 184.68 185.682 184.46 185.066 184.46C184.45 184.46 183.937 184.68 183.526 185.12C183.115 185.531 182.91 186.044 182.91 186.66V192.116C182.91 192.732 183.115 193.245 183.526 193.656C183.937 194.067 184.45 194.272 185.066 194.272C185.682 194.272 186.181 194.067 186.562 193.656C186.973 193.245 187.178 192.732 187.178 192.116V186.66Z" fill="#209FA0"/>
<g filter="url(#filter5_d_514_4935)">
<rect x="77" y="37.5" width="110" height="54" rx="6" fill="white"/>
</g>
<path d="M122.283 61.7756L116.332 60.9108L113.672 55.5178C113.599 55.3701 113.48 55.2506 113.332 55.1779C112.962 54.9951 112.512 55.1475 112.327 55.5178L109.667 60.9108L103.716 61.7756C103.552 61.799 103.402 61.8764 103.287 61.9936C103.148 62.1363 103.072 62.3283 103.074 62.5273C103.077 62.7264 103.158 62.9163 103.301 63.0553L107.607 67.2529L106.589 73.1803C106.565 73.3182 106.581 73.46 106.633 73.5896C106.686 73.7193 106.774 73.8316 106.887 73.9138C107 73.996 107.134 74.0449 107.274 74.0549C107.414 74.0648 107.553 74.0355 107.677 73.9701L112.999 71.1717L118.322 73.9701C118.467 74.0475 118.636 74.0732 118.798 74.0451C119.206 73.9748 119.48 73.5881 119.41 73.1803L118.392 67.2529L122.698 63.0553C122.815 62.9404 122.892 62.7904 122.916 62.6264C122.979 62.2162 122.693 61.8365 122.283 61.7756Z" fill="#FFD43D"/>
<path d="M136.37 63.084C136.722 62.556 137.052 61.9107 137.36 61.148C137.683 60.3853 137.932 59.6813 138.108 59.036H139.516V66.384H141.54V68.98H139.516V72.5H136.37V68.98H129.726V66.362C130.474 65.174 131.237 63.7 132.014 61.94C132.806 60.1653 133.4 58.5813 133.796 57.188H136.898C136.678 58.1853 136.282 59.3 135.71 60.532C135.138 61.7493 134.522 62.8933 133.862 63.964C133.217 65.0347 132.659 65.8413 132.19 66.384H136.37V63.084ZM144.583 75.668C144.729 74.964 144.964 73.908 145.287 72.5H143.901V69.266H147.113V71.972L146.189 75.668H144.583ZM158.516 64.844C159.308 65.2547 159.902 65.7313 160.298 66.274C160.709 66.802 160.914 67.506 160.914 68.386C160.914 69.7647 160.416 70.8353 159.418 71.598C158.421 72.346 157.05 72.72 155.304 72.72C153.618 72.72 152.261 72.3387 151.234 71.576C150.208 70.8133 149.694 69.75 149.694 68.386C149.694 67.506 149.892 66.7947 150.288 66.252C150.699 65.7093 151.3 65.24 152.092 64.844V64.756C151.462 64.3307 150.985 63.8833 150.662 63.414C150.354 62.9447 150.2 62.3067 150.2 61.5C150.2 60.6053 150.42 59.8353 150.86 59.19C151.3 58.53 151.902 58.0313 152.664 57.694C153.442 57.3567 154.322 57.188 155.304 57.188C156.287 57.188 157.16 57.3567 157.922 57.694C158.7 58.0313 159.308 58.53 159.748 59.19C160.188 59.8353 160.408 60.6053 160.408 61.5C160.408 62.3067 160.247 62.9447 159.924 63.414C159.616 63.8833 159.147 64.3307 158.516 64.756V64.844ZM153.214 61.786C153.214 62.3287 153.412 62.7907 153.808 63.172C154.204 63.5387 154.703 63.722 155.304 63.722C155.906 63.722 156.404 63.5387 156.8 63.172C157.196 62.7907 157.394 62.3287 157.394 61.786V61.544C157.394 61.0013 157.196 60.5467 156.8 60.18C156.404 59.7987 155.906 59.608 155.304 59.608C154.703 59.608 154.204 59.7987 153.808 60.18C153.412 60.5467 153.214 61.0013 153.214 61.544V61.786ZM152.972 68.276C152.972 68.892 153.192 69.3833 153.632 69.75C154.072 70.1167 154.63 70.3 155.304 70.3C155.979 70.3 156.536 70.1167 156.976 69.75C157.416 69.3833 157.636 68.892 157.636 68.276V67.924C157.636 67.308 157.416 66.8167 156.976 66.45C156.536 66.0833 155.979 65.9 155.304 65.9C154.63 65.9 154.072 66.0833 153.632 66.45C153.192 66.8167 152.972 67.308 152.972 67.924V68.276Z" fill="#FFD43D"/>
<defs>
<filter id="filter0_d_514_4935" x="218" y="53.5" width="333" height="296" filterUnits="userSpaceOnUse" color-interpolation-filters="sRGB">
<feFlood flood-opacity="0" result="BackgroundImageFix"/>
<feColorMatrix in="SourceAlpha" type="matrix" values="0 0 0 0 0 0 0 0 0 0 0 0 0 0 0 0 0 0 127 0" result="hardAlpha"/>
<feMorphology radius="2" operator="erode" in="SourceAlpha" result="effect1_dropShadow_514_4935"/>
<feOffset dy="8"/>
<feGaussianBlur stdDeviation="20"/>
<feColorMatrix type="matrix" values="0 0 0 0 0.0235294 0 0 0 0 0.0470588 0 0 0 0 0.231373 0 0 0 0.08 0"/>
<feBlend mode="normal" in2="BackgroundImageFix" result="effect1_dropShadow_514_4935"/>
<feBlend mode="normal" in="SourceGraphic" in2="effect1_dropShadow_514_4935" result="shape"/>
</filter>
<filter id="filter1_d_514_4935" x="0" y="305.5" width="464" height="226" filterUnits="userSpaceOnUse" color-interpolation-filters="sRGB">
<feFlood flood-opacity="0" result="BackgroundImageFix"/>
<feColorMatrix in="SourceAlpha" type="matrix" values="0 0 0 0 0 0 0 0 0 0 0 0 0 0 0 0 0 0 127 0" result="hardAlpha"/>
<feMorphology radius="2" operator="erode" in="SourceAlpha" result="effect1_dropShadow_514_4935"/>
<feOffset dy="8"/>
<feGaussianBlur stdDeviation="20"/>
<feColorMatrix type="matrix" values="0 0 0 0 0.0235294 0 0 0 0 0.0470588 0 0 0 0 0.231373 0 0 0 0.08 0"/>
<feBlend mode="normal" in2="BackgroundImageFix" result="effect1_dropShadow_514_4935"/>
<feBlend mode="normal" in="SourceGraphic" in2="effect1_dropShadow_514_4935" result="shape"/>
</filter>
<filter id="filter2_d_514_4935" x="414.756" y="314.5" width="162.244" height="128.651" filterUnits="userSpaceOnUse" color-interpolation-filters="sRGB">
<feFlood flood-opacity="0" result="BackgroundImageFix"/>
<feColorMatrix in="SourceAlpha" type="matrix" values="0 0 0 0 0 0 0 0 0 0 0 0 0 0 0 0 0 0 127 0" result="hardAlpha"/>
<feOffset dy="6"/>
<feGaussianBlur stdDeviation="10"/>
<feColorMatrix type="matrix" values="0 0 0 0 0.11 0 0 0 0 0.14137 0 0 0 0 0.4125 0 0 0 0.05 0"/>
<feBlend mode="normal" in2="BackgroundImageFix" result="effect1_dropShadow_514_4935"/>
<feBlend mode="normal" in="SourceGraphic" in2="effect1_dropShadow_514_4935" result="shape"/>
</filter>
<filter id="filter3_d_514_4935" x="420.912" y="305.483" width="152" height="152" filterUnits="userSpaceOnUse" color-interpolation-filters="sRGB">
<feFlood flood-opacity="0" result="BackgroundImageFix"/>
<feColorMatrix in="SourceAlpha" type="matrix" values="0 0 0 0 0 0 0 0 0 0 0 0 0 0 0 0 0 0 127 0" result="hardAlpha"/>
<feMorphology radius="2" operator="erode" in="SourceAlpha" result="effect1_dropShadow_514_4935"/>
<feOffset dy="8"/>
<feGaussianBlur stdDeviation="20"/>
<feColorMatrix type="matrix" values="0 0 0 0 0.0235294 0 0 0 0 0.0470588 0 0 0 0 0.231373 0 0 0 0.08 0"/>
<feBlend mode="normal" in2="BackgroundImageFix" result="effect1_dropShadow_514_4935"/>
<feBlend mode="normal" in="SourceGraphic" in2="effect1_dropShadow_514_4935" result="shape"/>
</filter>
<filter id="filter4_d_514_4935" x="0" y="93" width="262" height="256" filterUnits="userSpaceOnUse" color-interpolation-filters="sRGB">
<feFlood flood-opacity="0" result="BackgroundImageFix"/>
<feColorMatrix in="SourceAlpha" type="matrix" values="0 0 0 0 0 0 0 0 0 0 0 0 0 0 0 0 0 0 127 0" result="hardAlpha"/>
<feMorphology radius="2" operator="erode" in="SourceAlpha" result="effect1_dropShadow_514_4935"/>
<feOffset dy="8"/>
<feGaussianBlur stdDeviation="20"/>
<feColorMatrix type="matrix" values="0 0 0 0 0.0235294 0 0 0 0 0.0470588 0 0 0 0 0.231373 0 0 0 0.08 0"/>
<feBlend mode="normal" in2="BackgroundImageFix" result="effect1_dropShadow_514_4935"/>
<feBlend mode="normal" in="SourceGraphic" in2="effect1_dropShadow_514_4935" result="shape"/>
</filter>
<filter id="filter5_d_514_4935" x="39" y="7.5" width="186" height="130" filterUnits="userSpaceOnUse" color-interpolation-filters="sRGB">
<feFlood flood-opacity="0" result="BackgroundImageFix"/>
<feColorMatrix in="SourceAlpha" type="matrix" values="0 0 0 0 0 0 0 0 0 0 0 0 0 0 0 0 0 0 127 0" result="hardAlpha"/>
<feMorphology radius="2" operator="erode" in="SourceAlpha" result="effect1_dropShadow_514_4935"/>
<feOffset dy="8"/>
<feGaussianBlur stdDeviation="20"/>
<feColorMatrix type="matrix" values="0 0 0 0 0.0235294 0 0 0 0 0.0470588 0 0 0 0 0.231373 0 0 0 0.08 0"/>
<feBlend mode="normal" in2="BackgroundImageFix" result="effect1_dropShadow_514_4935"/>
<feBlend mode="normal" in="SourceGraphic" in2="effect1_dropShadow_514_4935" result="shape"/>
</filter>
</defs>
</svg>
