<svg width="404" height="402" viewBox="0 0 404 402" fill="none" xmlns="http://www.w3.org/2000/svg">
<g opacity="0.5">
<rect width="36" height="36" transform="matrix(4.37114e-08 -1 -1 -4.37114e-08 116 136)" fill="#20A2A2"/>
<rect x="136" y="346" width="56" height="56" transform="rotate(90 136 346)" fill="#20A2A2"/>
<rect x="80" y="304" width="42" height="42" transform="rotate(90 80 304)" fill="#20A2A2"/>
<rect x="296" y="184" width="84" height="84" transform="rotate(-180 296 184)" fill="#20A2A2"/>
<rect x="396" y="100" width="100" height="100" transform="rotate(-180 396 100)" fill="#20A2A2"/>
<rect x="212" y="66" width="66" height="66" transform="rotate(-180 212 66)" fill="#20A2A2"/>
<rect width="74" height="74" transform="matrix(4.37114e-08 -1 -1 -4.37114e-08 212 304)" fill="#20A2A2"/>
<rect width="20" height="20" transform="matrix(4.37114e-08 -1 -1 -4.37114e-08 158 204)" fill="#20A2A2"/>
<rect width="30" height="30" transform="matrix(4.37114e-08 -1 -1 -4.37114e-08 269 376)" fill="#20A2A2"/>
<rect width="40" height="40" transform="matrix(4.37114e-08 -1 -1 -4.37114e-08 392 326)" fill="#20A2A2"/>
<rect width="20" height="20" transform="matrix(4.37114e-08 -1 -1 -4.37114e-08 392 250)" fill="#20A2A2"/>
<rect width="56" height="56" transform="matrix(4.37114e-08 -1 -1 -4.37114e-08 352 286)" fill="#20A2A2"/>
</g>
<g filter="url(#filter0_d_524_3525)">
<rect x="103.164" y="101.737" width="223.295" height="185.066" rx="5.21311" fill="white"/>
</g>
<path d="M127.767 123.366C128.407 123.366 128.986 123.501 129.506 123.772C130.033 124.044 130.451 124.439 130.76 124.958C131.068 125.478 131.223 126.092 131.223 126.8V127.681C131.223 128.388 131.068 129.002 130.76 129.522C130.451 130.041 130.033 130.437 129.506 130.708C128.986 130.979 128.407 131.114 127.767 131.114H124.83V123.366H127.767ZM126.581 129.725H127.767C128.248 129.725 128.64 129.571 128.941 129.262C129.242 128.946 129.393 128.501 129.393 127.929V126.551C129.393 125.979 129.242 125.538 128.941 125.23C128.64 124.913 128.248 124.755 127.767 124.755H126.581V129.725ZM136.041 127.217C136.041 126.961 135.958 126.754 135.792 126.596C135.634 126.438 135.374 126.359 135.013 126.359C134.802 126.359 134.621 126.397 134.471 126.472C134.32 126.54 134.203 126.626 134.121 126.732C134.045 126.837 134.008 126.935 134.008 127.025V127.116H132.415C132.4 127.025 132.392 126.958 132.392 126.912C132.392 126.589 132.498 126.299 132.709 126.043C132.927 125.787 133.228 125.587 133.612 125.444C133.996 125.301 134.437 125.23 134.934 125.23H135.171C135.984 125.23 136.602 125.391 137.023 125.715C137.445 126.031 137.656 126.468 137.656 127.025V129.691C137.656 129.827 137.686 129.928 137.746 129.996C137.814 130.064 137.893 130.098 137.983 130.098C138.059 130.098 138.142 130.083 138.232 130.053C138.322 130.022 138.394 129.996 138.447 129.973V130.99C138.168 131.148 137.837 131.227 137.453 131.227C137.038 131.227 136.722 131.144 136.504 130.979C136.285 130.806 136.157 130.565 136.12 130.256C135.593 130.903 134.945 131.227 134.177 131.227C133.605 131.227 133.134 131.11 132.765 130.877C132.396 130.644 132.212 130.199 132.212 129.544C132.212 129.01 132.362 128.603 132.664 128.324C132.972 128.038 133.398 127.846 133.94 127.748C134.482 127.65 135.182 127.601 136.041 127.601V127.217ZM136.041 128.528C135.325 128.528 134.791 128.599 134.437 128.742C134.09 128.878 133.917 129.104 133.917 129.42C133.917 129.668 133.985 129.845 134.121 129.951C134.264 130.049 134.478 130.098 134.764 130.098C134.96 130.098 135.156 130.045 135.352 129.94C135.548 129.834 135.709 129.684 135.837 129.488C135.973 129.292 136.041 129.074 136.041 128.833V128.528ZM142.385 131.013C142.234 131.073 142.035 131.122 141.786 131.159C141.545 131.205 141.33 131.227 141.142 131.227C140.562 131.227 140.126 131.103 139.832 130.854C139.538 130.606 139.392 130.192 139.392 129.612V126.472H138.759V125.342H139.448L140.024 123.501H141.041V125.342H142.385V126.472H141.041V129.33C141.041 129.631 141.097 129.834 141.21 129.94C141.33 130.045 141.489 130.098 141.684 130.098C141.775 130.098 141.891 130.083 142.035 130.053C142.178 130.022 142.294 129.989 142.385 129.951V131.013ZM146.983 127.217C146.983 126.961 146.9 126.754 146.734 126.596C146.576 126.438 146.316 126.359 145.955 126.359C145.744 126.359 145.563 126.397 145.413 126.472C145.262 126.54 145.146 126.626 145.063 126.732C144.987 126.837 144.95 126.935 144.95 127.025V127.116H143.357C143.342 127.025 143.335 126.958 143.335 126.912C143.335 126.589 143.44 126.299 143.651 126.043C143.869 125.787 144.17 125.587 144.554 125.444C144.938 125.301 145.379 125.23 145.876 125.23H146.113C146.926 125.23 147.544 125.391 147.966 125.715C148.387 126.031 148.598 126.468 148.598 127.025V129.691C148.598 129.827 148.628 129.928 148.688 129.996C148.756 130.064 148.835 130.098 148.926 130.098C149.001 130.098 149.084 130.083 149.174 130.053C149.264 130.022 149.336 129.996 149.389 129.973V130.99C149.11 131.148 148.779 131.227 148.395 131.227C147.981 131.227 147.664 131.144 147.446 130.979C147.228 130.806 147.1 130.565 147.062 130.256C146.535 130.903 145.887 131.227 145.119 131.227C144.547 131.227 144.076 131.11 143.707 130.877C143.338 130.644 143.154 130.199 143.154 129.544C143.154 129.01 143.304 128.603 143.606 128.324C143.914 128.038 144.34 127.846 144.882 127.748C145.424 127.65 146.124 127.601 146.983 127.601V127.217ZM146.983 128.528C146.268 128.528 145.733 128.599 145.379 128.742C145.033 128.878 144.859 129.104 144.859 129.42C144.859 129.668 144.927 129.845 145.063 129.951C145.206 130.049 145.42 130.098 145.707 130.098C145.902 130.098 146.098 130.045 146.294 129.94C146.49 129.834 146.652 129.684 146.78 129.488C146.915 129.292 146.983 129.074 146.983 128.833V128.528ZM157.266 129.589H154.182L153.64 131.114H151.957L154.769 123.366H156.848L159.66 131.114H157.83L157.266 129.589ZM154.657 128.268H156.803C156.516 127.417 156.17 126.404 155.763 125.23H155.707L154.657 128.268ZM161.835 126.19C162.309 125.55 162.923 125.23 163.676 125.23C164.264 125.23 164.745 125.388 165.122 125.704C165.506 126.02 165.698 126.48 165.698 127.082V131.114H164.049V127.443C164.049 127.15 163.962 126.909 163.789 126.72C163.623 126.525 163.409 126.427 163.145 126.427C162.852 126.427 162.599 126.54 162.389 126.766C162.178 126.984 162.072 127.251 162.072 127.568V131.114H160.423V125.342H161.654L161.835 126.19ZM170.698 127.217C170.698 126.961 170.615 126.754 170.45 126.596C170.291 126.438 170.032 126.359 169.67 126.359C169.459 126.359 169.279 126.397 169.128 126.472C168.978 126.54 168.861 126.626 168.778 126.732C168.703 126.837 168.665 126.935 168.665 127.025V127.116H167.072C167.057 127.025 167.05 126.958 167.05 126.912C167.05 126.589 167.155 126.299 167.366 126.043C167.584 125.787 167.886 125.587 168.27 125.444C168.654 125.301 169.094 125.23 169.591 125.23H169.828C170.642 125.23 171.259 125.391 171.681 125.715C172.102 126.031 172.313 126.468 172.313 127.025V129.691C172.313 129.827 172.343 129.928 172.404 129.996C172.471 130.064 172.551 130.098 172.641 130.098C172.716 130.098 172.799 130.083 172.889 130.053C172.98 130.022 173.051 129.996 173.104 129.973V130.99C172.825 131.148 172.494 131.227 172.11 131.227C171.696 131.227 171.38 131.144 171.161 130.979C170.943 130.806 170.815 130.565 170.777 130.256C170.25 130.903 169.602 131.227 168.834 131.227C168.262 131.227 167.792 131.11 167.423 130.877C167.054 130.644 166.869 130.199 166.869 129.544C166.869 129.01 167.02 128.603 167.321 128.324C167.63 128.038 168.055 127.846 168.597 127.748C169.139 127.65 169.84 127.601 170.698 127.601V127.217ZM170.698 128.528C169.983 128.528 169.448 128.599 169.094 128.742C168.748 128.878 168.575 129.104 168.575 129.42C168.575 129.668 168.642 129.845 168.778 129.951C168.921 130.049 169.136 130.098 169.422 130.098C169.618 130.098 169.813 130.045 170.009 129.94C170.205 129.834 170.367 129.684 170.495 129.488C170.63 129.292 170.698 129.074 170.698 128.833V128.528ZM173.913 131.114V122.982H175.562V131.114H173.913ZM180.253 130.798C179.975 131.551 179.632 132.142 179.225 132.571C178.819 133.008 178.329 133.226 177.757 133.226C177.358 133.226 177.034 133.17 176.786 133.057V131.894C176.876 131.931 176.993 131.965 177.136 131.995C177.279 132.033 177.414 132.052 177.542 132.052C178.024 132.052 178.367 131.702 178.57 131.001L176.39 125.342H178.141L179.417 128.968H179.485L180.682 125.342H182.309L180.253 130.798ZM186.252 131.013C186.102 131.073 185.902 131.122 185.654 131.159C185.413 131.205 185.198 131.227 185.01 131.227C184.43 131.227 183.993 131.103 183.7 130.854C183.406 130.606 183.259 130.192 183.259 129.612V126.472H182.627V125.342H183.316L183.892 123.501H184.908V125.342H186.252V126.472H184.908V129.33C184.908 129.631 184.965 129.834 185.078 129.94C185.198 130.045 185.356 130.098 185.552 130.098C185.642 130.098 185.759 130.083 185.902 130.053C186.045 130.022 186.162 129.989 186.252 129.951V131.013ZM187.304 122.982H188.976V124.281H187.304V122.982ZM187.315 131.114V125.342H188.964V131.114H187.315ZM191.871 128.776C191.871 129.153 191.969 129.469 192.164 129.725C192.36 129.973 192.624 130.098 192.955 130.098C193.301 130.098 193.573 129.992 193.768 129.781C193.972 129.563 194.073 129.243 194.073 128.821H195.632C195.632 129.356 195.515 129.804 195.282 130.165C195.056 130.527 194.755 130.794 194.378 130.967C194.002 131.141 193.588 131.227 193.136 131.227H192.955C192.112 131.227 191.442 130.979 190.945 130.482C190.448 129.977 190.199 129.281 190.199 128.392V128.065C190.199 127.477 190.316 126.973 190.549 126.551C190.79 126.122 191.118 125.794 191.532 125.568C191.946 125.342 192.42 125.23 192.955 125.23H193.136C193.58 125.23 193.99 125.327 194.367 125.523C194.751 125.711 195.056 125.99 195.282 126.359C195.515 126.72 195.632 127.15 195.632 127.647H193.994C193.994 127.255 193.908 126.943 193.734 126.709C193.561 126.476 193.305 126.359 192.966 126.359C192.628 126.359 192.36 126.495 192.164 126.766C191.969 127.029 191.871 127.364 191.871 127.771V128.776ZM197.907 129.352C197.907 129.616 198.023 129.808 198.257 129.928C198.49 130.041 198.78 130.098 199.127 130.098C199.428 130.098 199.695 130.053 199.928 129.962C200.169 129.872 200.29 129.729 200.29 129.533C200.29 129.322 200.181 129.172 199.962 129.081C199.744 128.991 199.405 128.912 198.946 128.844C198.464 128.761 198.069 128.671 197.76 128.573C197.451 128.475 197.184 128.306 196.958 128.065C196.739 127.824 196.63 127.489 196.63 127.059C196.63 126.668 196.743 126.336 196.969 126.065C197.203 125.787 197.508 125.58 197.884 125.444C198.268 125.301 198.686 125.23 199.138 125.23H199.364C199.763 125.23 200.139 125.297 200.493 125.433C200.855 125.561 201.145 125.745 201.363 125.986C201.581 126.22 201.691 126.487 201.691 126.788C201.691 126.848 201.687 126.905 201.679 126.958C201.672 127.003 201.668 127.029 201.668 127.037H200.222C200.222 126.585 199.876 126.359 199.183 126.359C198.867 126.359 198.611 126.404 198.415 126.495C198.227 126.585 198.133 126.709 198.133 126.867C198.133 127.056 198.234 127.187 198.438 127.263C198.648 127.338 198.976 127.409 199.42 127.477C199.925 127.56 200.331 127.65 200.64 127.748C200.956 127.839 201.231 128.008 201.465 128.257C201.698 128.498 201.815 128.84 201.815 129.284C201.815 129.97 201.574 130.467 201.092 130.775C200.61 131.077 199.996 131.227 199.251 131.227H198.878C198.411 131.227 197.993 131.156 197.624 131.013C197.255 130.87 196.965 130.666 196.755 130.403C196.551 130.139 196.45 129.838 196.45 129.499L196.461 129.273H197.907V129.352Z" fill="#060C3C"/>
<rect x="124.016" y="264.213" width="20.8525" height="5.21311" rx="2.60656" fill="#B4B6C4"/>
<rect x="163.983" y="264.213" width="20.8525" height="5.21311" rx="2.60656" fill="#B4B6C4"/>
<rect x="203.95" y="264.213" width="20.8525" height="5.21311" rx="2.60656" fill="#B4B6C4"/>
<rect x="243.917" y="264.213" width="20.8525" height="5.21311" rx="2.60656" fill="#B4B6C4"/>
<rect x="283.885" y="264.213" width="20.8525" height="5.21311" rx="2.60656" fill="#B4B6C4"/>
<line opacity="0.2" x1="124.45" y1="225.549" x2="305.171" y2="225.549" stroke="#B4B6C4" stroke-width="0.868852" stroke-linecap="round"/>
<line opacity="0.2" x1="124.45" y1="201.221" x2="305.171" y2="201.221" stroke="#B4B6C4" stroke-width="0.868852" stroke-linecap="round"/>
<line opacity="0.2" x1="124.45" y1="176.894" x2="305.171" y2="176.894" stroke="#B4B6C4" stroke-width="0.868852" stroke-linecap="round"/>
<line opacity="0.2" x1="124.45" y1="152.566" x2="305.171" y2="152.566" stroke="#B4B6C4" stroke-width="0.868852" stroke-linecap="round"/>
<line opacity="0.2" x1="124.45" y1="249.877" x2="305.171" y2="249.877" stroke="#B4B6C4" stroke-width="0.868852" stroke-linecap="round"/>
<rect x="124.885" y="181.672" width="13.9016" height="67.7705" fill="#20A2A2"/>
<rect x="236.098" y="165.164" width="13.9016" height="84.2787" fill="#20A2A2"/>
<rect x="180.491" y="201.655" width="13.9016" height="47.7869" fill="#20A2A2"/>
<rect x="291.704" y="186.017" width="13.9016" height="63.4262" fill="#20A2A2"/>
<rect x="208.294" y="191.229" width="13.9016" height="58.2131" fill="#FFDC60"/>
<rect x="152.688" y="203.394" width="13.9016" height="46.0492" fill="#FFDC60"/>
<rect x="263.901" y="174.722" width="13.9016" height="74.7213" fill="#FFDC60"/>
<path d="M125.319 178.631C135.859 151.333 145.86 203.393 159.205 203.393C170.808 203.393 174.827 183.018 185.27 183.018C192.232 183.018 197.017 191.742 204.819 191.664C212.622 191.586 209.164 177.328 222.631 190.361C235.557 202.87 232.027 150.412 243.05 150.412C251.753 150.412 248.272 172.347 261.616 172.347C272.059 172.347 273.8 156.34 283.083 156.34C294.106 156.34 286.564 183.018 303.389 183.018" stroke="#20A2A2" stroke-width="1.7377" stroke-linecap="round" stroke-linejoin="round"/>
<g filter="url(#filter1_d_524_3525)">
<rect x="281" y="36" width="45" height="45" rx="6" fill="white"/>
</g>
<g clip-path="url(#clip0_524_3525)">
<rect width="18" height="18" transform="translate(294 50)" fill="white"/>
<path d="M294 50H302.525V58.5535H294V50Z" fill="#F25022"/>
<path d="M303.415 50H311.94V58.5535H303.415V50Z" fill="#7FBA00"/>
<path d="M294 59.4463H302.525V67.9998H294V59.4463Z" fill="#00A4EF"/>
<path d="M303.415 59.4463H311.94V67.9998H303.415V59.4463Z" fill="#FFB900"/>
</g>
<g filter="url(#filter2_d_524_3525)">
<rect x="72.7529" y="269.426" width="52.1311" height="52.1311" rx="5.21311" fill="white"/>
</g>
<path d="M108.244 287.157C108.225 287.02 108.106 286.945 108.007 286.936C107.909 286.928 105.985 286.899 105.985 286.899C105.985 286.899 104.375 285.331 104.216 285.172C104.058 285.012 103.747 285.061 103.626 285.097C103.625 285.097 103.324 285.191 102.818 285.348C102.733 285.073 102.609 284.734 102.431 284.394C101.858 283.298 101.019 282.718 100.005 282.716C100.004 282.716 100.003 282.716 100.001 282.716C99.9309 282.716 99.8612 282.723 99.7907 282.729C99.7607 282.693 99.7307 282.658 99.6992 282.623C99.2575 282.149 98.6914 281.918 98.0128 281.939C96.7035 281.976 95.3995 282.925 94.3421 284.609C93.5983 285.795 93.0321 287.284 92.8716 288.437C91.3681 288.904 90.3168 289.23 90.2935 289.238C89.5347 289.477 89.5107 289.5 89.4117 290.218C89.3382 290.76 87.3525 306.159 87.3525 306.159L103.993 309.046L111.205 307.247C111.205 307.247 108.263 287.294 108.244 287.157ZM101.985 285.607C101.602 285.725 101.166 285.861 100.694 286.007C100.684 285.343 100.605 284.418 100.296 283.618C101.29 283.807 101.779 284.934 101.985 285.607ZM99.8229 286.278C98.9508 286.549 97.9992 286.844 97.0447 287.141C97.3131 286.11 97.8223 285.083 98.4477 284.41C98.6801 284.16 99.0056 283.881 99.391 283.721C99.7532 284.479 99.8319 285.552 99.8229 286.278ZM98.039 282.813C98.3464 282.806 98.6051 282.874 98.8264 283.019C98.4724 283.204 98.1305 283.468 97.8095 283.814C96.9779 284.709 96.3405 286.098 96.0863 287.438C95.2937 287.684 94.5183 287.925 93.8044 288.146C94.2551 286.037 96.0181 282.871 98.039 282.813Z" fill="#95BF47"/>
<path d="M108.009 286.937C107.911 286.928 105.987 286.899 105.987 286.899C105.987 286.899 104.378 285.332 104.219 285.172C104.159 285.113 104.079 285.082 103.995 285.069L103.996 309.045L111.207 307.247C111.207 307.247 108.265 287.295 108.246 287.158C108.227 287.021 108.107 286.945 108.009 286.937Z" fill="#5E8E3E"/>
<path d="M99.9955 290.656L99.1579 293.799C99.1579 293.799 98.2236 293.372 97.116 293.442C95.4918 293.545 95.4745 294.573 95.4911 294.831C95.5795 296.236 99.2666 296.543 99.4736 299.836C99.6363 302.426 98.1036 304.198 95.8952 304.337C93.2444 304.505 91.7852 302.937 91.7852 302.937L92.3468 300.541C92.3468 300.541 93.8158 301.653 94.9916 301.578C95.7595 301.529 96.0339 300.903 96.0062 300.46C95.8907 298.626 92.8882 298.735 92.6985 295.722C92.5388 293.187 94.199 290.617 97.8621 290.386C99.2734 290.295 99.9955 290.656 99.9955 290.656Z" fill="white"/>
<g filter="url(#filter3_d_524_3525)">
<rect x="290.836" y="245.099" width="95.5738" height="95.5738" rx="5.21311" fill="white"/>
</g>
<path d="M366.912 292.886C366.912 308.509 354.247 321.174 338.624 321.174C323.001 321.174 310.336 308.509 310.336 292.886C310.336 277.263 323.001 264.598 338.624 264.598C354.247 264.598 366.912 277.263 366.912 292.886ZM324.48 292.886C324.48 300.697 330.813 307.03 338.624 307.03C346.436 307.03 352.768 300.697 352.768 292.886C352.768 285.074 346.436 278.742 338.624 278.742C330.813 278.742 324.48 285.074 324.48 292.886Z" fill="#B4B6C4"/>
<path d="M307.101 292.886C307.101 298.179 308.433 303.386 310.975 308.028C313.518 312.67 317.188 316.597 321.647 319.447C326.107 322.297 331.212 323.978 336.493 324.336C341.773 324.693 347.058 323.715 351.861 321.492C356.664 319.269 360.83 315.873 363.975 311.616C367.12 307.359 369.142 302.379 369.855 297.135C370.569 291.891 369.95 286.552 368.057 281.609C366.163 276.667 363.056 272.281 359.021 268.856L347.802 282.073C349.617 283.614 351.015 285.588 351.867 287.812C352.719 290.036 352.998 292.438 352.677 294.798C352.356 297.158 351.446 299.399 350.031 301.315C348.616 303.23 346.741 304.759 344.58 305.759C342.418 306.759 340.04 307.199 337.664 307.039C335.287 306.878 332.99 306.121 330.983 304.839C328.976 303.556 327.325 301.789 326.181 299.7C325.037 297.611 324.437 295.268 324.437 292.886H307.101Z" fill="#FFDC60"/>
<path d="M348.496 259.564C354.641 261.384 360.163 264.868 364.451 269.631C368.739 274.394 371.627 280.25 372.795 286.551C373.963 292.853 373.366 299.355 371.07 305.338C368.774 311.321 364.868 316.553 359.784 320.455L347.087 303.914C349.121 302.353 350.683 300.26 351.602 297.867C352.52 295.473 352.759 292.873 352.292 290.352C351.825 287.831 350.67 285.489 348.954 283.584C347.239 281.679 345.03 280.285 342.572 279.557L348.496 259.564Z" fill="#20A2A2"/>
<g filter="url(#filter4_d_524_3525)">
<g filter="url(#filter5_d_524_3525)">
<rect x="38" y="61.7705" width="125.984" height="47.1663" rx="3.72365" fill="white"/>
</g>
<g clip-path="url(#clip1_524_3525)">
<path d="M57.0763 84.7861C55.6365 84.7861 54.4688 85.9539 54.4688 87.3937V93.9163C54.4688 95.3561 55.6365 96.5239 57.0763 96.5239C58.5161 96.5239 59.6839 95.3561 59.6839 93.9163V87.3937C59.6829 85.9539 58.5151 84.7861 57.0763 84.7861Z" fill="#E91E63"/>
<path d="M47.9492 87.3929C47.9492 88.8337 49.118 90.0025 50.5589 90.0025C51.9997 90.0025 53.1685 88.8337 53.1685 87.3929V84.7832H50.5609C50.5599 84.7832 50.5599 84.7832 50.5589 84.7832C49.118 84.7832 47.9492 85.952 47.9492 87.3929Z" fill="#E91E63"/>
<path d="M57.0796 71.6992C57.0785 71.6992 57.0775 71.6992 57.0765 71.6992C55.6356 71.6992 54.4668 72.868 54.4668 74.3089C54.4668 75.7497 55.6356 76.9185 57.0765 76.9185H59.684V74.3089C59.684 74.3078 59.684 74.3058 59.684 74.3037C59.683 72.8649 58.5173 71.6992 57.0796 71.6992Z" fill="#36C5F0"/>
<path d="M50.5413 83.4605H57.0763C58.5172 83.4605 59.686 82.2917 59.686 80.8509C59.686 79.41 58.5172 78.2412 57.0763 78.2412H50.5413C49.1005 78.2412 47.9316 79.41 47.9316 80.8509C47.9316 82.2917 49.1005 83.4605 50.5413 83.4605Z" fill="#36C5F0"/>
<path d="M70.125 78.2402C68.6862 78.2402 67.5205 79.4059 67.5205 80.8447V80.8499V83.4596H70.1281C71.5689 83.4596 72.7378 82.2907 72.7378 80.8499C72.7378 79.409 71.5689 78.2402 70.1281 78.2402C70.1271 78.2402 70.126 78.2402 70.125 78.2402Z" fill="#4CAF50"/>
<path d="M61.0059 74.3088V80.851C61.0059 82.2908 62.1736 83.4586 63.6135 83.4586C65.0533 83.4586 66.221 82.2908 66.221 80.851V74.3088C66.221 72.869 65.0533 71.7012 63.6135 71.7012C62.1736 71.7012 61.0059 72.869 61.0059 74.3088Z" fill="#4CAF50"/>
<path d="M66.2191 93.9133C66.2191 92.4734 65.0513 91.3057 63.6115 91.3057H61.0039V93.9153C61.0049 95.3541 62.1717 96.5208 63.6115 96.5208C65.0513 96.5208 66.2191 95.3531 66.2191 93.9133Z" fill="#FF9800"/>
<path d="M70.1466 84.7832H63.6116C62.1708 84.7832 61.002 85.952 61.002 87.3929C61.002 88.8337 62.1708 90.0025 63.6116 90.0025H70.1466C71.5875 90.0025 72.7563 88.8337 72.7563 87.3929C72.7563 85.952 71.5875 84.7832 70.1466 84.7832Z" fill="#FF9800"/>
</g>
<path d="M85.0059 74.7399V75.5131H83.1379V80.7002H82.2864V75.5131H80.4184V74.7399H85.0059ZM87.039 76.1735C87.6588 76.1735 88.1541 76.3646 88.5248 76.7469C88.8955 77.1292 89.0808 77.6534 89.0808 78.3195V78.641C89.0808 79.3071 88.8984 79.8313 88.5335 80.2136C88.1685 80.5959 87.6704 80.7871 87.039 80.7871C86.4077 80.7871 85.9095 80.5959 85.5446 80.2136C85.1797 79.8313 84.9972 79.3071 84.9972 78.641V78.3195C84.9972 77.6534 85.1826 77.1292 85.5533 76.7469C85.924 76.3646 86.4193 76.1735 87.039 76.1735ZM87.039 76.8251C86.651 76.8251 86.3498 76.9583 86.1354 77.2248C85.9211 77.4912 85.814 77.8822 85.814 78.3977V78.5628C85.814 79.0668 85.9182 79.4548 86.1267 79.7271C86.3411 79.9993 86.6452 80.1354 87.039 80.1354C87.4213 80.1354 87.7196 80.0022 87.934 79.7358C88.1541 79.4635 88.2641 79.0725 88.2641 78.5628V78.3977C88.2641 77.8938 88.157 77.5057 87.9426 77.2335C87.7341 76.9612 87.4329 76.8251 87.039 76.8251ZM91.2114 76.2604H92.2454V76.912H91.2114V79.562C91.2114 79.7705 91.252 79.9211 91.3331 80.0138C91.4142 80.1065 91.5387 80.1528 91.7067 80.1528C91.8573 80.1528 92.0368 80.1094 92.2454 80.0225V80.6307C92.0368 80.7349 91.7675 80.7871 91.4373 80.7871C91.0956 80.7871 90.8349 80.6857 90.6554 80.483C90.4816 80.2802 90.3947 79.9588 90.3947 79.5186V76.912H89.9082V76.2604H90.4208L90.6988 74.8441H91.2114V76.2604ZM95.0057 76.1735C95.5908 76.1735 96.0252 76.2893 96.309 76.521C96.5986 76.7527 96.7434 77.0887 96.7434 77.5289V79.8313C96.7434 79.9356 96.7666 80.0138 96.813 80.0659C96.8593 80.1123 96.9172 80.1354 96.9867 80.1354C97.1199 80.1354 97.2532 80.0949 97.3864 80.0138V80.6133C97.1895 80.7292 96.9665 80.7871 96.7174 80.7871C96.4683 80.7871 96.283 80.7176 96.1613 80.5786C96.0397 80.4337 95.9731 80.2368 95.9615 79.9877C95.6024 80.5206 95.0839 80.7871 94.4062 80.7871C93.9197 80.7871 93.5548 80.6828 93.3115 80.4743C93.074 80.26 92.9552 79.924 92.9552 79.4664C92.9552 79.1073 93.0479 78.8264 93.2333 78.6236C93.4186 78.4151 93.7256 78.2645 94.1543 78.1718C94.5829 78.0792 95.1737 78.0328 95.9267 78.0328V77.6245C95.9267 77.329 95.8398 77.1234 95.6661 77.0076C95.4923 76.8859 95.2403 76.8251 94.9102 76.8251C94.5974 76.8251 94.3541 76.8859 94.1803 77.0076C94.0066 77.1292 93.9197 77.3001 93.9197 77.5202V77.6245H93.1203C93.1087 77.5434 93.103 77.4478 93.103 77.3377C93.103 77.135 93.184 76.9439 93.3462 76.7643C93.5084 76.5847 93.7285 76.4428 94.0066 76.3386C94.2846 76.2285 94.5916 76.1735 94.9275 76.1735H95.0057ZM95.9267 78.6671C95.3185 78.6671 94.858 78.6989 94.5452 78.7627C94.2383 78.8206 94.0326 78.9104 93.9284 79.032C93.8241 79.1536 93.772 79.3216 93.772 79.5359C93.772 79.9356 94.0761 80.1354 94.6843 80.1354C94.8986 80.1354 95.1013 80.0833 95.2925 79.979C95.4836 79.869 95.6371 79.7155 95.753 79.5186C95.8688 79.3216 95.9267 79.0957 95.9267 78.8409V78.6671ZM99.1933 74.4445V80.7002H98.3765V74.4445H99.1933ZM104.795 74.653C105.449 74.653 105.962 74.7978 106.333 75.0874C106.709 75.377 106.898 75.7883 106.898 76.3212V76.4254H106.046V76.2951C106.046 76.0171 105.933 75.8028 105.707 75.6522C105.481 75.5016 105.183 75.4263 104.812 75.4263C104.401 75.4263 104.08 75.4958 103.848 75.6348C103.622 75.768 103.509 75.9621 103.509 76.2169C103.509 76.4081 103.573 76.5645 103.7 76.6861C103.833 76.8077 103.996 76.9033 104.187 76.9728C104.384 77.0423 104.653 77.1205 104.995 77.2074C105.435 77.3233 105.791 77.4362 106.063 77.5463C106.336 77.6563 106.567 77.8214 106.759 78.0415C106.955 78.2616 107.054 78.5541 107.054 78.919C107.054 79.5678 106.854 80.0428 106.454 80.344C106.061 80.6394 105.504 80.7871 104.786 80.7871C104.068 80.7871 103.509 80.6365 103.109 80.3353C102.715 80.0283 102.519 79.5852 102.519 79.0059L102.527 78.8322H103.379L103.37 79.0146C103.37 79.3506 103.495 79.6025 103.744 79.7705C103.998 79.9327 104.349 80.0138 104.795 80.0138C105.229 80.0138 105.571 79.9356 105.82 79.7792C106.075 79.617 106.202 79.3969 106.202 79.1189C106.202 78.8988 106.133 78.7221 105.994 78.5889C105.861 78.4499 105.69 78.3427 105.481 78.2674C105.279 78.1921 105.001 78.1081 104.647 78.0154C104.213 77.8996 103.865 77.7895 103.605 77.6853C103.344 77.581 103.121 77.4217 102.936 77.2074C102.75 76.9873 102.658 76.7006 102.658 76.3472C102.658 75.7738 102.852 75.3481 103.24 75.07C103.628 74.792 104.146 74.653 104.795 74.653ZM111.945 79.8313C111.945 79.9356 111.968 80.0138 112.015 80.0659C112.061 80.1123 112.119 80.1354 112.188 80.1354C112.316 80.1354 112.446 80.0949 112.579 80.0138V80.6133C112.4 80.7292 112.217 80.7871 112.032 80.7871C111.719 80.7871 111.499 80.7234 111.372 80.5959C111.25 80.4685 111.183 80.2889 111.172 80.0572C111.016 80.2889 110.813 80.4685 110.564 80.5959C110.32 80.7234 110.039 80.7871 109.721 80.7871C109.275 80.7871 108.907 80.6568 108.617 80.3961C108.334 80.1296 108.192 79.7474 108.192 79.2492V76.2604H109.008V79.1015C109.008 79.7908 109.321 80.1354 109.947 80.1354C110.15 80.1354 110.341 80.0804 110.52 79.9704C110.706 79.8603 110.853 79.7126 110.963 79.5272C111.073 79.3361 111.128 79.1276 111.128 78.9017V76.2604H111.945V79.8313ZM114.423 76.8251C114.556 76.634 114.736 76.4776 114.962 76.3559C115.193 76.2343 115.442 76.1735 115.709 76.1735C116.276 76.1735 116.717 76.3733 117.029 76.773C117.342 77.1669 117.499 77.7027 117.499 78.3804V78.4759C117.499 79.1942 117.336 79.7589 117.012 80.1702C116.693 80.5815 116.256 80.7871 115.7 80.7871C115.04 80.7871 114.542 80.5235 114.206 79.9964L113.919 80.7002H113.606V74.4445H114.423V76.8251ZM115.544 76.8251C115.156 76.8251 114.869 76.9612 114.683 77.2335C114.504 77.4999 114.414 77.917 114.414 78.4846C114.414 79.0523 114.507 79.4693 114.692 79.7358C114.878 80.0022 115.161 80.1354 115.544 80.1354C116.302 80.1354 116.682 79.5852 116.682 78.4846C116.682 77.917 116.586 77.4999 116.395 77.2335C116.204 76.9612 115.92 76.8251 115.544 76.8251ZM120.366 76.1735C120.696 76.1735 120.989 76.2256 121.243 76.3299C121.504 76.4341 121.704 76.5789 121.843 76.7643C121.988 76.9496 122.06 77.1553 122.06 77.3812L122.051 77.5376H121.243V77.4594C121.243 77.0365 120.916 76.8251 120.262 76.8251C119.613 76.8251 119.288 77.0192 119.288 77.4072C119.288 77.5868 119.381 77.72 119.567 77.8069C119.752 77.888 120.036 77.9662 120.418 78.0415C120.783 78.1168 121.081 78.195 121.313 78.2761C121.55 78.3572 121.75 78.4846 121.912 78.6584C122.08 78.8322 122.164 79.0668 122.164 79.3622C122.164 79.8371 122.002 80.1934 121.678 80.4309C121.353 80.6683 120.887 80.7871 120.279 80.7871H120.149C119.784 80.7871 119.465 80.7321 119.193 80.622C118.921 80.5062 118.709 80.3527 118.559 80.1615C118.414 79.9646 118.344 79.7445 118.35 79.5012V79.31H119.158V79.3969C119.158 79.8893 119.572 80.1354 120.401 80.1354C120.644 80.1354 120.861 80.0804 121.052 79.9704C121.249 79.8603 121.348 79.7097 121.348 79.5186C121.348 79.3564 121.293 79.2289 121.183 79.1363C121.078 79.0436 120.948 78.9741 120.792 78.9277C120.635 78.8814 120.418 78.8351 120.14 78.7887C119.781 78.7192 119.491 78.6497 119.271 78.5802C119.051 78.5049 118.863 78.3804 118.706 78.2066C118.55 78.0328 118.472 77.7953 118.472 77.4941C118.472 77.0829 118.634 76.7614 118.958 76.5297C119.283 76.2922 119.726 76.1735 120.288 76.1735H120.366ZM125.051 76.1735C125.404 76.1735 125.72 76.2517 125.998 76.4081C126.281 76.5587 126.502 76.773 126.658 77.051C126.814 77.329 126.892 77.6476 126.892 78.0068H126.084C126.084 77.6476 125.992 77.3609 125.806 77.1466C125.627 76.9323 125.366 76.8251 125.024 76.8251C124.665 76.8251 124.379 76.9468 124.164 77.19C123.956 77.4275 123.852 77.7548 123.852 78.1718V78.641C123.852 79.1449 123.956 79.5215 124.164 79.7705C124.373 80.0138 124.668 80.1354 125.051 80.1354C125.404 80.1354 125.667 80.0312 125.841 79.8227C126.021 79.6083 126.111 79.3216 126.111 78.9625H126.892C126.892 79.5186 126.725 79.9617 126.389 80.2918C126.058 80.622 125.615 80.7871 125.059 80.7871H124.99C124.596 80.7871 124.251 80.6973 123.956 80.5177C123.66 80.3324 123.432 80.0746 123.269 79.7445C123.113 79.4143 123.035 79.0291 123.035 78.5889V78.3804C123.035 77.9401 123.116 77.5549 123.278 77.2248C123.44 76.8888 123.669 76.6311 123.964 76.4515C124.26 76.2662 124.599 76.1735 124.981 76.1735H125.051ZM130.037 76.1735C130.449 76.1735 130.77 76.3067 131.002 76.5731C131.233 76.8338 131.349 77.164 131.349 77.5636L131.323 77.8938H130.602V77.7027C130.602 77.5289 130.559 77.3754 130.472 77.2422C130.385 77.1089 130.275 77.0076 130.142 76.9381C130.008 76.8628 129.875 76.8251 129.742 76.8251C129.464 76.8251 129.247 76.9352 129.09 77.1553C128.934 77.3754 128.856 77.6737 128.856 78.0502V80.7002H128.039V76.2604H128.621L128.743 76.9207C128.777 76.8048 128.856 76.689 128.977 76.5731C129.099 76.4573 129.25 76.3617 129.429 76.2864C129.614 76.2111 129.817 76.1735 130.037 76.1735ZM133.132 74.4445V75.2004H132.281V74.4445H133.132ZM133.115 76.2604V80.7002H132.298V76.2604H133.115ZM135.372 76.8251C135.505 76.634 135.685 76.4776 135.911 76.3559C136.142 76.2343 136.391 76.1735 136.658 76.1735C137.226 76.1735 137.666 76.3733 137.979 76.773C138.291 77.1669 138.448 77.7027 138.448 78.3804V78.4759C138.448 79.1942 138.286 79.7589 137.961 80.1702C137.643 80.5815 137.205 80.7871 136.649 80.7871C135.989 80.7871 135.491 80.5235 135.155 79.9964L134.868 80.7002H134.555V74.4445H135.372V76.8251ZM136.493 76.8251C136.105 76.8251 135.818 76.9612 135.633 77.2335C135.453 77.4999 135.363 77.917 135.363 78.4846C135.363 79.0523 135.456 79.4693 135.641 79.7358C135.827 80.0022 136.111 80.1354 136.493 80.1354C137.252 80.1354 137.631 79.5852 137.631 78.4846C137.631 77.917 137.535 77.4999 137.344 77.2335C137.153 76.9612 136.869 76.8251 136.493 76.8251ZM141.402 76.1735C141.767 76.1735 142.088 76.2517 142.366 76.4081C142.65 76.5587 142.87 76.7759 143.027 77.0597C143.183 77.3435 143.261 77.6737 143.261 78.0502V78.6671H140.159C140.171 79.1363 140.281 79.4983 140.49 79.7531C140.698 80.008 141.008 80.1354 141.419 80.1354C141.784 80.1354 142.054 80.0283 142.227 79.814C142.401 79.5996 142.488 79.3448 142.488 79.0494H143.261C143.261 79.3969 143.18 79.701 143.018 79.9617C142.862 80.2223 142.641 80.4251 142.358 80.5699C142.08 80.7147 141.761 80.7871 141.402 80.7871H141.367C140.742 80.7871 140.246 80.5872 139.881 80.1876C139.522 79.7821 139.343 79.2434 139.343 78.5715V78.3977C139.343 77.9575 139.424 77.5694 139.586 77.2335C139.748 76.8975 139.98 76.6369 140.281 76.4515C140.582 76.2662 140.936 76.1735 141.341 76.1735H141.402ZM141.358 76.8251C141.028 76.8251 140.759 76.9265 140.55 77.1292C140.348 77.3319 140.223 77.6331 140.177 78.0328H142.453V77.9286C142.453 77.5984 142.352 77.3319 142.149 77.1292C141.952 76.9265 141.689 76.8251 141.358 76.8251Z" fill="#060C3C"/>
<path d="M83.6297 89.2989C83.302 89.2989 83.019 89.4106 82.7807 89.6341C82.5424 89.8575 82.4232 90.133 82.4232 90.4607V91.5443C82.6243 91.3283 82.8626 91.1645 83.1382 91.0528C83.4137 90.9411 83.6967 90.8852 83.9872 90.8852C84.4489 90.8852 84.8659 90.982 85.2383 91.1756C85.6181 91.3618 85.916 91.6337 86.132 91.9911C86.3554 92.3411 86.4671 92.7508 86.4671 93.2199C86.4671 93.7487 86.3442 94.2104 86.0985 94.6051C85.8601 94.9998 85.5287 95.3052 85.1042 95.5212C84.6872 95.7371 84.2217 95.8451 83.7079 95.8451H83.5515C83.0451 95.8451 82.5796 95.7334 82.1551 95.51C81.7306 95.2791 81.3955 94.9589 81.1497 94.5493C80.904 94.1397 80.7811 93.6742 80.7811 93.1529V90.6506C80.7811 90.1516 80.904 89.6974 81.1497 89.2878C81.3955 88.8782 81.7269 88.5542 82.1439 88.3159C82.561 88.0776 83.019 87.9584 83.518 87.9584H83.6744C84.1659 87.9584 84.6127 88.0589 85.0149 88.26C85.417 88.4611 85.7335 88.7553 85.9644 89.1425C86.1953 89.5223 86.3107 89.9729 86.3107 90.4942H84.7691C84.7691 90.1665 84.6611 89.8873 84.4452 89.6564C84.2366 89.4181 83.9648 89.2989 83.6297 89.2989ZM84.8473 93.1864C84.8473 92.8513 84.7282 92.5757 84.4898 92.3598C84.259 92.1363 83.9685 92.0246 83.6185 92.0246C83.2834 92.0246 83.0004 92.1363 82.7695 92.3598C82.5387 92.5757 82.4232 92.8513 82.4232 93.1864V93.4098C82.4232 93.745 82.5387 94.0242 82.7695 94.2477C83.0078 94.4636 83.302 94.5716 83.652 94.5716C83.9872 94.5716 84.2701 94.4636 84.501 94.2477C84.7319 94.0242 84.8473 93.745 84.8473 93.4098V93.1864ZM87.9339 94.3817H89.7883V89.9915H87.9227V88.9973C88.3398 88.9675 88.8127 88.8633 89.3414 88.6845C89.8702 88.4983 90.3692 88.2749 90.8384 88.0143H91.4304V94.3817H93.2513V95.7334H87.9339V94.3817ZM94.6064 94.0913H96.2373V95.7334H94.6064V94.0913ZM103.234 93.1641C103.234 93.663 103.115 94.1173 102.877 94.5269C102.638 94.9365 102.314 95.2605 101.905 95.4988C101.495 95.7297 101.045 95.8451 100.553 95.8451H100.229C99.7377 95.8451 99.2871 95.7297 98.8775 95.4988C98.4679 95.2605 98.144 94.9365 97.9056 94.5269C97.6748 94.1173 97.5593 93.663 97.5593 93.1641V90.6506C97.5593 90.1516 97.6748 89.6974 97.9056 89.2878C98.144 88.8782 98.4679 88.5542 98.8775 88.3159C99.2871 88.0776 99.7377 87.9584 100.229 87.9584H100.553C101.045 87.9584 101.495 88.0776 101.905 88.3159C102.314 88.5542 102.638 88.8782 102.877 89.2878C103.115 89.6974 103.234 90.1516 103.234 90.6506V93.1641ZM101.581 90.4607C101.581 90.1256 101.465 89.8426 101.235 89.6117C101.011 89.3808 100.732 89.2654 100.397 89.2654C100.062 89.2654 99.7786 89.3808 99.5478 89.6117C99.3244 89.8426 99.2126 90.1256 99.2126 90.4607V93.3428C99.2126 93.6779 99.3244 93.9609 99.5478 94.1918C99.7786 94.4227 100.062 94.5381 100.397 94.5381C100.732 94.5381 101.011 94.4227 101.235 94.1918C101.465 93.9609 101.581 93.6779 101.581 93.3428V90.4607ZM110.074 93.1641C110.074 93.663 109.955 94.1173 109.717 94.5269C109.478 94.9365 109.154 95.2605 108.745 95.4988C108.335 95.7297 107.885 95.8451 107.393 95.8451H107.069C106.578 95.8451 106.127 95.7297 105.718 95.4988C105.308 95.2605 104.984 94.9365 104.746 94.5269C104.515 94.1173 104.399 93.663 104.399 93.1641V90.6506C104.399 90.1516 104.515 89.6974 104.746 89.2878C104.984 88.8782 105.308 88.5542 105.718 88.3159C106.127 88.0776 106.578 87.9584 107.069 87.9584H107.393C107.885 87.9584 108.335 88.0776 108.745 88.3159C109.154 88.5542 109.478 88.8782 109.717 89.2878C109.955 89.6974 110.074 90.1516 110.074 90.6506V93.1641ZM108.421 90.4607C108.421 90.1256 108.305 89.8426 108.075 89.6117C107.851 89.3808 107.572 89.2654 107.237 89.2654C106.902 89.2654 106.619 89.3808 106.388 89.6117C106.164 89.8426 106.053 90.1256 106.053 90.4607V93.3428C106.053 93.6779 106.164 93.9609 106.388 94.1918C106.619 94.4227 106.902 94.5381 107.237 94.5381C107.572 94.5381 107.851 94.4227 108.075 94.1918C108.305 93.9609 108.421 93.6779 108.421 93.3428V90.4607ZM116.914 93.1641C116.914 93.663 116.795 94.1173 116.557 94.5269C116.318 94.9365 115.995 95.2605 115.585 95.4988C115.175 95.7297 114.725 95.8451 114.233 95.8451H113.909C113.418 95.8451 112.967 95.7297 112.558 95.4988C112.148 95.2605 111.824 94.9365 111.586 94.5269C111.355 94.1173 111.239 93.663 111.239 93.1641V90.6506C111.239 90.1516 111.355 89.6974 111.586 89.2878C111.824 88.8782 112.148 88.5542 112.558 88.3159C112.967 88.0776 113.418 87.9584 113.909 87.9584H114.233C114.725 87.9584 115.175 88.0776 115.585 88.3159C115.995 88.5542 116.318 88.8782 116.557 89.2878C116.795 89.6974 116.914 90.1516 116.914 90.6506V93.1641ZM115.261 90.4607C115.261 90.1256 115.146 89.8426 114.915 89.6117C114.691 89.3808 114.412 89.2654 114.077 89.2654C113.742 89.2654 113.459 89.3808 113.228 89.6117C113.004 89.8426 112.893 90.1256 112.893 90.4607V93.3428C112.893 93.6779 113.004 93.9609 113.228 94.1918C113.459 94.4227 113.742 94.5381 114.077 94.5381C114.412 94.5381 114.691 94.4227 114.915 94.1918C115.146 93.9609 115.261 93.6779 115.261 93.3428V90.4607Z" fill="#060C3C"/>
</g>
<g filter="url(#filter6_d_524_3525)">
<rect x="303" y="121.722" width="83.4098" height="26.0656" rx="5.21311" fill="#FFDC60"/>
</g>
<rect x="311.688" y="132.147" width="66.0328" height="5.21311" rx="2.60656" fill="white"/>
<g filter="url(#filter7_d_524_3525)">
<rect x="38" y="154" width="83" height="35" rx="5.21311" fill="white"/>
</g>
<rect x="46.6885" y="164.426" width="66.0328" height="5.21311" rx="2.60656" fill="#20A2A2"/>
<rect x="46.6885" y="175" width="66.0328" height="5.21311" rx="2.60656" fill="#FFDC60"/>
<rect x="166.589" y="327.64" width="60.1271" height="32.7966" rx="4.09958" fill="#FFDC60"/>
<path d="M190.698 341.493L186.632 340.902L184.814 337.218C184.765 337.117 184.683 337.035 184.582 336.985C184.329 336.861 184.022 336.965 183.895 337.218L182.078 340.902L178.012 341.493C177.9 341.509 177.797 341.562 177.719 341.642C177.624 341.74 177.571 341.871 177.573 342.007C177.575 342.143 177.631 342.273 177.728 342.368L180.67 345.236L179.975 349.286C179.959 349.38 179.969 349.477 180.005 349.565C180.041 349.654 180.101 349.731 180.178 349.787C180.256 349.843 180.347 349.877 180.443 349.883C180.538 349.89 180.633 349.87 180.718 349.825L184.355 347.913L187.992 349.825C188.091 349.878 188.206 349.896 188.317 349.877C188.595 349.829 188.783 349.564 188.735 349.286L188.04 345.236L190.981 342.368C191.061 342.289 191.114 342.187 191.13 342.075C191.174 341.794 190.978 341.535 190.698 341.493Z" fill="white"/>
<path d="M202.141 342.575C202.337 342.28 202.522 341.919 202.694 341.493C202.874 341.066 203.014 340.673 203.112 340.312H203.899V344.42H205.031V345.871H203.899V347.839H202.141V345.871H198.426V344.408C198.845 343.743 199.271 342.919 199.705 341.935C200.148 340.943 200.48 340.058 200.702 339.279H202.436C202.313 339.836 202.091 340.46 201.772 341.148C201.452 341.829 201.107 342.468 200.739 343.067C200.378 343.665 200.066 344.116 199.804 344.42H202.141V342.575ZM206.732 349.61C206.814 349.216 206.945 348.626 207.125 347.839H206.35V346.031H208.146V347.544L207.63 349.61H206.732ZM214.521 343.559C214.964 343.788 215.296 344.055 215.517 344.358C215.747 344.653 215.862 345.047 215.862 345.539C215.862 346.31 215.583 346.908 215.025 347.335C214.468 347.753 213.701 347.962 212.725 347.962C211.783 347.962 211.024 347.749 210.45 347.322C209.876 346.896 209.589 346.302 209.589 345.539C209.589 345.047 209.7 344.649 209.921 344.346C210.151 344.043 210.487 343.78 210.93 343.559V343.51C210.577 343.272 210.311 343.022 210.13 342.759C209.958 342.497 209.872 342.14 209.872 341.69C209.872 341.189 209.995 340.759 210.241 340.398C210.487 340.029 210.823 339.75 211.25 339.562C211.684 339.373 212.176 339.279 212.725 339.279C213.275 339.279 213.763 339.373 214.189 339.562C214.624 339.75 214.964 340.029 215.21 340.398C215.456 340.759 215.579 341.189 215.579 341.69C215.579 342.14 215.489 342.497 215.308 342.759C215.136 343.022 214.874 343.272 214.521 343.51V343.559ZM211.557 341.849C211.557 342.153 211.668 342.411 211.889 342.624C212.111 342.829 212.389 342.932 212.725 342.932C213.062 342.932 213.34 342.829 213.562 342.624C213.783 342.411 213.894 342.153 213.894 341.849V341.714C213.894 341.411 213.783 341.157 213.562 340.952C213.34 340.738 213.062 340.632 212.725 340.632C212.389 340.632 212.111 340.738 211.889 340.952C211.668 341.157 211.557 341.411 211.557 341.714V341.849ZM211.422 345.478C211.422 345.822 211.545 346.097 211.791 346.302C212.037 346.507 212.348 346.609 212.725 346.609C213.103 346.609 213.414 346.507 213.66 346.302C213.906 346.097 214.029 345.822 214.029 345.478V345.281C214.029 344.936 213.906 344.662 213.66 344.457C213.414 344.252 213.103 344.149 212.725 344.149C212.348 344.149 212.037 344.252 211.791 344.457C211.545 344.662 211.422 344.936 211.422 345.281V345.478Z" fill="white"/>
<defs>
<filter id="filter0_d_524_3525" x="70.1477" y="75.6717" width="289.328" height="251.098" filterUnits="userSpaceOnUse" color-interpolation-filters="sRGB">
<feFlood flood-opacity="0" result="BackgroundImageFix"/>
<feColorMatrix in="SourceAlpha" type="matrix" values="0 0 0 0 0 0 0 0 0 0 0 0 0 0 0 0 0 0 127 0" result="hardAlpha"/>
<feMorphology radius="1.7377" operator="erode" in="SourceAlpha" result="effect1_dropShadow_524_3525"/>
<feOffset dy="6.95082"/>
<feGaussianBlur stdDeviation="17.3771"/>
<feColorMatrix type="matrix" values="0 0 0 0 0.0235294 0 0 0 0 0.0470588 0 0 0 0 0.231373 0 0 0 0.08 0"/>
<feBlend mode="normal" in2="BackgroundImageFix" result="effect1_dropShadow_524_3525"/>
<feBlend mode="normal" in="SourceGraphic" in2="effect1_dropShadow_524_3525" result="shape"/>
</filter>
<filter id="filter1_d_524_3525" x="261" y="22" width="85" height="85" filterUnits="userSpaceOnUse" color-interpolation-filters="sRGB">
<feFlood flood-opacity="0" result="BackgroundImageFix"/>
<feColorMatrix in="SourceAlpha" type="matrix" values="0 0 0 0 0 0 0 0 0 0 0 0 0 0 0 0 0 0 127 0" result="hardAlpha"/>
<feOffset dy="6"/>
<feGaussianBlur stdDeviation="10"/>
<feColorMatrix type="matrix" values="0 0 0 0 0.11 0 0 0 0 0.14137 0 0 0 0 0.4125 0 0 0 0.05 0"/>
<feBlend mode="normal" in2="BackgroundImageFix" result="effect1_dropShadow_524_3525"/>
<feBlend mode="normal" in="SourceGraphic" in2="effect1_dropShadow_524_3525" result="shape"/>
</filter>
<filter id="filter2_d_524_3525" x="55.3759" y="257.262" width="86.885" height="86.885" filterUnits="userSpaceOnUse" color-interpolation-filters="sRGB">
<feFlood flood-opacity="0" result="BackgroundImageFix"/>
<feColorMatrix in="SourceAlpha" type="matrix" values="0 0 0 0 0 0 0 0 0 0 0 0 0 0 0 0 0 0 127 0" result="hardAlpha"/>
<feOffset dy="5.21311"/>
<feGaussianBlur stdDeviation="8.68853"/>
<feColorMatrix type="matrix" values="0 0 0 0 0.11 0 0 0 0 0.14137 0 0 0 0 0.4125 0 0 0 0.05 0"/>
<feBlend mode="normal" in2="BackgroundImageFix" result="effect1_dropShadow_524_3525"/>
<feBlend mode="normal" in="SourceGraphic" in2="effect1_dropShadow_524_3525" result="shape"/>
</filter>
<filter id="filter3_d_524_3525" x="273.459" y="232.935" width="130.328" height="130.328" filterUnits="userSpaceOnUse" color-interpolation-filters="sRGB">
<feFlood flood-opacity="0" result="BackgroundImageFix"/>
<feColorMatrix in="SourceAlpha" type="matrix" values="0 0 0 0 0 0 0 0 0 0 0 0 0 0 0 0 0 0 127 0" result="hardAlpha"/>
<feOffset dy="5.21311"/>
<feGaussianBlur stdDeviation="8.68853"/>
<feColorMatrix type="matrix" values="0 0 0 0 0.11 0 0 0 0 0.14137 0 0 0 0 0.4125 0 0 0 0.05 0"/>
<feBlend mode="normal" in2="BackgroundImageFix" result="effect1_dropShadow_524_3525"/>
<feBlend mode="normal" in="SourceGraphic" in2="effect1_dropShadow_524_3525" result="shape"/>
</filter>
<filter id="filter4_d_524_3525" x="4.9836" y="35.7049" width="192.016" height="113.199" filterUnits="userSpaceOnUse" color-interpolation-filters="sRGB">
<feFlood flood-opacity="0" result="BackgroundImageFix"/>
<feColorMatrix in="SourceAlpha" type="matrix" values="0 0 0 0 0 0 0 0 0 0 0 0 0 0 0 0 0 0 127 0" result="hardAlpha"/>
<feMorphology radius="1.7377" operator="erode" in="SourceAlpha" result="effect1_dropShadow_524_3525"/>
<feOffset dy="6.95082"/>
<feGaussianBlur stdDeviation="17.3771"/>
<feColorMatrix type="matrix" values="0 0 0 0 0.0235294 0 0 0 0 0.0470588 0 0 0 0 0.231373 0 0 0 0.08 0"/>
<feBlend mode="normal" in2="BackgroundImageFix" result="effect1_dropShadow_524_3525"/>
<feBlend mode="normal" in="SourceGraphic" in2="effect1_dropShadow_524_3525" result="shape"/>
</filter>
<filter id="filter5_d_524_3525" x="14.4169" y="43.1522" width="173.15" height="94.3323" filterUnits="userSpaceOnUse" color-interpolation-filters="sRGB">
<feFlood flood-opacity="0" result="BackgroundImageFix"/>
<feColorMatrix in="SourceAlpha" type="matrix" values="0 0 0 0 0 0 0 0 0 0 0 0 0 0 0 0 0 0 127 0" result="hardAlpha"/>
<feMorphology radius="1.24122" operator="erode" in="SourceAlpha" result="effect1_dropShadow_524_3525"/>
<feOffset dy="4.96487"/>
<feGaussianBlur stdDeviation="12.4122"/>
<feColorMatrix type="matrix" values="0 0 0 0 0.0235294 0 0 0 0 0.0470588 0 0 0 0 0.231373 0 0 0 0.08 0"/>
<feBlend mode="normal" in2="BackgroundImageFix" result="effect1_dropShadow_524_3525"/>
<feBlend mode="normal" in="SourceGraphic" in2="effect1_dropShadow_524_3525" result="shape"/>
</filter>
<filter id="filter6_d_524_3525" x="285.623" y="109.558" width="118.164" height="60.8195" filterUnits="userSpaceOnUse" color-interpolation-filters="sRGB">
<feFlood flood-opacity="0" result="BackgroundImageFix"/>
<feColorMatrix in="SourceAlpha" type="matrix" values="0 0 0 0 0 0 0 0 0 0 0 0 0 0 0 0 0 0 127 0" result="hardAlpha"/>
<feOffset dy="5.21311"/>
<feGaussianBlur stdDeviation="8.68853"/>
<feColorMatrix type="matrix" values="0 0 0 0 0.11 0 0 0 0 0.14137 0 0 0 0 0.4125 0 0 0 0.05 0"/>
<feBlend mode="normal" in2="BackgroundImageFix" result="effect1_dropShadow_524_3525"/>
<feBlend mode="normal" in="SourceGraphic" in2="effect1_dropShadow_524_3525" result="shape"/>
</filter>
<filter id="filter7_d_524_3525" x="0" y="124" width="159" height="111" filterUnits="userSpaceOnUse" color-interpolation-filters="sRGB">
<feFlood flood-opacity="0" result="BackgroundImageFix"/>
<feColorMatrix in="SourceAlpha" type="matrix" values="0 0 0 0 0 0 0 0 0 0 0 0 0 0 0 0 0 0 127 0" result="hardAlpha"/>
<feMorphology radius="2" operator="erode" in="SourceAlpha" result="effect1_dropShadow_524_3525"/>
<feOffset dy="8"/>
<feGaussianBlur stdDeviation="20"/>
<feColorMatrix type="matrix" values="0 0 0 0 0.0235294 0 0 0 0 0.0470588 0 0 0 0 0.231373 0 0 0 0.08 0"/>
<feBlend mode="normal" in2="BackgroundImageFix" result="effect1_dropShadow_524_3525"/>
<feBlend mode="normal" in="SourceGraphic" in2="effect1_dropShadow_524_3525" result="shape"/>
</filter>
<clipPath id="clip0_524_3525">
<rect width="18" height="18" fill="white" transform="translate(294 50)"/>
</clipPath>
<clipPath id="clip1_524_3525">
<rect width="24.8244" height="24.8244" fill="white" transform="translate(47.9307 71.7002)"/>
</clipPath>
</defs>
</svg>
