<svg width="73" height="30" viewBox="0 0 73 30" fill="none" xmlns="http://www.w3.org/2000/svg">
<g clip-path="url(#clip0_0_64)">
<path d="M5.74594 0.417969H0V6.01558H5.74594V0.417969Z" fill="#84C6C6"/>
<path d="M5.60328 29.5817V9.42231H0.164062V29.5817H5.60328ZM41.7556 29.7809V24.8406C40.9582 24.8406 40.2834 24.8008 39.7926 24.7211C39.2201 24.6414 38.7907 24.4422 38.5044 24.1633C38.2181 23.8845 38.0341 23.4861 37.9318 22.9681C37.85 22.4701 37.8092 21.8127 37.8092 21.0159V13.9641H41.7556V9.42231H37.8092V1.55378H32.3495V21.0558C32.3495 22.7092 32.4926 24.1036 32.7789 25.2191C33.0652 26.3147 33.5559 27.2111 34.2307 27.8884C34.9055 28.5657 35.8052 29.0438 36.889 29.3426C37.9932 29.6414 39.3837 29.7809 41.04 29.7809H41.7556ZM73.0005 29.5817V0H67.5408V29.5817H73.0005ZM27.0943 11.3944C25.5811 9.80079 23.4545 9.00398 20.7554 9.00398C19.4467 9.00398 18.2607 9.26295 17.1769 9.78088C16.1136 10.2988 15.1935 11.0159 14.4778 11.9323L14.1711 12.3108V11.9721V9.42231H8.79319V29.5817H14.212V18.8446V19.5817C14.212 19.4621 14.212 19.3426 14.212 19.2231C14.2733 17.3307 14.7436 15.9363 15.6433 15.0398C16.6044 14.0837 17.7699 13.6056 19.0991 13.6056C20.6736 13.6056 21.88 14.0837 22.6775 15C23.4545 15.9163 23.8635 17.2112 23.8635 18.8645V18.9044V29.5617H29.3641V18.1275C29.3845 15.259 28.6075 12.988 27.0943 11.3944ZM64.719 19.4621C64.719 18.008 64.4531 16.6534 63.9419 15.3785C63.4103 14.1235 62.6741 13.008 61.754 12.0518C60.8134 11.0956 59.6887 10.3586 58.38 9.82072C57.0713 9.28287 55.6195 9.0239 54.045 9.0239C52.5523 9.0239 51.1414 9.30279 49.8327 9.84064C48.524 10.3984 47.3789 11.1355 46.4178 12.0717C45.4568 13.008 44.6797 14.1235 44.1276 15.3984C43.5551 16.6733 43.2893 18.0478 43.2893 19.502C43.2893 20.9562 43.5551 22.3307 44.0867 23.6056C44.6184 24.8805 45.375 25.996 46.3156 26.9323C47.2562 27.8685 48.4218 28.6255 49.7713 29.1633C51.1209 29.7211 52.6136 30 54.2086 30C58.8299 30 61.6926 27.9482 63.4103 26.0359L59.4842 23.1275C58.6663 24.0837 56.7033 25.3785 54.2495 25.3785C52.7159 25.3785 51.4481 25.0398 50.487 24.3426C49.526 23.6653 48.8716 22.7092 48.524 21.5339L48.4627 21.3546H64.719V19.4621ZM48.5035 17.6096C48.5035 16.1355 50.2416 13.5657 53.9837 13.5458C57.7257 13.5458 59.4842 16.1155 59.4842 17.5896L48.5035 17.6096Z" fill="#84C6C6"/>
</g>
<defs>
<clipPath id="clip0_0_64">
<rect width="73" height="30" fill="white"/>
</clipPath>
</defs>
</svg>
