<svg width="40" height="40" viewBox="0 0 40 40" fill="none" xmlns="http://www.w3.org/2000/svg">
<path d="M27.4483 3H11.8833C6.215 3 3 6.215 3 11.8833V27.45C3 33.1167 6.215 36.3333 11.8833 36.3333H27.4483C33.1167 36.3333 36.3333 33.1167 36.3333 27.45V11.8833C36.3167 6.215 33.1167 3 27.4483 3Z" fill="#20A2A2"/>
<path fill-rule="evenodd" clip-rule="evenodd" d="M24.2929 8.29289C24.6834 7.90237 25.3166 7.90237 25.7071 8.29289L29.7071 12.2929C30.0976 12.6834 30.0976 13.3166 29.7071 13.7071L25.7071 17.7071C25.3166 18.0976 24.6834 18.0976 24.2929 17.7071C23.9024 17.3166 23.9024 16.6834 24.2929 16.2929L26.5858 14H15C14.2044 14 13.4413 14.3161 12.8787 14.8787C12.3161 15.4413 12 16.2044 12 17V19C12 19.5523 11.5523 20 11 20C10.4477 20 10 19.5523 10 19V17C10 15.6739 10.5268 14.4021 11.4645 13.4645C12.4021 12.5268 13.6739 12 15 12H26.5858L24.2929 9.70711C23.9024 9.31658 23.9024 8.68342 24.2929 8.29289ZM28 23V21C28 20.4477 28.4477 20 29 20C29.5523 20 30 20.4477 30 21V23C30 24.3261 29.4732 25.5979 28.5355 26.5355C27.5979 27.4732 26.3261 28 25 28H13.4142L15.7071 30.2929C16.0976 30.6834 16.0976 31.3166 15.7071 31.7071C15.3166 32.0976 14.6834 32.0976 14.2929 31.7071L10.2929 27.7071C9.90237 27.3166 9.90237 26.6834 10.2929 26.2929L14.2929 22.2929C14.6834 21.9024 15.3166 21.9024 15.7071 22.2929C16.0976 22.6834 16.0976 23.3166 15.7071 23.7071L13.4142 26H25C25.7956 26 26.5587 25.6839 27.1213 25.1213C27.6839 24.5587 28 23.7956 28 23Z" fill="#FFDC60"/>
</svg>
