<svg width="104" height="28" viewBox="0 0 104 28" fill="none" xmlns="http://www.w3.org/2000/svg">
<path d="M14.3002 25.9885C12.7358 26.26 11.1438 26.3414 9.49697 26.5583L4.47391 12.0178V27.1823C2.90945 27.345 1.4822 27.5621 0 27.7791V0H4.17217L9.88117 15.7616V0H14.3002V25.9885ZM22.9463 10.173C24.6482 10.173 27.2557 10.0916 28.8202 10.0916V14.432C26.8713 14.432 24.5932 14.432 22.9463 14.5134V20.97C25.5265 20.8073 28.1066 20.59 30.714 20.5086V24.6861L18.5546 25.6358V0H30.714V4.34049H22.9463V10.173ZM47.0454 4.34059H42.4891V24.3068C41.0069 24.3068 39.5247 24.3068 38.0976 24.3609V4.34059H33.5414V0H47.0456L47.0454 4.34059ZM54.1817 9.87468H60.1929V14.2151H54.1817V24.0626H49.8721V0H62.1416V4.34049H54.1817V9.87468ZM69.278 20.2646C71.7758 20.3187 74.3009 20.5089 76.7438 20.6443V24.9306C72.8189 24.6863 68.8938 24.4425 64.8865 24.3609V0H69.278V20.2646ZM80.4492 25.229C81.8491 25.3106 83.3313 25.392 84.7585 25.5545V0H80.4492V25.229ZM104 0L98.4275 13.2114L104 27.7791C102.353 27.5621 100.706 27.2636 99.0587 26.9923L95.9024 18.9626L92.6913 26.3414C91.099 26.0699 89.562 25.9885 87.9703 25.7715L93.6245 13.0485L88.519 0H93.2398L96.1219 7.29745L99.1962 0L104 0Z" fill="#FF1B0C"/>
</svg>
