<svg width="118" height="32" viewBox="0 0 118 32" fill="none" xmlns="http://www.w3.org/2000/svg">
<path d="M28.0003 26.6665H26.667V6.6665C26.667 6.31288 26.5265 5.97374 26.2765 5.7237C26.0264 5.47365 25.6873 5.33317 25.3337 5.33317C24.98 5.33317 24.6409 5.47365 24.3909 5.7237C24.1408 5.97374 24.0003 6.31288 24.0003 6.6665V26.6665H21.3337V11.9998C21.3337 11.6462 21.1932 11.3071 20.9431 11.057C20.6931 10.807 20.3539 10.6665 20.0003 10.6665C19.6467 10.6665 19.3076 10.807 19.0575 11.057C18.8075 11.3071 18.667 11.6462 18.667 11.9998V26.6665H16.0003V17.3332C16.0003 16.9795 15.8598 16.6404 15.6098 16.3904C15.3598 16.1403 15.0206 15.9998 14.667 15.9998C14.3134 15.9998 13.9742 16.1403 13.7242 16.3904C13.4741 16.6404 13.3337 16.9795 13.3337 17.3332V26.6665H10.667V22.6665C10.667 22.3129 10.5265 21.9737 10.2765 21.7237C10.0264 21.4736 9.68728 21.3332 9.33366 21.3332C8.98004 21.3332 8.6409 21.4736 8.39085 21.7237C8.1408 21.9737 8.00033 22.3129 8.00033 22.6665V26.6665H5.33366V3.99984C5.33366 3.64622 5.19318 3.30708 4.94313 3.05703C4.69309 2.80698 4.35395 2.6665 4.00033 2.6665C3.6467 2.6665 3.30756 2.80698 3.05752 3.05703C2.80747 3.30708 2.66699 3.64622 2.66699 3.99984V27.9998C2.66699 28.3535 2.80747 28.6926 3.05752 28.9426C3.30756 29.1927 3.6467 29.3332 4.00033 29.3332H28.0003C28.3539 29.3332 28.6931 29.1927 28.9431 28.9426C29.1932 28.6926 29.3337 28.3535 29.3337 27.9998C29.3337 27.6462 29.1932 27.3071 28.9431 27.057C28.6931 26.807 28.3539 26.6665 28.0003 26.6665Z" fill="#20A2A2"/>
<path d="M59.2805 24.1681C59.0138 24.1681 58.7525 24.1468 58.4965 24.1041C57.4618 23.9441 56.5818 23.5494 55.8565 22.9201C55.1311 22.3014 54.6085 21.5281 54.2885 20.6001C53.2858 21.0161 52.2031 21.2241 51.0405 21.2241C49.1205 21.2241 47.5471 20.6801 46.3205 19.5921C45.0938 18.5041 44.4805 17.1068 44.4805 15.4001C44.4805 14.2588 44.7578 13.2454 45.3125 12.3601C45.8778 11.4748 46.6671 10.7921 47.6805 10.3121C48.6938 9.82143 49.8511 9.57609 51.1525 9.57609C52.0058 9.57609 52.8325 9.66143 53.6325 9.83209C54.4325 9.99209 55.0778 10.1948 55.5685 10.4401L55.6005 13.1921H55.4725C55.2165 12.2214 54.7205 11.4908 53.9845 11.0001C53.2591 10.4988 52.3845 10.2481 51.3605 10.2481C50.1018 10.2481 49.0725 10.7334 48.2725 11.7041C47.4831 12.6641 47.0885 13.9068 47.0885 15.4321C47.0885 16.9468 47.4778 18.1788 48.2565 19.1281C49.0351 20.0774 50.0378 20.5521 51.2645 20.5521C51.9258 20.5521 52.4965 20.4081 52.9765 20.1201C53.4671 19.8321 53.7978 19.4481 53.9685 18.9681V16.5361C53.9685 16.3014 53.8991 16.1201 53.7605 15.9921C53.6218 15.8641 53.4245 15.8001 53.1685 15.8001H52.9125V15.6401H57.4085V15.8001H57.1685C56.9018 15.8001 56.6991 15.8641 56.5605 15.9921C56.4218 16.1201 56.3578 16.2961 56.3685 16.5201V19.0641C56.3791 19.7681 56.5125 20.4241 56.7685 21.0321C57.3338 22.3334 58.2725 23.1441 59.5845 23.4641C59.9365 23.5494 60.2991 23.5921 60.6725 23.5921C61.0565 23.5921 61.4458 23.5494 61.8405 23.4641L61.8725 23.6241C60.9551 23.9868 60.0911 24.1681 59.2805 24.1681Z" fill="#20A2A2"/>
<path d="M62.8697 10.5041H62.1817C62.1604 10.5041 62.1444 10.5041 62.1337 10.5041V19.8321C62.1444 20.2268 62.3151 20.5201 62.6457 20.7121C62.8057 20.7974 62.9764 20.8401 63.1577 20.8401H63.3657V21.0001H58.5017V20.8401H58.7097C59.0937 20.8401 59.3871 20.6748 59.5897 20.3441C59.6751 20.1948 59.7231 20.0294 59.7337 19.8481V10.9681C59.7231 10.6908 59.6164 10.4561 59.4137 10.2641C59.2217 10.0614 58.9871 9.96009 58.7097 9.96009H58.5017V9.80009H63.9897C65.0244 9.80009 65.8991 10.0241 66.6137 10.4721C66.9764 10.6961 67.2644 11.0108 67.4777 11.4161C67.6911 11.8108 67.7977 12.2641 67.7977 12.7761C67.7977 13.2774 67.7071 13.7414 67.5257 14.1681C67.3551 14.5948 67.0617 14.9681 66.6457 15.2881C66.2404 15.6081 65.7497 15.8001 65.1737 15.8641C65.7924 16.0668 66.3364 16.5361 66.8057 17.2721C67.9577 19.1174 68.8111 20.2161 69.3657 20.5681C69.6431 20.7388 69.9897 20.8294 70.4057 20.8401V21.0001H68.8377C67.9311 21.0001 67.1737 20.8774 66.5657 20.6321C65.9577 20.3761 65.4617 19.9441 65.0777 19.3361C64.8857 19.0268 64.6404 18.5628 64.3417 17.9441C64.0431 17.3148 63.8457 16.8668 63.7497 16.6001C63.4617 15.9601 63.0991 15.6028 62.6617 15.5281V15.3681H63.1577C63.6377 15.3681 64.0591 15.2241 64.4217 14.9361C64.7951 14.6481 65.0457 14.1788 65.1737 13.5281C65.2164 13.3041 65.2377 13.1281 65.2377 13.0001C65.2377 12.1254 65.0617 11.4961 64.7097 11.1121C64.3577 10.7174 63.9044 10.5148 63.3497 10.5041C63.2431 10.5041 63.0831 10.5041 62.8697 10.5041Z" fill="#20A2A2"/>
<path d="M76.2748 9.57609C78.2482 9.57609 79.8162 10.0988 80.9788 11.1441C82.1415 12.1894 82.7228 13.6081 82.7228 15.4001C82.7228 17.1921 82.1415 18.6108 80.9788 19.6561C79.8162 20.7014 78.2482 21.2241 76.2748 21.2241C74.3015 21.2241 72.7335 20.7014 71.5708 19.6561C70.4082 18.6108 69.8268 17.1921 69.8268 15.4001C69.8268 14.2161 70.0882 13.1868 70.6108 12.3121C71.1442 11.4268 71.8962 10.7494 72.8668 10.2801C73.8375 9.81076 74.9735 9.57609 76.2748 9.57609ZM73.4748 19.1761C74.1682 20.0934 75.1015 20.5521 76.2748 20.5521C77.4482 20.5521 78.3762 20.0934 79.0588 19.1761C79.7522 18.2481 80.0988 16.9894 80.0988 15.4001C80.0988 14.3548 79.9442 13.4428 79.6348 12.6641C79.3255 11.8854 78.8828 11.2881 78.3068 10.8721C77.7308 10.4561 77.0535 10.2481 76.2748 10.2481C75.1015 10.2481 74.1682 10.7121 73.4748 11.6401C72.7922 12.5574 72.4508 13.8108 72.4508 15.4001C72.4508 16.9894 72.7922 18.2481 73.4748 19.1761Z" fill="#20A2A2"/>
<path d="M98.9071 9.96009H98.7631C98.4964 9.96009 98.2244 10.0401 97.9471 10.2001C97.6804 10.3601 97.4884 10.5894 97.3711 10.8881L94.6831 19.5121C94.5018 20.0988 94.4111 20.6428 94.4111 21.1441C94.4111 21.1974 94.4111 21.2454 94.4111 21.2881H94.2511L90.7631 13.5601L88.2351 19.5121C87.9898 20.1308 87.8618 20.7228 87.8511 21.2881H87.6911L83.8671 10.8881C83.7284 10.5788 83.5311 10.3494 83.2751 10.2001C83.0191 10.0401 82.7578 9.96009 82.4911 9.96009H82.3631V9.80009H87.2431V9.96009H87.0991C86.8751 9.96009 86.7044 10.0348 86.5871 10.1841C86.4804 10.3228 86.4271 10.4561 86.4271 10.5841C86.4271 10.7121 86.4484 10.8348 86.4911 10.9521L88.4591 16.5201L91.3551 9.54409L91.4991 9.56009L94.6831 16.5841L96.2831 10.9521C96.3151 10.8348 96.3311 10.7121 96.3311 10.5841C96.3311 10.4561 96.2778 10.3228 96.1711 10.1841C96.0751 10.0348 95.9098 9.96009 95.6751 9.96009H95.5311V9.80009H98.9071V9.96009Z" fill="#20A2A2"/>
<path d="M99.3023 20.8401C99.5797 20.8401 99.8143 20.7441 100.006 20.5521C100.209 20.3494 100.316 20.1094 100.326 19.8321V10.9521C100.316 10.6748 100.209 10.4401 100.006 10.2481C99.8143 10.0561 99.5797 9.96009 99.3023 9.96009H99.0943V9.80009H103.958L103.942 9.96009H103.75C103.473 9.96009 103.233 10.0561 103.03 10.2481C102.828 10.4401 102.726 10.6748 102.726 10.9521V19.8321C102.726 20.1094 102.828 20.3494 103.03 20.5521C103.233 20.7441 103.473 20.8401 103.75 20.8401H103.942L103.958 21.0001H99.0943V20.8401H99.3023Z" fill="#20A2A2"/>
<path d="M111.138 10.4561V19.8481C111.149 20.1254 111.25 20.3601 111.442 20.5521C111.645 20.7441 111.885 20.8401 112.162 20.8401H112.354L112.37 21.0001H107.506V20.8401H107.714C107.981 20.8401 108.21 20.7441 108.402 20.5521C108.605 20.3601 108.717 20.1308 108.738 19.8641V10.4561H106.578C106.088 10.4668 105.698 10.6214 105.41 10.9201C105.122 11.2188 104.978 11.6081 104.978 12.0881V12.2801H104.818V9.49609C104.968 9.56009 105.234 9.62409 105.618 9.68809C106.013 9.75209 106.376 9.78409 106.706 9.78409H113.154C113.677 9.77343 114.104 9.73076 114.434 9.65609C114.765 9.58143 114.968 9.52809 115.042 9.49609V12.2801H114.882V12.0881C114.882 11.6081 114.738 11.2188 114.45 10.9201C114.162 10.6214 113.773 10.4668 113.282 10.4561H111.138Z" fill="#20A2A2"/>
</svg>
