<svg width="20" height="20" viewBox="0 0 20 20" fill="none" xmlns="http://www.w3.org/2000/svg">
<g clip-path="url(#clip0_520_2051)">
<path d="M7.36939 10.543C6.20939 10.543 5.26855 11.4838 5.26855 12.6438V17.8988C5.26855 19.0588 6.20939 19.9996 7.36939 19.9996C8.52938 19.9996 9.47022 19.0588 9.47022 17.8988V12.6438C9.46938 11.4838 8.52855 10.543 7.36939 10.543Z" fill="white"/>
<path d="M0.015625 12.6435C0.015625 13.8043 0.957291 14.746 2.11812 14.746C3.27896 14.746 4.22062 13.8043 4.22062 12.6435V10.541H2.11979C2.11896 10.541 2.11896 10.541 2.11812 10.541C0.957291 10.541 0.015625 11.4827 0.015625 12.6435Z" fill="white"/>
<path d="M7.3716 -0.000976562C7.37077 -0.000976562 7.36993 -0.000976562 7.3691 -0.000976562C6.20827 -0.000976562 5.2666 0.94069 5.2666 2.10152C5.2666 3.26236 6.20827 4.20402 7.3691 4.20402H9.46993V2.10152C9.46993 2.10069 9.46993 2.09902 9.46993 2.09736C9.4691 0.93819 8.52993 -0.000976562 7.3716 -0.000976562Z" fill="white"/>
<path d="M2.10445 9.47453H7.36945C8.53029 9.47453 9.47195 8.53286 9.47195 7.37203C9.47195 6.2112 8.53029 5.26953 7.36945 5.26953H2.10445C0.94362 5.26953 0.00195312 6.2112 0.00195312 7.37203C0.00195312 8.53286 0.94362 9.47453 2.10445 9.47453Z" fill="white"/>
<path d="M17.8806 5.26953C16.7214 5.26953 15.7822 6.2087 15.7822 7.36786V7.37203V9.47453H17.8831C19.0439 9.47453 19.9856 8.53286 19.9856 7.37203C19.9856 6.2112 19.0439 5.26953 17.8831 5.26953C17.8822 5.26953 17.8814 5.26953 17.8806 5.26953Z" fill="white"/>
<path d="M10.5342 2.10181V7.37264C10.5342 8.53264 11.475 9.47348 12.635 9.47348C13.795 9.47348 14.7358 8.53264 14.7358 7.37264V2.10181C14.7358 0.94181 13.795 0.000976562 12.635 0.000976562C11.475 0.000976562 10.5342 0.94181 10.5342 2.10181Z" fill="white"/>
<path d="M14.7349 17.8967C14.7349 16.7367 13.794 15.7959 12.634 15.7959H10.5332V17.8984C10.534 19.0576 11.474 19.9976 12.634 19.9976C13.794 19.9976 14.7349 19.0567 14.7349 17.8967Z" fill="white"/>
<path d="M17.8988 10.541H12.6338C11.4729 10.541 10.5312 11.4827 10.5312 12.6435C10.5312 13.8043 11.4729 14.746 12.6338 14.746H17.8988C19.0596 14.746 20.0013 13.8043 20.0013 12.6435C20.0013 11.4827 19.0596 10.541 17.8988 10.541Z" fill="white"/>
</g>
<defs>
<clipPath id="clip0_520_2051">
<rect width="20" height="20" fill="white"/>
</clipPath>
</defs>
</svg>
