<svg width="50" height="50" viewBox="0 0 50 50" fill="none" xmlns="http://www.w3.org/2000/svg">
<path d="M39.7295 17.8316C35.0956 17.8316 31.3391 14.0806 31.3391 9.45358C31.3381 8.93786 31.3872 8.42325 31.4857 7.91699H14.8882C7.87189 7.91699 3.75 12.0877 3.75 19.0755V34.295C3.75 41.2828 7.87189 45.417 14.8882 45.417H30.1301C37.1281 45.417 41.25 41.2828 41.25 34.295V17.6853C40.7487 17.7801 40.2397 17.8291 39.7295 17.8316Z" fill="#209FA0"/>
<path d="M32.9333 22.9348L26.9795 30.6177C26.729 30.9517 26.3533 31.1695 25.9387 31.2213C25.5241 31.273 25.1063 31.1542 24.7812 30.8921L19.0655 26.4104L13.9177 33.069C13.5449 33.6609 12.8189 33.9269 12.1512 33.7161C11.4835 33.5053 11.0425 32.871 11.0782 32.1726C11.0751 31.8271 11.1916 31.4911 11.4079 31.2214L17.5633 23.2824C17.8108 22.9511 18.1815 22.7334 18.5917 22.6783C19.0019 22.6232 19.417 22.7355 19.7433 22.9897L25.459 27.4897L30.4785 21.0324C30.7199 20.6994 31.0861 20.4784 31.4934 20.4198C31.9008 20.3612 32.3146 20.47 32.6402 20.7214C33.313 21.2475 33.443 22.2133 32.9333 22.8982V22.9348Z" fill="#FFDC60"/>
<ellipse cx="40.2083" cy="8.95833" rx="5.20834" ry="5.20833" fill="#FFDC60"/>
</svg>
