<svg width="50" height="50" viewBox="0 0 50 50" fill="none" xmlns="http://www.w3.org/2000/svg">
<path d="M16.0021 3.75H34.2593C41.1042 3.75 45 8.33334 45 16.0244V32.7659C45 40.4524 40.4659 45 32.7681 45H16.0021C8.28408 45 3.75 40.4524 3.75 32.7659V16.0244C3.75 8.33781 8.28408 3.75 16.0021 3.75Z" fill="#209FA0"/>
<path fill-rule="evenodd" clip-rule="evenodd" d="M24.0625 17.5C24.9254 17.5 25.625 18.1996 25.625 19.0625V31.5625C25.625 32.4254 24.9254 33.125 24.0625 33.125C23.1996 33.125 22.5 32.4254 22.5 31.5625V19.0625C22.5 18.1996 23.1996 17.5 24.0625 17.5Z" fill="#FFDC60"/>
<path fill-rule="evenodd" clip-rule="evenodd" d="M31.875 25.3125C31.875 26.1754 31.1754 26.875 30.3125 26.875L17.8125 26.875C16.9496 26.875 16.25 26.1754 16.25 25.3125C16.25 24.4496 16.9496 23.75 17.8125 23.75L30.3125 23.75C31.1754 23.75 31.875 24.4496 31.875 25.3125Z" fill="#FFDC60"/>
<circle cx="10.625" cy="10.625" r="1.875" fill="#FFDC60"/>
<circle cx="16.875" cy="10.625" r="1.875" fill="#FFDC60"/>
</svg>
