<svg width="114" height="30" viewBox="0 0 114 30" fill="none" xmlns="http://www.w3.org/2000/svg">
<path d="M15.6753 28.0663C13.9604 28.3595 12.2154 28.4474 10.4102 28.6816L4.90412 12.9786V29.3555C3.18922 29.5313 1.62472 29.7656 0 30V0H4.57336L10.8313 17.0217V0H15.6753V28.0663ZM25.1528 10.9863C27.0183 10.9863 29.8766 10.8984 31.5915 10.8984V15.5858C29.4552 15.5858 26.9581 15.5858 25.1528 15.6737V22.6465C27.9811 22.4708 30.8093 22.2362 33.6674 22.1483V26.6597L20.3388 27.6854V0H33.6674V4.68751H25.1528V10.9863ZM51.5692 4.68762H46.5748V26.2501C44.9501 26.2501 43.3253 26.2501 41.7611 26.3085V4.68762H36.7667V0H51.5694L51.5692 4.68762ZM59.3918 10.6642H65.981V15.3516H59.3918V25.9864H54.6678V0H68.1171V4.68751H59.3918V10.6642ZM75.9397 21.8848C78.6777 21.9432 81.4455 22.1486 84.1234 22.2948V26.9238C79.821 26.66 75.5185 26.3966 71.1259 26.3085V0H75.9397V21.8848ZM88.1851 27.2461C89.7196 27.3341 91.3443 27.422 92.9088 27.5975V0H88.1851V27.2461ZM114 0L107.892 14.2676L114 30C112.195 29.7656 110.389 29.4433 108.584 29.1503L105.124 20.4786L101.604 28.4474C99.859 28.1542 98.1741 28.0663 96.4294 27.8319L102.627 14.0917L97.0309 0H102.206L105.365 7.88088L108.735 0H114V0Z" fill="#84C6C6"/>
</svg>
