<svg width="50" height="50" viewBox="0 0 50 50" fill="none" xmlns="http://www.w3.org/2000/svg">
<path d="M34.3104 3.75H14.8542C7.76875 3.75 3.75 7.76875 3.75 14.8542V34.3125C3.75 41.3958 7.76875 45.4167 14.8542 45.4167H34.3104C41.3958 45.4167 45.4167 41.3958 45.4167 34.3125V14.8542C45.3958 7.76875 41.3958 3.75 34.3104 3.75Z" fill="#209FA0"/>
<path d="M36 35.2292C35.8938 36.125 35.1459 36.7917 34.2709 36.7917C33.373 36.7917 32.6251 36.125 32.5417 35.2292V28.3958C32.4584 27.7271 32.7688 27.1042 33.3334 26.75C33.9167 26.3958 34.6251 26.3958 35.1855 26.75C35.75 27.1042 36.0605 27.7271 36 28.3958V35.2292Z" fill="#FFDC60"/>
<path d="M26.414 35.2295C26.3307 36.1253 25.5828 36.792 24.6849 36.792C23.8099 36.792 23.0619 36.1253 22.9557 35.2295V14.0003C22.8953 13.3545 23.2057 12.7066 23.7703 12.3545C24.3307 12.0003 25.039 12.0003 25.6244 12.3545C26.1869 12.7066 26.4974 13.3545 26.414 14.0003V35.2295Z" fill="#FFDC60"/>
<path d="M16.7064 35.2292C16.623 36.125 15.8751 36.7917 14.9772 36.7917C14.0814 36.7917 13.3314 36.125 13.2501 35.2292V20.8333C13.1876 20.1854 13.498 19.5417 14.0626 19.1875C14.623 18.8333 15.3334 18.8333 15.8959 19.1875C16.4564 19.5417 16.7709 20.1854 16.7064 20.8333V35.2292Z" fill="#FFDC60"/>
</svg>
