<svg width="69" height="36" viewBox="0 0 69 36" fill="none" xmlns="http://www.w3.org/2000/svg">
<path d="M8.68237 12.5389C8.70135 12.6432 8.63492 12.719 8.59696 12.8011C8.2395 13.5657 7.92 14.3429 7.65744 15.1422C7.4107 15.9004 7.21457 16.6681 7.10702 17.4579C6.95834 18.5732 6.95834 19.6852 7.24937 20.7815C7.69224 22.4528 8.68553 23.6975 10.1976 24.5347C11.0074 24.9834 11.8837 25.2456 12.7979 25.3941C13.5603 25.5173 14.3258 25.5299 15.0945 25.4825C15.8695 25.4352 16.6319 25.2835 17.3848 25.0813C20.3583 24.2725 23.3351 23.4701 26.3118 22.6613C29.1493 21.8936 31.99 21.1227 34.8276 20.355C36.6813 19.8527 38.535 19.3535 40.3856 18.8543C40.4647 18.8322 40.5469 18.8069 40.6228 18.7817C40.626 18.709 40.5754 18.728 40.5469 18.7248C40.433 18.7216 40.3192 18.7216 40.2053 18.7216C38.4148 18.7248 36.6244 18.7248 34.8307 18.728C34.7263 18.728 34.6219 18.728 34.5397 18.728C34.448 18.6553 34.4638 18.5763 34.4638 18.5036C34.4385 17.4074 34.4163 16.3079 34.3879 15.2117C34.3625 14.1817 34.3278 13.1486 34.2993 12.1187C34.293 11.8533 34.2898 11.5879 34.2835 11.3226C34.2835 11.2467 34.2771 11.1741 34.274 11.0919C34.1759 11.1014 34.1759 11.1772 34.1538 11.2341C33.8691 11.9765 33.5875 12.719 33.306 13.4614C32.6733 15.1232 32.0438 16.785 31.4111 18.4468C31.3763 18.5352 31.3384 18.6205 31.3036 18.7058C31.0695 18.7374 27.1754 18.7406 26.916 18.709C26.9223 18.6743 26.9255 18.6363 26.9381 18.6016C29.2379 12.4252 31.5345 6.24873 33.8311 0.0849393C34.0684 0.0533464 37.9403 0.0501874 38.263 0.0754618C38.2978 0.160763 38.2472 0.233426 38.2187 0.309249C37.9371 1.05168 37.6524 1.79412 37.3709 2.53655C37.0293 3.42748 36.6908 4.32156 36.3523 5.21564C36.3207 5.30094 36.2574 5.37992 36.289 5.49998C36.4978 5.31674 36.6433 5.09559 36.8142 4.89655C36.9818 4.70383 37.14 4.50164 37.3045 4.30576C37.4721 4.10041 37.643 3.89821 37.8106 3.69286C37.9783 3.4875 38.1491 3.28531 38.3168 3.07995C38.4812 2.88408 38.6426 2.68504 38.8039 2.48917C38.9716 2.28381 39.1424 2.08162 39.31 1.87626C39.4777 1.67091 39.6485 1.46871 39.8162 1.26336C39.9775 1.06748 40.142 0.868445 40.3033 0.672568C40.471 0.470373 40.6418 0.268178 40.8126 0.0628239C45.2793 0.0628239 49.7302 0.0628239 54.1842 0.0628239C54.2095 0.0628239 54.2348 0.0786211 54.2759 0.0912583C54.2601 0.141807 54.2506 0.186037 54.2348 0.227108C53.8647 1.19701 53.4946 2.17008 53.1276 3.12734C53.0106 3.18421 52.903 3.1621 52.8018 3.1621C51.5238 3.16525 50.2426 3.1621 48.9646 3.1621C48.8602 3.1621 48.759 3.16842 48.6641 3.16842C48.5281 3.41168 47.2691 6.82057 47.2216 7.07015C47.3165 7.12386 47.4209 7.09858 47.519 7.09858C48.6926 7.10174 49.8694 7.09858 51.043 7.09858C51.1474 7.09858 51.2486 7.09858 51.3435 7.09858C51.4194 7.18704 51.3688 7.25655 51.3435 7.32289C51.0841 8.01478 50.8279 8.70351 50.5685 9.39539C50.4482 9.71448 50.328 10.0336 50.2078 10.3495C50.1825 10.419 50.1477 10.4885 50.1224 10.5485C50.0117 10.6086 49.9073 10.5864 49.8029 10.5864C48.6008 10.5896 47.3956 10.5864 46.1935 10.5864C46.0923 10.5864 45.9879 10.5896 45.8898 10.5928C45.8614 10.6433 45.8361 10.6717 45.8234 10.7065C45.2888 12.1313 44.7574 13.5593 44.2227 14.9842C44.2133 15.0095 44.2164 15.0379 44.2164 15.0758C44.3113 15.1358 44.4189 15.1074 44.5169 15.1074C45.9942 15.1106 47.4747 15.1074 48.952 15.1106C49.0564 15.1106 49.1576 15.1137 49.2841 15.1169C49.2746 15.1959 49.2778 15.2622 49.2557 15.3191C49.1481 15.6318 49.0342 15.9415 48.9235 16.2542C48.895 16.3332 48.8666 16.4122 48.8413 16.4943C48.9172 16.5638 48.9931 16.5228 49.0595 16.507C49.417 16.4122 49.7713 16.3143 50.1287 16.2195C54.1715 15.1264 58.2175 14.0332 62.2602 12.9401C64.3133 12.3841 66.3663 11.8281 68.4225 11.2752C68.5237 11.2467 68.6249 11.2215 68.7262 11.212C68.7894 11.2057 68.859 11.2183 68.9191 11.2341C69.0077 11.2594 69.0235 11.3384 68.9666 11.4142C68.897 11.5121 68.7989 11.5658 68.6945 11.6132C68.549 11.6796 68.4003 11.7427 68.2517 11.8059C61.2638 14.8325 54.2759 17.8592 47.2849 20.8826C41.2144 23.508 35.1439 26.127 29.0702 28.7429C25.7519 30.1709 22.4272 31.5895 19.1025 33.0048C17.6853 33.6114 16.2555 34.1896 14.8035 34.7108C13.7153 35.0994 12.6144 35.4343 11.4788 35.6681C10.8746 35.7913 10.2672 35.8829 9.65669 35.943C9.03983 36.003 8.42614 36.0156 7.81245 35.9809C6.02515 35.8798 4.37387 35.3553 2.89658 34.3317C2.5929 34.1232 2.30187 33.8926 2.01717 33.6588C1.06816 32.869 0.460791 31.8643 0.182415 30.6638C0.0147572 29.9403 -0.0326934 29.2074 0.0210838 28.4649C0.112821 27.1886 0.438648 25.9691 0.875192 24.7749C1.40664 23.3216 2.09625 21.9441 2.86495 20.6046C3.93416 18.7469 5.1394 16.984 6.44587 15.2843C7.09753 14.4376 7.78081 13.6099 8.45145 12.779C8.52104 12.6937 8.57165 12.5863 8.6887 12.5484L8.68237 12.5389ZM38.8703 17.3063C38.8893 17.3094 38.9083 17.3126 38.9241 17.3158C38.9684 17.202 39.0159 17.0914 39.057 16.9777C40.7367 12.501 42.4165 8.0211 44.0962 3.54437C44.4347 2.64081 44.7732 1.74041 45.1085 0.836852C45.1401 0.75471 45.1939 0.672569 45.1686 0.552515C45.099 0.61886 45.0421 0.66625 44.9946 0.719958C44.6118 1.14014 44.2291 1.56033 43.8463 1.97736C42.1507 3.83819 40.4552 5.69901 38.7565 7.55668C38.6331 7.69253 38.554 7.82522 38.5856 8.00846C38.5888 8.02742 38.5856 8.04637 38.5888 8.06533C38.6236 9.24691 38.6616 10.4285 38.6964 11.6101C38.7406 13.2181 38.7849 14.8262 38.8261 16.4312C38.8324 16.6586 38.8387 16.8861 38.8482 17.1104C38.8482 17.1799 38.8609 17.2431 38.8703 17.3063Z" fill="#84C6C6"/>
<path d="M21.0954 18.7216C19.5042 18.7216 17.9415 18.7216 16.3599 18.7216C16.3535 18.6711 16.3409 18.6269 16.344 18.5858C16.382 17.9729 16.4231 17.36 16.4642 16.7439C16.4895 16.3364 16.5149 15.932 16.5402 15.5244C16.5686 15.0821 16.6003 14.6367 16.6287 14.1944C16.6477 13.9195 16.6635 13.6478 16.6825 13.373C16.7395 12.4852 16.7964 11.6006 16.8533 10.716C16.7743 10.6875 16.7679 10.7413 16.7521 10.7792C16.5054 11.4331 16.2618 12.0903 16.015 12.7442C15.3065 14.6398 14.5979 16.5354 13.8893 18.431C13.8545 18.5258 13.8102 18.6205 13.7659 18.7311C12.3392 18.7311 10.9189 18.7311 9.49852 18.7311C9.46372 18.7311 9.42893 18.7185 9.37831 18.709C9.39729 18.6427 9.41311 18.589 9.43209 18.5384C11.7413 12.3872 14.0538 6.23609 16.3535 0.107054C16.3852 0.0849393 16.3915 0.0786207 16.401 0.0754614C16.4105 0.0723021 16.42 0.0691424 16.4294 0.0691424C17.8878 0.0659831 19.3492 0.0659828 20.8075 0.0628235C20.8645 0.0628235 20.9214 0.0628238 20.9784 0.0691424C20.9973 0.0691424 21.0132 0.08178 21.0416 0.0912579C21.0922 0.160762 21.0669 0.249223 21.0606 0.328205C21.0068 1.19701 20.9499 2.06582 20.8929 2.93463C20.836 3.81291 20.7791 4.6912 20.7221 5.56948C20.6747 6.27717 20.6241 6.98485 20.5766 7.69253C20.564 7.85997 20.5513 8.03058 20.5671 8.22645C20.6557 8.16959 20.6684 8.09376 20.6905 8.03057C20.9372 7.3766 21.184 6.71947 21.4307 6.06549C22.1488 4.15412 22.8701 2.24274 23.5881 0.331364C23.6198 0.242903 23.6609 0.160762 23.6925 0.0849389C24.0247 0.0533459 27.8397 0.0596649 28.058 0.0912579C28.0611 0.116532 28.0706 0.148125 28.0611 0.173399C25.7424 6.34667 23.4236 12.5231 21.0954 18.7216Z" fill="#84C6C6"/>
<path d="M21.7154 18.7058C21.7154 18.6774 21.7059 18.6458 21.7154 18.6237C24.0247 12.4725 26.3339 6.32455 28.6432 0.173399C28.6558 0.138647 28.678 0.110214 28.6938 0.0849392C28.9311 0.0565055 32.7461 0.0501865 33.0529 0.0786202C33.0814 0.189196 33.0181 0.277656 32.9833 0.372435C32.6164 1.35498 32.2463 2.33752 31.8793 3.32006C29.9845 8.36546 28.0896 13.4077 26.1947 18.4531C26.1631 18.5416 26.1252 18.6269 26.0935 18.7058C25.8468 18.7406 21.9558 18.7438 21.7154 18.7058Z" fill="#84C6C6"/>
<path d="M56.0442 1.8731C55.5001 1.87626 55.1395 1.5319 55.0668 1.11171C54.994 0.691524 55.1901 0.287133 55.5792 0.103894C55.8703 -0.0319563 56.1644 -0.035116 56.4586 0.0975745C56.8446 0.271336 57.066 0.685205 56.9901 1.09591C56.911 1.52558 56.5915 1.82255 56.1613 1.86362C56.117 1.86994 56.0695 1.86994 56.0442 1.8731ZM55.6551 1.46871C55.6868 1.5003 55.7121 1.54453 55.75 1.55717C55.9304 1.62668 56.117 1.62668 56.2973 1.56033C56.3289 1.54769 56.3511 1.51926 56.3859 1.49398C56.1518 1.42132 56.155 1.42132 56.0284 1.20965C55.9968 1.15594 55.9873 1.08012 55.8924 1.08012C55.8797 1.19701 55.8671 1.31391 55.8576 1.42764C55.7754 1.4466 55.7121 1.45923 55.652 1.47503C55.6077 1.09275 55.6203 0.666249 55.6836 0.457735C55.8449 0.43878 56.0158 0.441939 56.1834 0.457735C56.2941 0.467213 56.3796 0.527239 56.4175 0.634655C56.4586 0.751549 56.4428 0.858966 56.3511 0.947427C56.3131 0.985338 56.2657 1.01377 56.2214 1.04536C56.2973 1.19385 56.3701 1.32022 56.4586 1.44028C56.7528 1.18121 56.7876 0.779985 56.5504 0.501966C56.3353 0.252382 55.962 0.192355 55.6741 0.359798C55.323 0.565152 55.3008 0.93479 55.3957 1.19701C55.4432 1.32022 55.5001 1.44344 55.6551 1.46871ZM55.8861 0.603062C55.8861 0.685204 55.8797 0.732594 55.8892 0.773665C55.8924 0.79578 55.9145 0.833692 55.9304 0.836851C55.9905 0.84001 56.0601 0.84001 56.1138 0.821055C56.1834 0.79578 56.1803 0.666249 56.1107 0.640974C56.0537 0.6157 55.9873 0.615699 55.8861 0.603062Z" fill="#84C6C6"/>
<path d="M11.6116 23.9124C11.3048 23.9155 11.0675 23.8334 10.8714 23.6533C10.4728 23.2837 10.4539 22.3959 11.1972 22.1084C11.444 22.0136 11.6971 22.0168 11.947 22.1084C12.3487 22.2569 12.5891 22.6581 12.5417 23.1036C12.4942 23.5206 12.1652 23.8492 11.7413 23.9029C11.6844 23.9092 11.6275 23.9124 11.6116 23.9124ZM11.9849 23.4985C12.2412 23.3279 12.2886 23.0815 12.2222 22.8035C12.1557 22.5286 11.9217 22.3327 11.6338 22.3074C11.3459 22.2822 11.077 22.4275 10.9537 22.6771C10.8303 22.9298 10.8746 23.2458 11.0612 23.4416C11.0897 23.4732 11.1435 23.4827 11.1846 23.5017C11.1972 23.5238 11.2067 23.5585 11.2257 23.568C11.4946 23.6912 11.7508 23.707 11.9849 23.4985Z" fill="#84C6C6"/>
<path d="M8.6887 12.5452C8.69186 12.5294 8.69502 12.5168 8.69819 12.501C8.70768 12.5073 8.714 12.5168 8.72349 12.5231C8.71084 12.5294 8.69819 12.5326 8.68237 12.5389L8.6887 12.5452Z" fill="#84C6C6"/>
<path d="M55.652 1.47503C55.7153 1.45923 55.7785 1.4466 55.8576 1.42764C55.8703 1.31391 55.8829 1.19701 55.8924 1.08012C55.9873 1.08012 55.9968 1.15594 56.0284 1.20965C56.1518 1.42132 56.1518 1.42132 56.3859 1.49398C56.3511 1.51926 56.3289 1.55085 56.2973 1.56033C56.1138 1.62984 55.9304 1.62983 55.75 1.55717C55.7121 1.54137 55.6868 1.49714 55.6551 1.46871L55.652 1.47503Z" fill="#84C6C6"/>
<path d="M55.8861 0.603062C55.9905 0.618859 56.0537 0.615701 56.1107 0.637816C56.1803 0.66625 56.1803 0.792622 56.1138 0.817897C56.0569 0.840012 55.9905 0.836852 55.9304 0.833693C55.9145 0.833693 55.8924 0.795782 55.8892 0.770507C55.8797 0.729436 55.8861 0.685204 55.8861 0.603062Z" fill="#84C6C6"/>
<path d="M11.9849 23.4985C11.7508 23.7039 11.4946 23.6881 11.2289 23.5648C11.2099 23.5554 11.2004 23.5206 11.1878 23.4985L11.1846 23.5048C11.2573 23.4922 11.3269 23.4795 11.3902 23.4701C11.4471 23.3469 11.387 23.2205 11.4503 23.0941C11.5958 23.2078 11.6053 23.3911 11.7287 23.4795C11.8236 23.489 11.9058 23.4985 11.9881 23.5048L11.9849 23.4985Z" fill="#84C6C6"/>
<path d="M11.9881 23.508C11.9058 23.4985 11.8204 23.4922 11.7287 23.4827C11.6053 23.3911 11.5958 23.2078 11.4503 23.0973C11.387 23.2236 11.4472 23.35 11.3902 23.4732C11.3269 23.4827 11.2542 23.4953 11.1846 23.508C11.1719 23.1826 11.1751 22.854 11.1814 22.5191C11.3807 22.4654 11.5674 22.4812 11.7477 22.5033C11.8552 22.516 11.9406 22.5855 11.9628 22.6992C11.9881 22.8129 11.9818 22.9235 11.8742 23.0025C11.8394 23.0278 11.8014 23.0562 11.7603 23.0846C11.8426 23.2268 11.9153 23.369 11.9881 23.508ZM11.7002 22.7624C11.6971 22.6866 11.6401 22.6455 11.5357 22.6487C11.4535 22.6487 11.4187 22.6866 11.4218 22.7719C11.4218 22.8603 11.4693 22.8951 11.5737 22.8856C11.6591 22.8761 11.7065 22.8319 11.7002 22.7624Z" fill="#84C6C6"/>
<path d="M11.7002 22.7624C11.7034 22.8319 11.6591 22.8761 11.5737 22.8824C11.4693 22.8919 11.4218 22.8572 11.4218 22.7687C11.4218 22.6802 11.4535 22.6455 11.5357 22.6455C11.6401 22.6455 11.6971 22.6866 11.7002 22.7624Z" fill="#84C6C6"/>
</svg>
