<svg width="40" height="40" viewBox="0 0 40 40" fill="none" xmlns="http://www.w3.org/2000/svg">
<path d="M26.7924 3.33301H32.4357C34.7728 3.33301 36.6666 5.24276 36.6666 7.59961V13.2905C36.6666 15.6474 34.7728 17.5572 32.4357 17.5572H26.7924C24.4553 17.5572 22.5615 15.6474 22.5615 13.2905V7.59961C22.5615 5.24276 24.4553 3.33301 26.7924 3.33301Z" fill="#FFDC60"/>
<path d="M7.56388 22.4424H13.2072C15.5443 22.4424 17.438 24.3521 17.438 26.709V32.3999C17.438 34.7552 15.5443 36.6665 13.2072 36.6665H7.56388C5.22677 36.6665 3.33301 34.7552 3.33301 32.3999V26.709C3.33301 24.3521 5.22677 22.4424 7.56388 22.4424Z" fill="#FFDC60"/>
<path fill-rule="evenodd" clip-rule="evenodd" d="M13.2072 3.33301H7.56388C5.22677 3.33301 3.33301 5.24276 3.33301 7.59961V13.2905C3.33301 15.6474 5.22677 17.5572 7.56388 17.5572H13.2072C15.5443 17.5572 17.438 15.6474 17.438 13.2905V7.59961C17.438 5.24276 15.5443 3.33301 13.2072 3.33301ZM32.4355 22.4422H26.7922C24.4551 22.4422 22.5613 24.3519 22.5613 26.7088V32.3997C22.5613 34.755 24.4551 36.6663 26.7922 36.6663H32.4355C34.7726 36.6663 36.6663 34.755 36.6663 32.3997V26.7088C36.6663 24.3519 34.7726 22.4422 32.4355 22.4422Z" fill="#456B6B"/>
</svg>
