<svg width="40" height="40" viewBox="0 0 40 40" fill="none" xmlns="http://www.w3.org/2000/svg">
<path d="M18.4671 9.81863C18.6046 10.2397 18.5241 10.7016 18.2521 11.0512L11.6525 19.5365C11.2134 20.1011 10.407 20.2186 9.82501 19.8029L3.22534 15.0889C2.89182 14.8506 2.6864 14.4722 2.6683 14.0628C2.65019 13.6533 2.82141 13.2583 3.13261 12.9915L9.73227 7.33468C10.0722 7.04329 10.5358 6.94198 10.9663 7.06499L17.5659 8.95061C17.9919 9.0723 18.3295 9.39757 18.4671 9.81863Z" fill="#FFDC60"/>
<path d="M28.927 20.2788C28.506 20.1413 28.0441 20.2218 27.6944 20.4938L19.2092 27.0934C18.6446 27.5325 18.527 28.3389 18.9428 28.9209L23.6568 35.5205C23.895 35.8541 24.2734 36.0595 24.6829 36.0776C25.0924 36.0957 25.4874 35.9245 25.7541 35.6133L31.411 29.0136C31.7024 28.6737 31.8037 28.2101 31.6807 27.7796L29.7951 21.1799C29.6734 20.754 29.3481 20.4164 28.927 20.2788Z" fill="#FFDC60"/>
<path fill-rule="evenodd" clip-rule="evenodd" d="M35.4578 4.23535C35.3352 3.76795 34.9694 3.40342 34.5016 3.28254C31.2805 2.45027 27.99 2.45747 24.969 3.33155C21.9451 4.20645 19.3107 5.91618 17.3495 8.29358L17.3466 8.2971L14.9336 11.2426C14.9145 11.2659 14.8962 11.2899 14.8787 11.3144C14.8758 11.3185 14.8729 11.322 14.8699 11.3251C14.8466 11.3495 14.8242 11.3748 14.8028 11.4009L11.9793 14.8436L11.9767 14.8468C9.70196 17.6378 8.32172 21.0849 7.95843 24.8166C7.91979 25.2135 8.06082 25.6068 8.34285 25.8887L13.0857 30.6299C13.3535 30.8976 13.7226 31.0388 14.1008 31.0183C17.8583 30.8139 21.342 29.4791 24.0924 27.154C24.1042 27.144 24.1158 27.1338 24.1273 27.1235L30.4507 21.3893C32.8285 19.4426 34.541 16.8206 35.4187 13.8069C36.3019 10.7747 36.3054 7.4684 35.4578 4.23535Z" fill="#456B6B"/>
<path d="M24.781 13.8863C25.8224 14.9277 27.5109 14.9277 28.5523 13.8863C29.5937 12.8449 29.5937 11.1564 28.5523 10.115C27.5109 9.07363 25.8224 9.07363 24.781 10.115C23.7396 11.1564 23.7397 12.8449 24.781 13.8863Z" fill="#FFDC60"/>
</svg>
