<svg width="50" height="50" viewBox="0 0 50 50" fill="none" xmlns="http://www.w3.org/2000/svg">
<path fill-rule="evenodd" clip-rule="evenodd" d="M36.9515 12.5956C40.5085 15.3411 43.5369 19.3633 45.7117 24.3936C45.8743 24.7754 45.8743 25.2219 45.7117 25.5855C41.3621 35.6461 33.6182 41.6663 25.0003 41.6663H24.98C16.3824 41.6663 8.63854 35.6461 4.28894 25.5855C4.12634 25.2219 4.12634 24.7754 4.28894 24.3936C8.63854 14.331 16.3824 8.33301 24.98 8.33301H25.0003C29.3093 8.33301 33.3946 9.82796 36.9515 12.5956ZM16.8704 24.9997C16.8704 29.4441 20.5086 33.0603 25.0005 33.0603C29.472 33.0603 33.1102 29.4441 33.1102 24.9997C33.1102 20.535 29.472 16.9189 25.0005 16.9189C20.5086 16.9189 16.8704 20.535 16.8704 24.9997Z" fill="#209FA0"/>
<path d="M30.0642 24.9929C30.0642 27.7606 27.7877 30.0232 25.0032 30.0232C22.1983 30.0232 19.9219 27.7606 19.9219 24.9929C19.9219 24.6495 19.9625 24.3282 20.0235 24.005H20.1251C22.3812 24.005 24.2105 22.2272 24.2918 20.003C24.5154 19.9646 24.7593 19.9424 25.0032 19.9424C27.7877 19.9424 30.0642 22.205 30.0642 24.9929Z" fill="#FFDC60"/>
</svg>
