<svg width="1746" height="493" viewBox="0 0 1746 493" fill="none" xmlns="http://www.w3.org/2000/svg">
<rect width="1440" height="493" transform="translate(92)" fill="white"/>
<path d="M170 393V443H120L120 393H170Z" fill="#20A2A2"/>
<path d="M80 379V459L0 459V379H80Z" fill="#20A2A2"/>
<path d="M320 425H286V459H320V425Z" fill="#20A2A2"/>
<path d="M448 379H368V459H448V379Z" fill="#20A2A2"/>
<path d="M320 267V377H210V267H320Z" fill="#20A2A2"/>
<path d="M210 137V267H80V137H210Z" fill="#20A2A2"/>
<path d="M378 137H320V195H378V137Z" fill="#20A2A2"/>
<path d="M210 34H152V92H210V34Z" fill="#20A2A2"/>
<path d="M210 35H152V93H210V35Z" fill="#20A2A2"/>
<path d="M448 137H418V167H448V137Z" fill="#20A2A2"/>
<path d="M359 93H339V113H359V93Z" fill="#20A2A2"/>
<path d="M378 195H448V265H378V195Z" fill="#20A2A2"/>
<path d="M1676 395H1620V339H1676V395Z" fill="#20A2A2"/>
<path d="M1746 395H1716V365H1746V395Z" fill="#20A2A2"/>
<path d="M1746 136H1676V66H1746V136Z" fill="#20A2A2"/>
<path d="M1462 157V67L1372 67V157H1462Z" fill="#20A2A2"/>
<path d="M1642 96H1612V66H1642V96Z" fill="#20A2A2"/>
<path d="M1746 339H1676V269H1746V339Z" fill="#20A2A2"/>
<path d="M1612 266V156H1502V266L1612 266Z" fill="#20A2A2"/>
<path d="M1502 395V265H1372L1372 395H1502Z" fill="#20A2A2"/>
<path d="M1308 325V265H1248L1248 325H1308Z" fill="#20A2A2"/>
</svg>
